<mxfile host="app.diagrams.net" agent="Mozilla/5.0 (Macintosh; Intel Mac OS X 10_15_7) AppleWebKit/537.36 (KHTML, like Gecko) Chrome/131.0.0.0 Safari/537.36" version="26.0.4">
  <diagram name="Pagina-1" id="jSQZrqnjjTgl8IccUS5j">
    <mxGraphModel grid="1" page="1" gridSize="10" guides="1" tooltips="1" connect="1" arrows="1" fold="1" pageScale="1" pageWidth="827" pageHeight="1169" math="0" shadow="0">
      <root>
        <mxCell id="0" />
        <mxCell id="1" parent="0" />
        <mxCell id="BO4_4LdUMhzfo3xq-RvV-73" value="" style="rounded=1;whiteSpace=wrap;html=1;enumerate=0;fillColor=#00CC00;strokeColor=#36393d;dashed=1;align=center;" vertex="1" parent="1">
          <mxGeometry x="3650" y="3619" width="260" height="316" as="geometry" />
        </mxCell>
        <mxCell id="BO4_4LdUMhzfo3xq-RvV-34" value="" style="rounded=1;whiteSpace=wrap;html=1;enumerate=0;fillColor=#ffe6cc;strokeColor=#d79b00;dashed=1;align=center;" vertex="1" parent="1">
          <mxGeometry x="2650" y="3865" width="900" height="530" as="geometry" />
        </mxCell>
        <mxCell id="BO4_4LdUMhzfo3xq-RvV-48" value="&lt;font style=&quot;color: rgb(0, 0, 0);&quot;&gt;&amp;lt;&amp;lt;Device&amp;gt;&amp;gt;&lt;br&gt;&lt;b&gt;Web Server&lt;/b&gt;&lt;/font&gt;" style="verticalAlign=top;align=center;shape=cube;size=10;direction=south;html=1;boundedLbl=1;spacingLeft=5;whiteSpace=wrap;fillColor=#FF9933;strokeColor=#C73500;fontColor=#000000;" vertex="1" parent="1">
          <mxGeometry x="2869" y="3965" width="310" height="395" as="geometry" />
        </mxCell>
        <mxCell id="BO4_4LdUMhzfo3xq-RvV-47" value="&lt;font style=&quot;color: rgb(0, 0, 0);&quot;&gt;&amp;lt;&amp;lt;Operating System&amp;gt;&amp;gt;&lt;br&gt;&lt;b&gt;Linux&lt;/b&gt;&lt;/font&gt;" style="verticalAlign=top;align=center;shape=cube;size=10;direction=south;html=1;boundedLbl=1;spacingLeft=5;whiteSpace=wrap;fillColor=#FF3333;strokeColor=#B20000;fontColor=#ffffff;" vertex="1" parent="1">
          <mxGeometry x="2899" y="4035" width="250" height="305" as="geometry" />
        </mxCell>
        <mxCell id="wZ9YFpNgo-BVNTIVue3e-1" value="&lt;div&gt;&lt;span style=&quot;background-color: initial;&quot;&gt;WebApp&lt;/span&gt;&lt;/div&gt;" style="shape=module;align=left;spacingLeft=20;align=center;verticalAlign=top;whiteSpace=wrap;html=1;" vertex="1" parent="1">
          <mxGeometry x="138" y="310" width="100" height="50" as="geometry" />
        </mxCell>
        <mxCell id="wZ9YFpNgo-BVNTIVue3e-2" value="cmp S&amp;amp;C Server" style="shape=umlFrame;whiteSpace=wrap;html=1;pointerEvents=0;width=160;height=30;" vertex="1" parent="1">
          <mxGeometry x="480" y="200" width="580" height="400" as="geometry" />
        </mxCell>
        <mxCell id="LDVH6EXJs3wNMszBXcdS-17" style="edgeStyle=orthogonalEdgeStyle;rounded=0;orthogonalLoop=1;jettySize=auto;html=1;exitX=0;exitY=0.5;exitDx=0;exitDy=0;exitPerimeter=0;entryX=0;entryY=0.5;entryDx=0;entryDy=0;endArrow=none;endFill=0;" edge="1" parent="1" source="wZ9YFpNgo-BVNTIVue3e-4" target="LDVH6EXJs3wNMszBXcdS-5">
          <mxGeometry relative="1" as="geometry" />
        </mxCell>
        <mxCell id="wZ9YFpNgo-BVNTIVue3e-4" value="" style="shape=providedRequiredInterface;html=1;verticalLabelPosition=bottom;sketch=0;rotation=-180;" vertex="1" parent="1">
          <mxGeometry x="342" y="312" width="20" height="20" as="geometry" />
        </mxCell>
        <mxCell id="wZ9YFpNgo-BVNTIVue3e-5" style="edgeStyle=orthogonalEdgeStyle;rounded=0;orthogonalLoop=1;jettySize=auto;html=1;exitX=1;exitY=0.25;exitDx=0;exitDy=0;entryX=1;entryY=0.5;entryDx=0;entryDy=0;entryPerimeter=0;endArrow=none;endFill=0;" edge="1" parent="1" source="wZ9YFpNgo-BVNTIVue3e-1" target="wZ9YFpNgo-BVNTIVue3e-4">
          <mxGeometry relative="1" as="geometry" />
        </mxCell>
        <mxCell id="LDVH6EXJs3wNMszBXcdS-1" style="edgeStyle=orthogonalEdgeStyle;rounded=0;orthogonalLoop=1;jettySize=auto;html=1;exitX=0;exitY=0.5;exitDx=0;exitDy=0;exitPerimeter=0;entryX=0;entryY=0.243;entryDx=0;entryDy=0;entryPerimeter=0;endArrow=none;endFill=0;" edge="1" parent="1" source="LDVH6EXJs3wNMszBXcdS-5" target="wZ9YFpNgo-BVNTIVue3e-2">
          <mxGeometry relative="1" as="geometry" />
        </mxCell>
        <mxCell id="LDVH6EXJs3wNMszBXcdS-14" style="edgeStyle=orthogonalEdgeStyle;rounded=0;orthogonalLoop=1;jettySize=auto;html=1;exitX=1;exitY=0.5;exitDx=0;exitDy=0;exitPerimeter=0;entryX=0;entryY=0.5;entryDx=0;entryDy=0;endArrow=none;endFill=0;" edge="1" parent="1" source="LDVH6EXJs3wNMszBXcdS-2" target="LDVH6EXJs3wNMszBXcdS-7">
          <mxGeometry relative="1" as="geometry" />
        </mxCell>
        <mxCell id="LDVH6EXJs3wNMszBXcdS-2" value="" style="shape=providedRequiredInterface;html=1;verticalLabelPosition=bottom;sketch=0;" vertex="1" parent="1">
          <mxGeometry x="313" y="520" width="20" height="20" as="geometry" />
        </mxCell>
        <mxCell id="LDVH6EXJs3wNMszBXcdS-5" value="" style="rounded=0;whiteSpace=wrap;html=1;" vertex="1" parent="1">
          <mxGeometry x="470" y="312" width="20" height="20" as="geometry" />
        </mxCell>
        <mxCell id="LDVH6EXJs3wNMszBXcdS-7" value="" style="rounded=0;whiteSpace=wrap;html=1;" vertex="1" parent="1">
          <mxGeometry x="470" y="520" width="20" height="20" as="geometry" />
        </mxCell>
        <mxCell id="LDVH6EXJs3wNMszBXcdS-8" style="edgeStyle=orthogonalEdgeStyle;rounded=0;orthogonalLoop=1;jettySize=auto;html=1;exitX=1;exitY=0.75;exitDx=0;exitDy=0;entryX=0.348;entryY=0.155;entryDx=0;entryDy=0;entryPerimeter=0;endArrow=none;endFill=0;" edge="1" parent="1" source="wZ9YFpNgo-BVNTIVue3e-1" target="LDVH6EXJs3wNMszBXcdS-2">
          <mxGeometry relative="1" as="geometry" />
        </mxCell>
        <mxCell id="LDVH6EXJs3wNMszBXcdS-11" value="Notification&lt;br style=&quot;font-size: 10px;&quot;&gt;Interface" style="text;html=1;align=center;verticalAlign=middle;resizable=0;points=[];autosize=1;strokeColor=none;fillColor=none;fontSize=10;" vertex="1" parent="1">
          <mxGeometry x="288" y="530" width="70" height="40" as="geometry" />
        </mxCell>
        <mxCell id="LDVH6EXJs3wNMszBXcdS-15" value="Dashboard&lt;br&gt;Interface" style="text;html=1;align=center;verticalAlign=middle;resizable=0;points=[];autosize=1;strokeColor=none;fillColor=none;fontSize=10;" vertex="1" parent="1">
          <mxGeometry x="317" y="280" width="70" height="40" as="geometry" />
        </mxCell>
        <mxCell id="LDVH6EXJs3wNMszBXcdS-18" value="Dashboard&lt;br&gt;Manager" style="text;html=1;align=center;verticalAlign=middle;resizable=0;points=[];autosize=1;strokeColor=none;fillColor=none;fontSize=10;" vertex="1" parent="1">
          <mxGeometry x="407" y="320" width="70" height="40" as="geometry" />
        </mxCell>
        <mxCell id="LDVH6EXJs3wNMszBXcdS-19" value="Notification&lt;br style=&quot;font-size: 10px;&quot;&gt;Manager" style="text;html=1;align=center;verticalAlign=middle;resizable=0;points=[];autosize=1;strokeColor=none;fillColor=none;fontSize=10;" vertex="1" parent="1">
          <mxGeometry x="410" y="490" width="70" height="40" as="geometry" />
        </mxCell>
        <mxCell id="LDVH6EXJs3wNMszBXcdS-20" value="" style="rounded=0;whiteSpace=wrap;html=1;" vertex="1" parent="1">
          <mxGeometry x="1050" y="520" width="20" height="20" as="geometry" />
        </mxCell>
        <mxCell id="LDVH6EXJs3wNMszBXcdS-21" value="" style="rounded=0;whiteSpace=wrap;html=1;" vertex="1" parent="1">
          <mxGeometry x="1050" y="260" width="20" height="20" as="geometry" />
        </mxCell>
        <mxCell id="LDVH6EXJs3wNMszBXcdS-22" value="" style="rounded=0;whiteSpace=wrap;html=1;" vertex="1" parent="1">
          <mxGeometry x="1050" y="390" width="20" height="20" as="geometry" />
        </mxCell>
        <mxCell id="LDVH6EXJs3wNMszBXcdS-23" value="" style="shape=providedRequiredInterface;html=1;verticalLabelPosition=bottom;sketch=0;rotation=-180;" vertex="1" parent="1">
          <mxGeometry x="1173" y="520" width="20" height="20" as="geometry" />
        </mxCell>
        <mxCell id="LDVH6EXJs3wNMszBXcdS-24" value="" style="shape=providedRequiredInterface;html=1;verticalLabelPosition=bottom;sketch=0;rotation=-180;" vertex="1" parent="1">
          <mxGeometry x="1173" y="390" width="20" height="20" as="geometry" />
        </mxCell>
        <mxCell id="LDVH6EXJs3wNMszBXcdS-25" value="" style="shape=providedRequiredInterface;html=1;verticalLabelPosition=bottom;sketch=0;rotation=-180;" vertex="1" parent="1">
          <mxGeometry x="1173" y="260" width="20" height="20" as="geometry" />
        </mxCell>
        <mxCell id="LDVH6EXJs3wNMszBXcdS-26" style="edgeStyle=orthogonalEdgeStyle;rounded=0;orthogonalLoop=1;jettySize=auto;html=1;exitX=1;exitY=0.5;exitDx=0;exitDy=0;entryX=1;entryY=0.5;entryDx=0;entryDy=0;entryPerimeter=0;endArrow=none;endFill=0;" edge="1" parent="1" source="LDVH6EXJs3wNMszBXcdS-21" target="LDVH6EXJs3wNMszBXcdS-25">
          <mxGeometry relative="1" as="geometry" />
        </mxCell>
        <mxCell id="LDVH6EXJs3wNMszBXcdS-27" style="edgeStyle=orthogonalEdgeStyle;rounded=0;orthogonalLoop=1;jettySize=auto;html=1;exitX=1;exitY=0.5;exitDx=0;exitDy=0;entryX=1;entryY=0.5;entryDx=0;entryDy=0;entryPerimeter=0;endArrow=none;endFill=0;" edge="1" parent="1" source="LDVH6EXJs3wNMszBXcdS-22" target="LDVH6EXJs3wNMszBXcdS-24">
          <mxGeometry relative="1" as="geometry" />
        </mxCell>
        <mxCell id="LDVH6EXJs3wNMszBXcdS-28" style="edgeStyle=orthogonalEdgeStyle;rounded=0;orthogonalLoop=1;jettySize=auto;html=1;exitX=1;exitY=0.5;exitDx=0;exitDy=0;entryX=1;entryY=0.5;entryDx=0;entryDy=0;entryPerimeter=0;endArrow=none;endFill=0;" edge="1" parent="1" source="LDVH6EXJs3wNMszBXcdS-20" target="LDVH6EXJs3wNMszBXcdS-23">
          <mxGeometry relative="1" as="geometry" />
        </mxCell>
        <mxCell id="LDVH6EXJs3wNMszBXcdS-29" value="&lt;div&gt;&lt;span style=&quot;background-color: initial;&quot;&gt;External&lt;br&gt;Tools&lt;/span&gt;&lt;/div&gt;" style="shape=module;align=left;spacingLeft=20;align=center;verticalAlign=top;whiteSpace=wrap;html=1;" vertex="1" parent="1">
          <mxGeometry x="1270" y="255" width="100" height="50" as="geometry" />
        </mxCell>
        <mxCell id="LDVH6EXJs3wNMszBXcdS-30" value="&lt;div&gt;&lt;span style=&quot;background-color: initial;&quot;&gt;Mail Server&lt;/span&gt;&lt;/div&gt;" style="shape=module;align=left;spacingLeft=20;align=center;verticalAlign=top;whiteSpace=wrap;html=1;" vertex="1" parent="1">
          <mxGeometry x="1270" y="385" width="100" height="50" as="geometry" />
        </mxCell>
        <mxCell id="LDVH6EXJs3wNMszBXcdS-31" value="&lt;div&gt;&lt;span style=&quot;background-color: initial;&quot;&gt;DBMS&lt;/span&gt;&lt;/div&gt;" style="shape=module;align=left;spacingLeft=20;align=center;verticalAlign=top;whiteSpace=wrap;html=1;" vertex="1" parent="1">
          <mxGeometry x="1270" y="515" width="100" height="50" as="geometry" />
        </mxCell>
        <mxCell id="LDVH6EXJs3wNMszBXcdS-32" style="edgeStyle=orthogonalEdgeStyle;rounded=0;orthogonalLoop=1;jettySize=auto;html=1;exitX=0;exitY=0.5;exitDx=0;exitDy=0;exitPerimeter=0;entryX=0;entryY=0;entryDx=0;entryDy=15;entryPerimeter=0;endArrow=none;endFill=0;" edge="1" parent="1" source="LDVH6EXJs3wNMszBXcdS-23" target="LDVH6EXJs3wNMszBXcdS-31">
          <mxGeometry relative="1" as="geometry" />
        </mxCell>
        <mxCell id="LDVH6EXJs3wNMszBXcdS-34" style="edgeStyle=orthogonalEdgeStyle;rounded=0;orthogonalLoop=1;jettySize=auto;html=1;exitX=0;exitY=0.5;exitDx=0;exitDy=0;exitPerimeter=0;entryX=0;entryY=0;entryDx=0;entryDy=15;entryPerimeter=0;endArrow=none;endFill=0;" edge="1" parent="1" source="LDVH6EXJs3wNMszBXcdS-24" target="LDVH6EXJs3wNMszBXcdS-30">
          <mxGeometry relative="1" as="geometry" />
        </mxCell>
        <mxCell id="LDVH6EXJs3wNMszBXcdS-35" style="edgeStyle=orthogonalEdgeStyle;rounded=0;orthogonalLoop=1;jettySize=auto;html=1;exitX=0;exitY=0.5;exitDx=0;exitDy=0;exitPerimeter=0;entryX=0;entryY=0;entryDx=0;entryDy=15;entryPerimeter=0;endArrow=none;endFill=0;" edge="1" parent="1" source="LDVH6EXJs3wNMszBXcdS-25" target="LDVH6EXJs3wNMszBXcdS-29">
          <mxGeometry relative="1" as="geometry" />
        </mxCell>
        <mxCell id="LDVH6EXJs3wNMszBXcdS-67" value="DBMS&lt;div style=&quot;font-size: 10px;&quot;&gt;API&lt;/div&gt;" style="text;html=1;align=center;verticalAlign=middle;resizable=0;points=[];autosize=1;strokeColor=none;fillColor=none;fontSize=10;" vertex="1" parent="1">
          <mxGeometry x="1158" y="540" width="50" height="40" as="geometry" />
        </mxCell>
        <mxCell id="LDVH6EXJs3wNMszBXcdS-68" value="&lt;font style=&quot;font-size: 10px;&quot;&gt;Model&lt;/font&gt;" style="text;html=1;align=center;verticalAlign=middle;resizable=0;points=[];autosize=1;strokeColor=none;fillColor=none;" vertex="1" parent="1">
          <mxGeometry x="1058" y="499" width="50" height="30" as="geometry" />
        </mxCell>
        <mxCell id="LDVH6EXJs3wNMszBXcdS-69" value="Mail&lt;div style=&quot;font-size: 10px;&quot;&gt;API&lt;/div&gt;" style="text;html=1;align=center;verticalAlign=middle;resizable=0;points=[];autosize=1;strokeColor=none;fillColor=none;fontSize=10;" vertex="1" parent="1">
          <mxGeometry x="1163" y="410" width="40" height="40" as="geometry" />
        </mxCell>
        <mxCell id="LDVH6EXJs3wNMszBXcdS-70" value="External&lt;br style=&quot;font-size: 10px;&quot;&gt;Tools&lt;br style=&quot;font-size: 10px;&quot;&gt;&lt;div style=&quot;font-size: 10px;&quot;&gt;API&lt;/div&gt;" style="text;html=1;align=center;verticalAlign=middle;resizable=0;points=[];autosize=1;strokeColor=none;fillColor=none;fontSize=10;" vertex="1" parent="1">
          <mxGeometry x="1153" y="275" width="60" height="50" as="geometry" />
        </mxCell>
        <mxCell id="LDVH6EXJs3wNMszBXcdS-71" value="&lt;font style=&quot;font-size: 10px;&quot;&gt;Recommendation&lt;br&gt;Manager&lt;/font&gt;" style="text;html=1;align=center;verticalAlign=middle;resizable=0;points=[];autosize=1;strokeColor=none;fillColor=none;" vertex="1" parent="1">
          <mxGeometry x="1053" y="231" width="100" height="40" as="geometry" />
        </mxCell>
        <mxCell id="LDVH6EXJs3wNMszBXcdS-72" value="&lt;font style=&quot;font-size: 10px;&quot;&gt;Registration&lt;br&gt;Manager&lt;/font&gt;" style="text;html=1;align=center;verticalAlign=middle;resizable=0;points=[];autosize=1;strokeColor=none;fillColor=none;" vertex="1" parent="1">
          <mxGeometry x="1053" y="360" width="80" height="40" as="geometry" />
        </mxCell>
        <mxCell id="NZPOO2AaPndxCj0YNW-u-13" value="cmp Internship Manager" style="shape=umlFrame;whiteSpace=wrap;html=1;pointerEvents=0;width=193;height=40;" vertex="1" parent="1">
          <mxGeometry x="306" y="2850" width="509" height="490" as="geometry" />
        </mxCell>
        <mxCell id="NZPOO2AaPndxCj0YNW-u-14" value="cmp Recommendation Manager" style="shape=umlFrame;whiteSpace=wrap;html=1;pointerEvents=0;width=193;height=40;" vertex="1" parent="1">
          <mxGeometry x="305.5" y="2410" width="509" height="330" as="geometry" />
        </mxCell>
        <mxCell id="NZPOO2AaPndxCj0YNW-u-15" value="cmp Profile Manager" style="shape=umlFrame;whiteSpace=wrap;html=1;pointerEvents=0;width=193;height=40;" vertex="1" parent="1">
          <mxGeometry x="1520.5" y="2410" width="459" height="250" as="geometry" />
        </mxCell>
        <mxCell id="NZPOO2AaPndxCj0YNW-u-16" value="cmp Application Manager" style="shape=umlFrame;whiteSpace=wrap;html=1;pointerEvents=0;width=193;height=40;" vertex="1" parent="1">
          <mxGeometry x="1520.5" y="3093" width="460" height="387" as="geometry" />
        </mxCell>
        <mxCell id="NZPOO2AaPndxCj0YNW-u-17" value="cmp Complaints Manager" style="shape=umlFrame;whiteSpace=wrap;html=1;pointerEvents=0;width=193;height=40;" vertex="1" parent="1">
          <mxGeometry x="1520.5" y="2730" width="460.5" height="280" as="geometry" />
        </mxCell>
        <mxCell id="NZPOO2AaPndxCj0YNW-u-22" style="edgeStyle=orthogonalEdgeStyle;rounded=0;orthogonalLoop=1;jettySize=auto;html=1;exitX=1;exitY=0.5;exitDx=0;exitDy=0;entryX=0;entryY=0.5;entryDx=0;entryDy=0;endArrow=none;endFill=0;" edge="1" parent="1" source="NZPOO2AaPndxCj0YNW-u-19" target="NZPOO2AaPndxCj0YNW-u-20">
          <mxGeometry relative="1" as="geometry" />
        </mxCell>
        <mxCell id="NZPOO2AaPndxCj0YNW-u-19" value="" style="ellipse;whiteSpace=wrap;html=1;aspect=fixed;" vertex="1" parent="1">
          <mxGeometry x="140" y="2590" width="20" height="20" as="geometry" />
        </mxCell>
        <mxCell id="NZPOO2AaPndxCj0YNW-u-20" value="" style="rounded=0;whiteSpace=wrap;html=1;" vertex="1" parent="1">
          <mxGeometry x="296" y="2590" width="20" height="20" as="geometry" />
        </mxCell>
        <mxCell id="NZPOO2AaPndxCj0YNW-u-21" value="Recommendation&lt;div&gt;Interface&lt;/div&gt;" style="text;html=1;align=center;verticalAlign=middle;resizable=0;points=[];autosize=1;strokeColor=none;fillColor=none;fontSize=10;" vertex="1" parent="1">
          <mxGeometry x="100" y="2603" width="100" height="40" as="geometry" />
        </mxCell>
        <mxCell id="NZPOO2AaPndxCj0YNW-u-29" style="edgeStyle=orthogonalEdgeStyle;rounded=0;orthogonalLoop=1;jettySize=auto;html=1;exitX=1;exitY=0.5;exitDx=0;exitDy=0;entryX=0;entryY=0.5;entryDx=0;entryDy=0;dashed=1;endArrow=open;endFill=0;strokeColor=#666600;" edge="1" parent="1" source="NZPOO2AaPndxCj0YNW-u-23" target="NZPOO2AaPndxCj0YNW-u-26">
          <mxGeometry relative="1" as="geometry" />
        </mxCell>
        <mxCell id="NZPOO2AaPndxCj0YNW-u-48" style="edgeStyle=orthogonalEdgeStyle;rounded=0;orthogonalLoop=1;jettySize=auto;html=1;exitX=1;exitY=0.75;exitDx=0;exitDy=0;entryX=0;entryY=0.5;entryDx=0;entryDy=0;dashed=1;endArrow=open;endFill=0;" edge="1" parent="1" source="NZPOO2AaPndxCj0YNW-u-23" target="NZPOO2AaPndxCj0YNW-u-27">
          <mxGeometry relative="1" as="geometry" />
        </mxCell>
        <mxCell id="NZPOO2AaPndxCj0YNW-u-51" style="edgeStyle=orthogonalEdgeStyle;rounded=0;orthogonalLoop=1;jettySize=auto;html=1;exitX=0;exitY=0;exitDx=0;exitDy=15;exitPerimeter=0;entryX=1;entryY=0.5;entryDx=0;entryDy=0;endArrow=open;endFill=0;dashed=1;strokeColor=#CC0000;" edge="1" parent="1" source="NZPOO2AaPndxCj0YNW-u-23" target="NZPOO2AaPndxCj0YNW-u-50">
          <mxGeometry relative="1" as="geometry" />
        </mxCell>
        <mxCell id="NZPOO2AaPndxCj0YNW-u-23" value="Automated&lt;div&gt;Trigger&lt;/div&gt;" style="shape=module;align=left;spacingLeft=20;align=center;verticalAlign=top;whiteSpace=wrap;html=1;" vertex="1" parent="1">
          <mxGeometry x="470" y="2515" width="100" height="50" as="geometry" />
        </mxCell>
        <mxCell id="NZPOO2AaPndxCj0YNW-u-40" style="edgeStyle=orthogonalEdgeStyle;rounded=0;orthogonalLoop=1;jettySize=auto;html=1;exitX=1;exitY=0.5;exitDx=0;exitDy=0;entryX=0;entryY=0.5;entryDx=0;entryDy=0;dashed=1;endArrow=open;endFill=0;" edge="1" parent="1" source="NZPOO2AaPndxCj0YNW-u-24" target="NZPOO2AaPndxCj0YNW-u-27">
          <mxGeometry relative="1" as="geometry" />
        </mxCell>
        <mxCell id="NZPOO2AaPndxCj0YNW-u-42" style="edgeStyle=orthogonalEdgeStyle;rounded=0;orthogonalLoop=1;jettySize=auto;html=1;exitX=0;exitY=0;exitDx=0;exitDy=35;exitPerimeter=0;entryX=1;entryY=0.5;entryDx=0;entryDy=0;dashed=1;endArrow=open;endFill=0;strokeColor=#00CCCC;" edge="1" parent="1" source="NZPOO2AaPndxCj0YNW-u-24" target="NZPOO2AaPndxCj0YNW-u-28">
          <mxGeometry relative="1" as="geometry" />
        </mxCell>
        <mxCell id="GgBvC1RKiGsKNYA5bMCQ-94" style="edgeStyle=orthogonalEdgeStyle;rounded=0;orthogonalLoop=1;jettySize=auto;html=1;exitX=1;exitY=0.75;exitDx=0;exitDy=0;entryX=0;entryY=0.5;entryDx=0;entryDy=0;endArrow=open;endFill=0;dashed=1;strokeColor=#CC6600;" edge="1" parent="1" source="NZPOO2AaPndxCj0YNW-u-24" target="GgBvC1RKiGsKNYA5bMCQ-89">
          <mxGeometry relative="1" as="geometry">
            <Array as="points">
              <mxPoint x="660" y="2622" />
              <mxPoint x="660" y="2680" />
            </Array>
          </mxGeometry>
        </mxCell>
        <mxCell id="NZPOO2AaPndxCj0YNW-u-24" value="View&lt;br&gt;Matches" style="shape=module;align=left;spacingLeft=20;align=center;verticalAlign=top;whiteSpace=wrap;html=1;" vertex="1" parent="1">
          <mxGeometry x="470" y="2585" width="100" height="50" as="geometry" />
        </mxCell>
        <mxCell id="NZPOO2AaPndxCj0YNW-u-25" value="Dashboard&lt;br&gt;Manager" style="text;html=1;align=center;verticalAlign=middle;resizable=0;points=[];autosize=1;strokeColor=none;fillColor=none;fontSize=10;" vertex="1" parent="1">
          <mxGeometry x="235.5" y="2563" width="70" height="40" as="geometry" />
        </mxCell>
        <mxCell id="NZPOO2AaPndxCj0YNW-u-26" value="" style="rounded=0;whiteSpace=wrap;html=1;" vertex="1" parent="1">
          <mxGeometry x="805" y="2530" width="20" height="20" as="geometry" />
        </mxCell>
        <mxCell id="NZPOO2AaPndxCj0YNW-u-27" value="" style="rounded=0;whiteSpace=wrap;html=1;" vertex="1" parent="1">
          <mxGeometry x="805" y="2600" width="20" height="20" as="geometry" />
        </mxCell>
        <mxCell id="NZPOO2AaPndxCj0YNW-u-28" value="" style="rounded=0;whiteSpace=wrap;html=1;" vertex="1" parent="1">
          <mxGeometry x="296" y="2680" width="20" height="20" as="geometry" />
        </mxCell>
        <mxCell id="NZPOO2AaPndxCj0YNW-u-30" value="External &lt;br&gt;Tools" style="text;html=1;align=center;verticalAlign=middle;resizable=0;points=[];autosize=1;strokeColor=none;fillColor=none;fontSize=10;" vertex="1" parent="1">
          <mxGeometry x="805" y="2496" width="60" height="40" as="geometry" />
        </mxCell>
        <mxCell id="NZPOO2AaPndxCj0YNW-u-32" value="" style="shape=requiredInterface;html=1;verticalLabelPosition=bottom;sketch=0;direction=west;strokeColor=#666600;" vertex="1" parent="1">
          <mxGeometry x="950" y="2530" width="10" height="20" as="geometry" />
        </mxCell>
        <mxCell id="NZPOO2AaPndxCj0YNW-u-33" style="edgeStyle=orthogonalEdgeStyle;rounded=0;orthogonalLoop=1;jettySize=auto;html=1;exitX=1;exitY=0.5;exitDx=0;exitDy=0;entryX=1;entryY=0.5;entryDx=0;entryDy=0;entryPerimeter=0;endArrow=none;endFill=0;strokeColor=#666600;" edge="1" parent="1" source="NZPOO2AaPndxCj0YNW-u-26" target="NZPOO2AaPndxCj0YNW-u-32">
          <mxGeometry relative="1" as="geometry" />
        </mxCell>
        <mxCell id="NZPOO2AaPndxCj0YNW-u-35" value="External &lt;br&gt;Tools API" style="text;html=1;align=center;verticalAlign=middle;resizable=0;points=[];autosize=1;strokeColor=none;fillColor=none;fontSize=10;" vertex="1" parent="1">
          <mxGeometry x="925" y="2490" width="70" height="40" as="geometry" />
        </mxCell>
        <mxCell id="NZPOO2AaPndxCj0YNW-u-36" value="" style="shape=requiredInterface;html=1;verticalLabelPosition=bottom;sketch=0;direction=west;" vertex="1" parent="1">
          <mxGeometry x="950" y="2600" width="10" height="20" as="geometry" />
        </mxCell>
        <mxCell id="NZPOO2AaPndxCj0YNW-u-37" value="Model &lt;br&gt;Interface" style="text;html=1;align=center;verticalAlign=middle;resizable=0;points=[];autosize=1;strokeColor=none;fillColor=none;fontSize=10;" vertex="1" parent="1">
          <mxGeometry x="930" y="2560" width="60" height="40" as="geometry" />
        </mxCell>
        <mxCell id="NZPOO2AaPndxCj0YNW-u-38" style="edgeStyle=orthogonalEdgeStyle;rounded=0;orthogonalLoop=1;jettySize=auto;html=1;exitX=1;exitY=0.5;exitDx=0;exitDy=0;entryX=1;entryY=0.5;entryDx=0;entryDy=0;entryPerimeter=0;endArrow=none;endFill=0;" edge="1" parent="1" source="NZPOO2AaPndxCj0YNW-u-27" target="NZPOO2AaPndxCj0YNW-u-36">
          <mxGeometry relative="1" as="geometry" />
        </mxCell>
        <mxCell id="NZPOO2AaPndxCj0YNW-u-39" value="Model" style="text;html=1;align=center;verticalAlign=middle;resizable=0;points=[];autosize=1;strokeColor=none;fillColor=none;fontSize=10;" vertex="1" parent="1">
          <mxGeometry x="815" y="2570" width="50" height="30" as="geometry" />
        </mxCell>
        <mxCell id="NZPOO2AaPndxCj0YNW-u-41" style="edgeStyle=orthogonalEdgeStyle;rounded=0;orthogonalLoop=1;jettySize=auto;html=1;exitX=1;exitY=0.5;exitDx=0;exitDy=0;entryX=0;entryY=0;entryDx=0;entryDy=15;entryPerimeter=0;dashed=1;endArrow=open;endFill=0;" edge="1" parent="1" source="NZPOO2AaPndxCj0YNW-u-20" target="NZPOO2AaPndxCj0YNW-u-24">
          <mxGeometry relative="1" as="geometry" />
        </mxCell>
        <mxCell id="NZPOO2AaPndxCj0YNW-u-43" value="Profile&lt;br&gt;Manager" style="text;html=1;align=center;verticalAlign=middle;resizable=0;points=[];autosize=1;strokeColor=none;fillColor=none;fontSize=10;" vertex="1" parent="1">
          <mxGeometry x="243" y="2653" width="60" height="40" as="geometry" />
        </mxCell>
        <mxCell id="NZPOO2AaPndxCj0YNW-u-44" value="" style="shape=requiredInterface;html=1;verticalLabelPosition=bottom;sketch=0;direction=east;strokeColor=#00CCCC;" vertex="1" parent="1">
          <mxGeometry x="150" y="2680" width="10" height="20" as="geometry" />
        </mxCell>
        <mxCell id="NZPOO2AaPndxCj0YNW-u-45" style="edgeStyle=orthogonalEdgeStyle;rounded=0;orthogonalLoop=1;jettySize=auto;html=1;exitX=0;exitY=0.5;exitDx=0;exitDy=0;entryX=1;entryY=0.5;entryDx=0;entryDy=0;entryPerimeter=0;endArrow=none;endFill=0;strokeColor=#00CCCC;" edge="1" parent="1" source="NZPOO2AaPndxCj0YNW-u-28" target="NZPOO2AaPndxCj0YNW-u-44">
          <mxGeometry relative="1" as="geometry" />
        </mxCell>
        <mxCell id="NZPOO2AaPndxCj0YNW-u-46" value="View Profile&lt;br&gt;Interface" style="text;html=1;align=center;verticalAlign=middle;resizable=0;points=[];autosize=1;strokeColor=none;fillColor=none;fontSize=10;" vertex="1" parent="1">
          <mxGeometry x="110" y="2700" width="80" height="40" as="geometry" />
        </mxCell>
        <mxCell id="NZPOO2AaPndxCj0YNW-u-50" value="" style="rounded=0;whiteSpace=wrap;html=1;" vertex="1" parent="1">
          <mxGeometry x="296" y="2520" width="20" height="20" as="geometry" />
        </mxCell>
        <mxCell id="NZPOO2AaPndxCj0YNW-u-52" value="Notification&lt;br&gt;Manager" style="text;html=1;align=center;verticalAlign=middle;resizable=0;points=[];autosize=1;strokeColor=none;fillColor=none;fontSize=10;" vertex="1" parent="1">
          <mxGeometry x="238" y="2491" width="70" height="40" as="geometry" />
        </mxCell>
        <mxCell id="NZPOO2AaPndxCj0YNW-u-53" value="" style="shape=requiredInterface;html=1;verticalLabelPosition=bottom;sketch=0;direction=east;strokeColor=#CC0000;" vertex="1" parent="1">
          <mxGeometry x="150" y="2520" width="10" height="20" as="geometry" />
        </mxCell>
        <mxCell id="NZPOO2AaPndxCj0YNW-u-55" style="edgeStyle=orthogonalEdgeStyle;rounded=0;orthogonalLoop=1;jettySize=auto;html=1;exitX=0;exitY=0.5;exitDx=0;exitDy=0;entryX=1;entryY=0.5;entryDx=0;entryDy=0;entryPerimeter=0;endArrow=none;endFill=0;strokeColor=#CC0000;" edge="1" parent="1" source="NZPOO2AaPndxCj0YNW-u-50" target="NZPOO2AaPndxCj0YNW-u-53">
          <mxGeometry relative="1" as="geometry" />
        </mxCell>
        <mxCell id="NZPOO2AaPndxCj0YNW-u-56" value="&lt;font style=&quot;font-size: 10px;&quot;&gt;RecomNotif&lt;/font&gt;&lt;div&gt;&lt;span style=&quot;background-color: initial;&quot;&gt;Interface&lt;/span&gt;&lt;/div&gt;" style="text;html=1;align=center;verticalAlign=middle;resizable=0;points=[];autosize=1;strokeColor=none;fillColor=none;fontSize=10;" vertex="1" parent="1">
          <mxGeometry x="110" y="2486" width="80" height="40" as="geometry" />
        </mxCell>
        <mxCell id="GgBvC1RKiGsKNYA5bMCQ-36" style="edgeStyle=orthogonalEdgeStyle;rounded=0;orthogonalLoop=1;jettySize=auto;html=1;exitX=1;exitY=0.75;exitDx=0;exitDy=0;entryX=0;entryY=0.5;entryDx=0;entryDy=0;endArrow=open;endFill=0;dashed=1;" edge="1" parent="1" source="NZPOO2AaPndxCj0YNW-u-57" target="GgBvC1RKiGsKNYA5bMCQ-31">
          <mxGeometry relative="1" as="geometry">
            <Array as="points">
              <mxPoint x="1863.5" y="2502" />
              <mxPoint x="1863.5" y="2590" />
            </Array>
          </mxGeometry>
        </mxCell>
        <mxCell id="NZPOO2AaPndxCj0YNW-u-57" value="View&lt;br&gt;Profile" style="shape=module;align=left;spacingLeft=20;align=center;verticalAlign=top;whiteSpace=wrap;html=1;" vertex="1" parent="1">
          <mxGeometry x="1684.5" y="2465" width="100" height="50" as="geometry" />
        </mxCell>
        <mxCell id="NZPOO2AaPndxCj0YNW-u-58" style="edgeStyle=orthogonalEdgeStyle;rounded=0;orthogonalLoop=1;jettySize=auto;html=1;exitX=1;exitY=0.25;exitDx=0;exitDy=0;entryX=1;entryY=0.5;entryDx=0;entryDy=0;entryPerimeter=0;endArrow=none;endFill=0;" edge="1" parent="1" source="NZPOO2AaPndxCj0YNW-u-154" target="NZPOO2AaPndxCj0YNW-u-120">
          <mxGeometry relative="1" as="geometry" />
        </mxCell>
        <mxCell id="NZPOO2AaPndxCj0YNW-u-59" value="&lt;div&gt;&lt;span style=&quot;background-color: initial;&quot;&gt;WebApp&lt;/span&gt;&lt;/div&gt;" style="shape=module;align=left;spacingLeft=20;align=center;verticalAlign=top;whiteSpace=wrap;html=1;" vertex="1" parent="1">
          <mxGeometry x="140" y="1300" width="100" height="50" as="geometry" />
        </mxCell>
        <mxCell id="NZPOO2AaPndxCj0YNW-u-60" value="cmp S&amp;amp;C Server" style="shape=umlFrame;whiteSpace=wrap;html=1;pointerEvents=0;width=160;height=30;" vertex="1" parent="1">
          <mxGeometry x="580" y="940" width="1040" height="920" as="geometry" />
        </mxCell>
        <mxCell id="NZPOO2AaPndxCj0YNW-u-61" style="edgeStyle=orthogonalEdgeStyle;rounded=0;orthogonalLoop=1;jettySize=auto;html=1;exitX=0;exitY=0.5;exitDx=0;exitDy=0;exitPerimeter=0;entryX=0;entryY=0.5;entryDx=0;entryDy=0;endArrow=none;endFill=0;" edge="1" parent="1" source="NZPOO2AaPndxCj0YNW-u-62" target="NZPOO2AaPndxCj0YNW-u-66">
          <mxGeometry relative="1" as="geometry" />
        </mxCell>
        <mxCell id="NZPOO2AaPndxCj0YNW-u-62" value="" style="shape=providedRequiredInterface;html=1;verticalLabelPosition=bottom;sketch=0;rotation=-180;" vertex="1" parent="1">
          <mxGeometry x="409" y="1302" width="20" height="20" as="geometry" />
        </mxCell>
        <mxCell id="NZPOO2AaPndxCj0YNW-u-63" style="edgeStyle=orthogonalEdgeStyle;rounded=0;orthogonalLoop=1;jettySize=auto;html=1;exitX=1;exitY=0.25;exitDx=0;exitDy=0;entryX=1;entryY=0.5;entryDx=0;entryDy=0;entryPerimeter=0;endArrow=none;endFill=0;" edge="1" parent="1" source="NZPOO2AaPndxCj0YNW-u-59" target="NZPOO2AaPndxCj0YNW-u-62">
          <mxGeometry relative="1" as="geometry" />
        </mxCell>
        <mxCell id="NZPOO2AaPndxCj0YNW-u-64" style="edgeStyle=orthogonalEdgeStyle;rounded=0;orthogonalLoop=1;jettySize=auto;html=1;exitX=1;exitY=0.5;exitDx=0;exitDy=0;exitPerimeter=0;entryX=0;entryY=0.5;entryDx=0;entryDy=0;endArrow=none;endFill=0;" edge="1" parent="1" source="NZPOO2AaPndxCj0YNW-u-65" target="NZPOO2AaPndxCj0YNW-u-67">
          <mxGeometry relative="1" as="geometry" />
        </mxCell>
        <mxCell id="NZPOO2AaPndxCj0YNW-u-65" value="" style="shape=providedRequiredInterface;html=1;verticalLabelPosition=bottom;sketch=0;" vertex="1" parent="1">
          <mxGeometry x="314" y="1755" width="20" height="20" as="geometry" />
        </mxCell>
        <mxCell id="NZPOO2AaPndxCj0YNW-u-66" value="" style="rounded=0;whiteSpace=wrap;html=1;" vertex="1" parent="1">
          <mxGeometry x="570" y="1302" width="20" height="20" as="geometry" />
        </mxCell>
        <mxCell id="NZPOO2AaPndxCj0YNW-u-67" value="" style="rounded=0;whiteSpace=wrap;html=1;" vertex="1" parent="1">
          <mxGeometry x="570" y="1755" width="20" height="20" as="geometry" />
        </mxCell>
        <mxCell id="NZPOO2AaPndxCj0YNW-u-68" style="edgeStyle=orthogonalEdgeStyle;rounded=0;orthogonalLoop=1;jettySize=auto;html=1;exitX=1;exitY=0.75;exitDx=0;exitDy=0;entryX=0.348;entryY=0.155;entryDx=0;entryDy=0;entryPerimeter=0;endArrow=none;endFill=0;" edge="1" parent="1" source="NZPOO2AaPndxCj0YNW-u-59" target="NZPOO2AaPndxCj0YNW-u-65">
          <mxGeometry relative="1" as="geometry" />
        </mxCell>
        <mxCell id="NZPOO2AaPndxCj0YNW-u-69" value="Notification&lt;br style=&quot;font-size: 10px;&quot;&gt;Interface" style="text;html=1;align=center;verticalAlign=middle;resizable=0;points=[];autosize=1;strokeColor=none;fillColor=none;fontSize=10;" vertex="1" parent="1">
          <mxGeometry x="289" y="1765" width="70" height="40" as="geometry" />
        </mxCell>
        <mxCell id="NZPOO2AaPndxCj0YNW-u-70" value="Dashboard&lt;br&gt;Interface" style="text;html=1;align=center;verticalAlign=middle;resizable=0;points=[];autosize=1;strokeColor=none;fillColor=none;fontSize=10;" vertex="1" parent="1">
          <mxGeometry x="384" y="1270" width="70" height="40" as="geometry" />
        </mxCell>
        <mxCell id="NZPOO2AaPndxCj0YNW-u-71" value="&lt;div style=&quot;font-size: 10px;&quot;&gt;&lt;span style=&quot;background-color: initial; font-size: 10px;&quot;&gt;Dashboard&lt;br style=&quot;font-size: 10px;&quot;&gt;Manager&lt;/span&gt;&lt;/div&gt;" style="shape=module;align=left;spacingLeft=20;align=center;verticalAlign=top;whiteSpace=wrap;html=1;fontSize=10;" vertex="1" parent="1">
          <mxGeometry x="731" y="1297" width="100" height="50" as="geometry" />
        </mxCell>
        <mxCell id="NZPOO2AaPndxCj0YNW-u-72" style="edgeStyle=orthogonalEdgeStyle;rounded=0;orthogonalLoop=1;jettySize=auto;html=1;exitX=1;exitY=0.5;exitDx=0;exitDy=0;entryX=0;entryY=0;entryDx=0;entryDy=15;entryPerimeter=0;endArrow=none;endFill=0;" edge="1" parent="1" source="NZPOO2AaPndxCj0YNW-u-66" target="NZPOO2AaPndxCj0YNW-u-71">
          <mxGeometry relative="1" as="geometry" />
        </mxCell>
        <mxCell id="NZPOO2AaPndxCj0YNW-u-73" style="edgeStyle=orthogonalEdgeStyle;rounded=0;orthogonalLoop=1;jettySize=auto;html=1;exitX=1;exitY=0.25;exitDx=0;exitDy=0;entryX=0;entryY=0.5;entryDx=0;entryDy=0;endArrow=none;endFill=0;fillColor=#dae8fc;strokeColor=#0000FF;strokeWidth=1;" edge="1" parent="1" source="NZPOO2AaPndxCj0YNW-u-74" target="NZPOO2AaPndxCj0YNW-u-84">
          <mxGeometry relative="1" as="geometry" />
        </mxCell>
        <mxCell id="NZPOO2AaPndxCj0YNW-u-74" value="&lt;div style=&quot;font-size: 10px;&quot;&gt;&lt;span style=&quot;background-color: initial; font-size: 10px;&quot;&gt;Registration&lt;br style=&quot;font-size: 10px;&quot;&gt;Manager&lt;/span&gt;&lt;/div&gt;" style="shape=module;align=left;spacingLeft=20;align=center;verticalAlign=top;whiteSpace=wrap;html=1;fontSize=10;" vertex="1" parent="1">
          <mxGeometry x="968" y="1096" width="100" height="50" as="geometry" />
        </mxCell>
        <mxCell id="NZPOO2AaPndxCj0YNW-u-75" value="&lt;div style=&quot;font-size: 10px;&quot;&gt;&lt;span style=&quot;background-color: initial; font-size: 10px;&quot;&gt;Login&lt;br style=&quot;font-size: 10px;&quot;&gt;Manager&lt;/span&gt;&lt;/div&gt;" style="shape=module;align=left;spacingLeft=20;align=center;verticalAlign=top;whiteSpace=wrap;html=1;fontSize=10;" vertex="1" parent="1">
          <mxGeometry x="968" y="1183" width="100" height="50" as="geometry" />
        </mxCell>
        <mxCell id="NZPOO2AaPndxCj0YNW-u-76" value="&lt;div style=&quot;font-size: 10px;&quot;&gt;Internship&lt;br&gt;Manager&lt;/div&gt;" style="shape=module;align=left;spacingLeft=20;align=center;verticalAlign=top;whiteSpace=wrap;html=1;fontSize=10;" vertex="1" parent="1">
          <mxGeometry x="968" y="1287" width="100" height="50" as="geometry" />
        </mxCell>
        <mxCell id="NZPOO2AaPndxCj0YNW-u-77" value="&lt;div style=&quot;font-size: 10px;&quot;&gt;&lt;span style=&quot;background-color: initial;&quot;&gt;Profile&lt;br&gt;Manager&lt;/span&gt;&lt;/div&gt;" style="shape=module;align=left;spacingLeft=20;align=center;verticalAlign=top;whiteSpace=wrap;html=1;" vertex="1" parent="1">
          <mxGeometry x="968" y="1430" width="100" height="50" as="geometry" />
        </mxCell>
        <mxCell id="NZPOO2AaPndxCj0YNW-u-78" style="edgeStyle=orthogonalEdgeStyle;rounded=0;orthogonalLoop=1;jettySize=auto;html=1;exitX=1;exitY=0.25;exitDx=0;exitDy=0;entryX=0;entryY=0.5;entryDx=0;entryDy=0;endArrow=none;endFill=0;strokeColor=#666600;" edge="1" parent="1" source="NZPOO2AaPndxCj0YNW-u-79" target="NZPOO2AaPndxCj0YNW-u-83">
          <mxGeometry relative="1" as="geometry" />
        </mxCell>
        <mxCell id="NZPOO2AaPndxCj0YNW-u-79" value="&lt;span style=&quot;background-color: initial; font-size: 10px;&quot;&gt;Recommendation&lt;/span&gt;&lt;br&gt;&lt;div style=&quot;font-size: 10px;&quot;&gt;&lt;span style=&quot;background-color: initial;&quot;&gt;Manager&lt;/span&gt;&lt;/div&gt;" style="shape=module;align=center;spacingLeft=20;align=center;verticalAlign=top;whiteSpace=wrap;html=1;" vertex="1" parent="1">
          <mxGeometry x="968" y="1009" width="100" height="50" as="geometry" />
        </mxCell>
        <mxCell id="NZPOO2AaPndxCj0YNW-u-80" value="&lt;span style=&quot;background-color: initial; font-size: 10px;&quot;&gt;Notification&lt;/span&gt;&lt;br&gt;&lt;div style=&quot;font-size: 10px;&quot;&gt;&lt;span style=&quot;background-color: initial;&quot;&gt;Manager&lt;/span&gt;&lt;/div&gt;" style="shape=module;align=center;spacingLeft=20;align=center;verticalAlign=top;whiteSpace=wrap;html=1;" vertex="1" parent="1">
          <mxGeometry x="740" y="1750" width="100" height="50" as="geometry" />
        </mxCell>
        <mxCell id="NZPOO2AaPndxCj0YNW-u-81" style="edgeStyle=orthogonalEdgeStyle;rounded=0;orthogonalLoop=1;jettySize=auto;html=1;exitX=1;exitY=0.5;exitDx=0;exitDy=0;entryX=0;entryY=0;entryDx=0;entryDy=15;entryPerimeter=0;endArrow=none;endFill=0;" edge="1" parent="1" source="NZPOO2AaPndxCj0YNW-u-67" target="NZPOO2AaPndxCj0YNW-u-80">
          <mxGeometry relative="1" as="geometry" />
        </mxCell>
        <mxCell id="NZPOO2AaPndxCj0YNW-u-82" value="" style="rounded=0;whiteSpace=wrap;html=1;" vertex="1" parent="1">
          <mxGeometry x="1610" y="1490" width="20" height="20" as="geometry" />
        </mxCell>
        <mxCell id="NZPOO2AaPndxCj0YNW-u-83" value="" style="rounded=0;whiteSpace=wrap;html=1;" vertex="1" parent="1">
          <mxGeometry x="1610" y="1012" width="20" height="20" as="geometry" />
        </mxCell>
        <mxCell id="NZPOO2AaPndxCj0YNW-u-84" value="" style="rounded=0;whiteSpace=wrap;html=1;" vertex="1" parent="1">
          <mxGeometry x="1610" y="1098" width="20" height="20" as="geometry" />
        </mxCell>
        <mxCell id="NZPOO2AaPndxCj0YNW-u-85" value="" style="shape=providedRequiredInterface;html=1;verticalLabelPosition=bottom;sketch=0;rotation=-180;" vertex="1" parent="1">
          <mxGeometry x="1770" y="1490" width="20" height="20" as="geometry" />
        </mxCell>
        <mxCell id="NZPOO2AaPndxCj0YNW-u-86" value="" style="shape=providedRequiredInterface;html=1;verticalLabelPosition=bottom;sketch=0;rotation=-180;strokeColor=#0000FF;" vertex="1" parent="1">
          <mxGeometry x="1770" y="1098" width="20" height="20" as="geometry" />
        </mxCell>
        <mxCell id="NZPOO2AaPndxCj0YNW-u-87" value="" style="shape=providedRequiredInterface;html=1;verticalLabelPosition=bottom;sketch=0;rotation=-180;strokeColor=#666600;" vertex="1" parent="1">
          <mxGeometry x="1768" y="1012" width="20" height="20" as="geometry" />
        </mxCell>
        <mxCell id="NZPOO2AaPndxCj0YNW-u-88" style="edgeStyle=orthogonalEdgeStyle;rounded=0;orthogonalLoop=1;jettySize=auto;html=1;exitX=1;exitY=0.5;exitDx=0;exitDy=0;entryX=1;entryY=0.5;entryDx=0;entryDy=0;entryPerimeter=0;endArrow=none;endFill=0;strokeColor=#666600;" edge="1" parent="1" source="NZPOO2AaPndxCj0YNW-u-83" target="NZPOO2AaPndxCj0YNW-u-87">
          <mxGeometry relative="1" as="geometry" />
        </mxCell>
        <mxCell id="NZPOO2AaPndxCj0YNW-u-89" style="edgeStyle=orthogonalEdgeStyle;rounded=0;orthogonalLoop=1;jettySize=auto;html=1;exitX=1;exitY=0.5;exitDx=0;exitDy=0;entryX=1;entryY=0.5;entryDx=0;entryDy=0;entryPerimeter=0;endArrow=none;endFill=0;strokeColor=#0000FF;" edge="1" parent="1" source="NZPOO2AaPndxCj0YNW-u-84" target="NZPOO2AaPndxCj0YNW-u-86">
          <mxGeometry relative="1" as="geometry" />
        </mxCell>
        <mxCell id="NZPOO2AaPndxCj0YNW-u-90" style="edgeStyle=orthogonalEdgeStyle;rounded=0;orthogonalLoop=1;jettySize=auto;html=1;exitX=1;exitY=0.5;exitDx=0;exitDy=0;entryX=1;entryY=0.5;entryDx=0;entryDy=0;entryPerimeter=0;endArrow=none;endFill=0;" edge="1" parent="1" source="NZPOO2AaPndxCj0YNW-u-82" target="NZPOO2AaPndxCj0YNW-u-85">
          <mxGeometry relative="1" as="geometry" />
        </mxCell>
        <mxCell id="NZPOO2AaPndxCj0YNW-u-91" value="&lt;div&gt;&lt;span style=&quot;background-color: initial;&quot;&gt;External&lt;br&gt;Tools&lt;/span&gt;&lt;/div&gt;" style="shape=module;align=left;spacingLeft=20;align=center;verticalAlign=top;whiteSpace=wrap;html=1;fontSize=12;" vertex="1" parent="1">
          <mxGeometry x="1921" y="1007" width="100" height="50" as="geometry" />
        </mxCell>
        <mxCell id="NZPOO2AaPndxCj0YNW-u-92" value="&lt;div&gt;&lt;span style=&quot;background-color: initial;&quot;&gt;Mail Server&lt;/span&gt;&lt;/div&gt;" style="shape=module;align=left;spacingLeft=20;align=center;verticalAlign=top;whiteSpace=wrap;html=1;" vertex="1" parent="1">
          <mxGeometry x="1921" y="1093" width="100" height="50" as="geometry" />
        </mxCell>
        <mxCell id="NZPOO2AaPndxCj0YNW-u-93" value="&lt;div&gt;&lt;span style=&quot;background-color: initial;&quot;&gt;DBMS&lt;/span&gt;&lt;/div&gt;" style="shape=module;align=left;spacingLeft=20;align=center;verticalAlign=top;whiteSpace=wrap;html=1;" vertex="1" parent="1">
          <mxGeometry x="1921" y="1485" width="100" height="50" as="geometry" />
        </mxCell>
        <mxCell id="NZPOO2AaPndxCj0YNW-u-94" style="edgeStyle=orthogonalEdgeStyle;rounded=0;orthogonalLoop=1;jettySize=auto;html=1;exitX=0;exitY=0.5;exitDx=0;exitDy=0;exitPerimeter=0;entryX=0;entryY=0;entryDx=0;entryDy=15;entryPerimeter=0;endArrow=none;endFill=0;" edge="1" parent="1" source="NZPOO2AaPndxCj0YNW-u-85" target="NZPOO2AaPndxCj0YNW-u-93">
          <mxGeometry relative="1" as="geometry" />
        </mxCell>
        <mxCell id="NZPOO2AaPndxCj0YNW-u-95" style="edgeStyle=orthogonalEdgeStyle;rounded=0;orthogonalLoop=1;jettySize=auto;html=1;exitX=0;exitY=0.5;exitDx=0;exitDy=0;exitPerimeter=0;entryX=0;entryY=0;entryDx=0;entryDy=15;entryPerimeter=0;endArrow=none;endFill=0;strokeColor=#0000FF;" edge="1" parent="1" source="NZPOO2AaPndxCj0YNW-u-86" target="NZPOO2AaPndxCj0YNW-u-92">
          <mxGeometry relative="1" as="geometry" />
        </mxCell>
        <mxCell id="NZPOO2AaPndxCj0YNW-u-96" style="edgeStyle=orthogonalEdgeStyle;rounded=0;orthogonalLoop=1;jettySize=auto;html=1;exitX=0;exitY=0.5;exitDx=0;exitDy=0;exitPerimeter=0;entryX=0;entryY=0;entryDx=0;entryDy=15;entryPerimeter=0;endArrow=none;endFill=0;strokeColor=#666600;" edge="1" parent="1" source="NZPOO2AaPndxCj0YNW-u-87" target="NZPOO2AaPndxCj0YNW-u-91">
          <mxGeometry relative="1" as="geometry" />
        </mxCell>
        <mxCell id="NZPOO2AaPndxCj0YNW-u-97" value="DBMS&lt;div style=&quot;font-size: 10px;&quot;&gt;API&lt;/div&gt;" style="text;html=1;align=center;verticalAlign=middle;resizable=0;points=[];autosize=1;strokeColor=none;fillColor=none;fontSize=10;" vertex="1" parent="1">
          <mxGeometry x="1755" y="1510" width="50" height="40" as="geometry" />
        </mxCell>
        <mxCell id="NZPOO2AaPndxCj0YNW-u-98" value="Mail&lt;div style=&quot;font-size: 10px;&quot;&gt;API&lt;/div&gt;" style="text;html=1;align=center;verticalAlign=middle;resizable=0;points=[];autosize=1;strokeColor=none;fillColor=none;fontSize=10;" vertex="1" parent="1">
          <mxGeometry x="1760" y="1118" width="40" height="40" as="geometry" />
        </mxCell>
        <mxCell id="NZPOO2AaPndxCj0YNW-u-99" value="External&lt;br style=&quot;font-size: 10px;&quot;&gt;Tools&lt;br style=&quot;font-size: 10px;&quot;&gt;&lt;div style=&quot;font-size: 10px;&quot;&gt;API&lt;/div&gt;" style="text;html=1;align=center;verticalAlign=middle;resizable=0;points=[];autosize=1;strokeColor=none;fillColor=none;fontSize=10;" vertex="1" parent="1">
          <mxGeometry x="1748" y="1027" width="60" height="50" as="geometry" />
        </mxCell>
        <mxCell id="NZPOO2AaPndxCj0YNW-u-100" value="" style="shape=providedRequiredInterface;html=1;verticalLabelPosition=bottom;sketch=0;rotation=90;" vertex="1" parent="1">
          <mxGeometry x="813" y="1104" width="20" height="20" as="geometry" />
        </mxCell>
        <mxCell id="NZPOO2AaPndxCj0YNW-u-101" style="edgeStyle=orthogonalEdgeStyle;rounded=0;orthogonalLoop=1;jettySize=auto;html=1;exitX=0.916;exitY=0.011;exitDx=0;exitDy=0;entryX=1;entryY=0.5;entryDx=0;entryDy=0;entryPerimeter=0;exitPerimeter=0;endArrow=none;endFill=0;" edge="1" parent="1" source="NZPOO2AaPndxCj0YNW-u-71" target="NZPOO2AaPndxCj0YNW-u-100">
          <mxGeometry relative="1" as="geometry" />
        </mxCell>
        <mxCell id="NZPOO2AaPndxCj0YNW-u-102" style="edgeStyle=orthogonalEdgeStyle;rounded=0;orthogonalLoop=1;jettySize=auto;html=1;entryX=0;entryY=0;entryDx=0;entryDy=15;entryPerimeter=0;exitX=0.335;exitY=0.145;exitDx=0;exitDy=0;exitPerimeter=0;endArrow=none;endFill=0;" edge="1" parent="1" source="NZPOO2AaPndxCj0YNW-u-100" target="NZPOO2AaPndxCj0YNW-u-74">
          <mxGeometry relative="1" as="geometry" />
        </mxCell>
        <mxCell id="NZPOO2AaPndxCj0YNW-u-103" value="&lt;font style=&quot;font-size: 10px;&quot;&gt;Registration&lt;/font&gt;&lt;div style=&quot;font-size: 10px;&quot;&gt;&lt;font style=&quot;font-size: 10px;&quot;&gt;Interface&lt;/font&gt;&lt;/div&gt;" style="text;html=1;align=center;verticalAlign=middle;resizable=0;points=[];autosize=1;strokeColor=none;fillColor=none;fontSize=10;" vertex="1" parent="1">
          <mxGeometry x="783" y="1071" width="80" height="40" as="geometry" />
        </mxCell>
        <mxCell id="NZPOO2AaPndxCj0YNW-u-104" value="" style="shape=providedRequiredInterface;html=1;verticalLabelPosition=bottom;sketch=0;rotation=90;" vertex="1" parent="1">
          <mxGeometry x="850" y="1190" width="20" height="20" as="geometry" />
        </mxCell>
        <mxCell id="NZPOO2AaPndxCj0YNW-u-105" value="&lt;font style=&quot;font-size: 10px;&quot;&gt;Login&lt;/font&gt;&lt;div style=&quot;font-size: 10px;&quot;&gt;&lt;font style=&quot;font-size: 10px;&quot;&gt;Interface&lt;/font&gt;&lt;/div&gt;" style="text;html=1;align=center;verticalAlign=middle;resizable=0;points=[];autosize=1;strokeColor=none;fillColor=none;fontSize=10;" vertex="1" parent="1">
          <mxGeometry x="830" y="1157" width="60" height="40" as="geometry" />
        </mxCell>
        <mxCell id="NZPOO2AaPndxCj0YNW-u-106" style="edgeStyle=orthogonalEdgeStyle;rounded=0;orthogonalLoop=1;jettySize=auto;html=1;exitX=1;exitY=0.25;exitDx=0;exitDy=0;entryX=1;entryY=0.5;entryDx=0;entryDy=0;entryPerimeter=0;endArrow=none;endFill=0;" edge="1" parent="1" source="NZPOO2AaPndxCj0YNW-u-71" target="NZPOO2AaPndxCj0YNW-u-104">
          <mxGeometry relative="1" as="geometry" />
        </mxCell>
        <mxCell id="NZPOO2AaPndxCj0YNW-u-107" style="edgeStyle=orthogonalEdgeStyle;rounded=0;orthogonalLoop=1;jettySize=auto;html=1;entryX=0;entryY=0;entryDx=0;entryDy=15;entryPerimeter=0;exitX=0.383;exitY=0.161;exitDx=0;exitDy=0;exitPerimeter=0;endArrow=none;endFill=0;" edge="1" parent="1" source="NZPOO2AaPndxCj0YNW-u-104" target="NZPOO2AaPndxCj0YNW-u-75">
          <mxGeometry relative="1" as="geometry" />
        </mxCell>
        <mxCell id="NZPOO2AaPndxCj0YNW-u-108" value="&lt;span style=&quot;background-color: initial; font-size: 10px;&quot;&gt;Complaints&lt;/span&gt;&lt;br&gt;&lt;div style=&quot;font-size: 10px;&quot;&gt;&lt;span style=&quot;background-color: initial;&quot;&gt;Manager&lt;/span&gt;&lt;/div&gt;" style="shape=module;align=center;spacingLeft=20;align=center;verticalAlign=top;whiteSpace=wrap;html=1;" vertex="1" parent="1">
          <mxGeometry x="968" y="1515" width="100" height="50" as="geometry" />
        </mxCell>
        <mxCell id="NZPOO2AaPndxCj0YNW-u-110" style="edgeStyle=orthogonalEdgeStyle;rounded=0;orthogonalLoop=1;jettySize=auto;html=1;exitX=1;exitY=0.5;exitDx=0;exitDy=0;exitPerimeter=0;entryX=0.25;entryY=0;entryDx=0;entryDy=0;endArrow=none;endFill=0;" edge="1" parent="1" source="NZPOO2AaPndxCj0YNW-u-111" target="NZPOO2AaPndxCj0YNW-u-71">
          <mxGeometry relative="1" as="geometry" />
        </mxCell>
        <mxCell id="NZPOO2AaPndxCj0YNW-u-111" value="" style="shape=providedRequiredInterface;html=1;verticalLabelPosition=bottom;sketch=0;rotation=90;" vertex="1" parent="1">
          <mxGeometry x="746" y="1017" width="20" height="20" as="geometry" />
        </mxCell>
        <mxCell id="NZPOO2AaPndxCj0YNW-u-112" style="edgeStyle=orthogonalEdgeStyle;rounded=0;orthogonalLoop=1;jettySize=auto;html=1;entryX=0;entryY=0;entryDx=0;entryDy=15;entryPerimeter=0;exitX=0.346;exitY=0.156;exitDx=0;exitDy=0;exitPerimeter=0;endArrow=none;endFill=0;" edge="1" parent="1" source="NZPOO2AaPndxCj0YNW-u-111" target="NZPOO2AaPndxCj0YNW-u-79">
          <mxGeometry relative="1" as="geometry" />
        </mxCell>
        <mxCell id="NZPOO2AaPndxCj0YNW-u-113" value="Recommendation&lt;div&gt;Interface&lt;/div&gt;" style="text;html=1;align=center;verticalAlign=middle;resizable=0;points=[];autosize=1;strokeColor=none;fillColor=none;fontSize=10;" vertex="1" parent="1">
          <mxGeometry x="700" y="984" width="100" height="40" as="geometry" />
        </mxCell>
        <mxCell id="NZPOO2AaPndxCj0YNW-u-114" value="" style="shape=providedRequiredInterface;html=1;verticalLabelPosition=bottom;sketch=0;rotation=-180;" vertex="1" parent="1">
          <mxGeometry x="880" y="1312" width="20" height="20" as="geometry" />
        </mxCell>
        <mxCell id="NZPOO2AaPndxCj0YNW-u-115" style="edgeStyle=orthogonalEdgeStyle;rounded=0;orthogonalLoop=1;jettySize=auto;html=1;exitX=1;exitY=0.5;exitDx=0;exitDy=0;entryX=1;entryY=0.5;entryDx=0;entryDy=0;entryPerimeter=0;endArrow=none;endFill=0;" edge="1" parent="1" source="NZPOO2AaPndxCj0YNW-u-71" target="NZPOO2AaPndxCj0YNW-u-114">
          <mxGeometry relative="1" as="geometry" />
        </mxCell>
        <mxCell id="NZPOO2AaPndxCj0YNW-u-117" value="Internship&lt;br&gt;&lt;div style=&quot;font-size: 10px;&quot;&gt;&lt;font style=&quot;font-size: 10px;&quot;&gt;Interface&lt;/font&gt;&lt;/div&gt;" style="text;html=1;align=center;verticalAlign=middle;resizable=0;points=[];autosize=1;strokeColor=none;fillColor=none;fontSize=10;" vertex="1" parent="1">
          <mxGeometry x="853" y="1279" width="70" height="40" as="geometry" />
        </mxCell>
        <mxCell id="NZPOO2AaPndxCj0YNW-u-118" style="edgeStyle=orthogonalEdgeStyle;rounded=0;orthogonalLoop=1;jettySize=auto;html=1;exitX=1;exitY=0.5;exitDx=0;exitDy=0;entryX=0;entryY=0.5;entryDx=0;entryDy=0;endArrow=none;endFill=0;" edge="1" parent="1" source="NZPOO2AaPndxCj0YNW-u-119" target="NZPOO2AaPndxCj0YNW-u-82">
          <mxGeometry relative="1" as="geometry" />
        </mxCell>
        <mxCell id="NZPOO2AaPndxCj0YNW-u-119" value="&lt;span style=&quot;font-size: 10px;&quot;&gt;Model&lt;/span&gt;" style="shape=module;align=center;spacingLeft=20;align=center;verticalAlign=top;whiteSpace=wrap;html=1;" vertex="1" parent="1">
          <mxGeometry x="1410" y="1475" width="100" height="50" as="geometry" />
        </mxCell>
        <mxCell id="NZPOO2AaPndxCj0YNW-u-120" value="" style="shape=providedRequiredInterface;html=1;verticalLabelPosition=bottom;sketch=0;rotation=-180;" vertex="1" parent="1">
          <mxGeometry x="1320" y="1480" width="20" height="20" as="geometry" />
        </mxCell>
        <mxCell id="NZPOO2AaPndxCj0YNW-u-121" style="edgeStyle=orthogonalEdgeStyle;rounded=0;orthogonalLoop=1;jettySize=auto;html=1;exitX=0;exitY=0.5;exitDx=0;exitDy=0;exitPerimeter=0;entryX=0;entryY=0;entryDx=0;entryDy=15;entryPerimeter=0;endArrow=none;endFill=0;" edge="1" parent="1" source="NZPOO2AaPndxCj0YNW-u-120" target="NZPOO2AaPndxCj0YNW-u-119">
          <mxGeometry relative="1" as="geometry" />
        </mxCell>
        <mxCell id="NZPOO2AaPndxCj0YNW-u-122" value="&lt;font style=&quot;font-size: 10px;&quot;&gt;Model&lt;/font&gt;&lt;div style=&quot;font-size: 10px;&quot;&gt;&lt;font style=&quot;font-size: 10px;&quot;&gt;Interface&lt;/font&gt;&lt;/div&gt;" style="text;html=1;align=center;verticalAlign=middle;resizable=0;points=[];autosize=1;strokeColor=none;fillColor=none;fontSize=10;" vertex="1" parent="1">
          <mxGeometry x="1300" y="1445" width="60" height="40" as="geometry" />
        </mxCell>
        <mxCell id="NZPOO2AaPndxCj0YNW-u-123" value="" style="shape=providedRequiredInterface;html=1;verticalLabelPosition=bottom;sketch=0;rotation=-90;" vertex="1" parent="1">
          <mxGeometry x="850" y="1430" width="20" height="20" as="geometry" />
        </mxCell>
        <mxCell id="NZPOO2AaPndxCj0YNW-u-124" style="edgeStyle=orthogonalEdgeStyle;rounded=0;orthogonalLoop=1;jettySize=auto;html=1;exitX=1;exitY=0.75;exitDx=0;exitDy=0;entryX=1;entryY=0.5;entryDx=0;entryDy=0;entryPerimeter=0;endArrow=none;endFill=0;" edge="1" parent="1" source="NZPOO2AaPndxCj0YNW-u-71" target="NZPOO2AaPndxCj0YNW-u-123">
          <mxGeometry relative="1" as="geometry" />
        </mxCell>
        <mxCell id="NZPOO2AaPndxCj0YNW-u-125" style="edgeStyle=orthogonalEdgeStyle;rounded=0;orthogonalLoop=1;jettySize=auto;html=1;entryX=0;entryY=0;entryDx=0;entryDy=15;entryPerimeter=0;exitX=0.256;exitY=0.825;exitDx=0;exitDy=0;exitPerimeter=0;endArrow=none;endFill=0;" edge="1" parent="1" source="NZPOO2AaPndxCj0YNW-u-123" target="NZPOO2AaPndxCj0YNW-u-77">
          <mxGeometry relative="1" as="geometry" />
        </mxCell>
        <mxCell id="NZPOO2AaPndxCj0YNW-u-126" value="Profile&lt;br&gt;Interface" style="text;html=1;align=center;verticalAlign=middle;resizable=0;points=[];autosize=1;strokeColor=none;fillColor=none;fontSize=10;" vertex="1" parent="1">
          <mxGeometry x="830" y="1442" width="60" height="40" as="geometry" />
        </mxCell>
        <mxCell id="NZPOO2AaPndxCj0YNW-u-127" style="edgeStyle=orthogonalEdgeStyle;rounded=0;orthogonalLoop=1;jettySize=auto;html=1;exitX=1;exitY=0.5;exitDx=0;exitDy=0;entryX=1;entryY=0.5;entryDx=0;entryDy=0;entryPerimeter=0;endArrow=none;endFill=0;" edge="1" parent="1" source="NZPOO2AaPndxCj0YNW-u-75" target="NZPOO2AaPndxCj0YNW-u-120">
          <mxGeometry relative="1" as="geometry" />
        </mxCell>
        <mxCell id="NZPOO2AaPndxCj0YNW-u-128" style="edgeStyle=orthogonalEdgeStyle;rounded=0;orthogonalLoop=1;jettySize=auto;html=1;exitX=1;exitY=0.5;exitDx=0;exitDy=0;entryX=1;entryY=0.5;entryDx=0;entryDy=0;entryPerimeter=0;endArrow=none;endFill=0;" edge="1" parent="1" source="NZPOO2AaPndxCj0YNW-u-76" target="NZPOO2AaPndxCj0YNW-u-120">
          <mxGeometry relative="1" as="geometry" />
        </mxCell>
        <mxCell id="NZPOO2AaPndxCj0YNW-u-129" style="edgeStyle=orthogonalEdgeStyle;rounded=0;orthogonalLoop=1;jettySize=auto;html=1;exitX=1;exitY=0.5;exitDx=0;exitDy=0;entryX=1;entryY=0.5;entryDx=0;entryDy=0;entryPerimeter=0;endArrow=none;endFill=0;" edge="1" parent="1" source="NZPOO2AaPndxCj0YNW-u-77" target="NZPOO2AaPndxCj0YNW-u-120">
          <mxGeometry relative="1" as="geometry" />
        </mxCell>
        <mxCell id="NZPOO2AaPndxCj0YNW-u-130" style="edgeStyle=orthogonalEdgeStyle;rounded=0;orthogonalLoop=1;jettySize=auto;html=1;exitX=1;exitY=0.5;exitDx=0;exitDy=0;entryX=1;entryY=0.5;entryDx=0;entryDy=0;entryPerimeter=0;endArrow=none;endFill=0;" edge="1" parent="1" source="NZPOO2AaPndxCj0YNW-u-108" target="NZPOO2AaPndxCj0YNW-u-120">
          <mxGeometry relative="1" as="geometry" />
        </mxCell>
        <mxCell id="NZPOO2AaPndxCj0YNW-u-131" style="edgeStyle=orthogonalEdgeStyle;rounded=0;orthogonalLoop=1;jettySize=auto;html=1;exitX=1;exitY=0.5;exitDx=0;exitDy=0;exitPerimeter=0;entryX=0.75;entryY=1;entryDx=0;entryDy=0;endArrow=none;endFill=0;" edge="1" parent="1" source="NZPOO2AaPndxCj0YNW-u-132" target="NZPOO2AaPndxCj0YNW-u-71">
          <mxGeometry relative="1" as="geometry" />
        </mxCell>
        <mxCell id="NZPOO2AaPndxCj0YNW-u-132" value="" style="shape=providedRequiredInterface;html=1;verticalLabelPosition=bottom;sketch=0;rotation=-90;" vertex="1" parent="1">
          <mxGeometry x="796" y="1515" width="20" height="20" as="geometry" />
        </mxCell>
        <mxCell id="NZPOO2AaPndxCj0YNW-u-134" style="edgeStyle=orthogonalEdgeStyle;rounded=0;orthogonalLoop=1;jettySize=auto;html=1;entryX=0;entryY=0;entryDx=0;entryDy=15;entryPerimeter=0;exitX=0.281;exitY=0.825;exitDx=0;exitDy=0;exitPerimeter=0;endArrow=none;endFill=0;" edge="1" parent="1" source="NZPOO2AaPndxCj0YNW-u-132" target="NZPOO2AaPndxCj0YNW-u-108">
          <mxGeometry relative="1" as="geometry" />
        </mxCell>
        <mxCell id="NZPOO2AaPndxCj0YNW-u-137" value="&lt;font style=&quot;font-size: 10px;&quot;&gt;Complaints&lt;/font&gt;&lt;div style=&quot;font-size: 10px;&quot;&gt;&lt;font style=&quot;font-size: 10px;&quot;&gt;Interface&lt;/font&gt;&lt;/div&gt;" style="text;html=1;align=center;verticalAlign=middle;resizable=0;points=[];autosize=1;strokeColor=none;fillColor=none;fontSize=10;" vertex="1" parent="1">
          <mxGeometry x="777" y="1526" width="70" height="40" as="geometry" />
        </mxCell>
        <mxCell id="NZPOO2AaPndxCj0YNW-u-139" style="edgeStyle=orthogonalEdgeStyle;rounded=0;orthogonalLoop=1;jettySize=auto;html=1;exitX=1;exitY=0.75;exitDx=0;exitDy=0;entryX=1;entryY=0.5;entryDx=0;entryDy=0;entryPerimeter=0;endArrow=none;endFill=0;" edge="1" parent="1" source="NZPOO2AaPndxCj0YNW-u-74" target="NZPOO2AaPndxCj0YNW-u-120">
          <mxGeometry relative="1" as="geometry" />
        </mxCell>
        <mxCell id="NZPOO2AaPndxCj0YNW-u-141" style="edgeStyle=orthogonalEdgeStyle;rounded=0;orthogonalLoop=1;jettySize=auto;html=1;exitX=0;exitY=0.5;exitDx=0;exitDy=0;exitPerimeter=0;entryX=1;entryY=0.25;entryDx=0;entryDy=0;endArrow=none;endFill=0;strokeColor=#009900;" edge="1" parent="1" source="NZPOO2AaPndxCj0YNW-u-143" target="NZPOO2AaPndxCj0YNW-u-80">
          <mxGeometry relative="1" as="geometry" />
        </mxCell>
        <mxCell id="NZPOO2AaPndxCj0YNW-u-142" style="edgeStyle=orthogonalEdgeStyle;rounded=0;orthogonalLoop=1;jettySize=auto;html=1;exitX=1;exitY=0.5;exitDx=0;exitDy=0;exitPerimeter=0;entryX=1;entryY=0.75;entryDx=0;entryDy=0;endArrow=none;endFill=0;strokeColor=#009900;" edge="1" parent="1" source="NZPOO2AaPndxCj0YNW-u-143" target="NZPOO2AaPndxCj0YNW-u-108">
          <mxGeometry relative="1" as="geometry">
            <Array as="points">
              <mxPoint x="1100" y="1762" />
              <mxPoint x="1100" y="1553" />
              <mxPoint x="1068" y="1553" />
            </Array>
          </mxGeometry>
        </mxCell>
        <mxCell id="NZPOO2AaPndxCj0YNW-u-143" value="" style="shape=providedRequiredInterface;html=1;verticalLabelPosition=bottom;sketch=0;strokeColor=#009900;" vertex="1" parent="1">
          <mxGeometry x="990" y="1752" width="20" height="20" as="geometry" />
        </mxCell>
        <mxCell id="NZPOO2AaPndxCj0YNW-u-144" value="&lt;font style=&quot;font-size: 10px;&quot;&gt;ComplNotif&lt;/font&gt;&lt;div style=&quot;font-size: 10px;&quot;&gt;&lt;font style=&quot;font-size: 10px;&quot;&gt;Interface&lt;/font&gt;&lt;/div&gt;" style="text;html=1;align=center;verticalAlign=middle;resizable=0;points=[];autosize=1;strokeColor=none;fillColor=none;fontSize=10;" vertex="1" parent="1">
          <mxGeometry x="937" y="1725" width="70" height="40" as="geometry" />
        </mxCell>
        <mxCell id="NZPOO2AaPndxCj0YNW-u-145" style="edgeStyle=orthogonalEdgeStyle;rounded=0;orthogonalLoop=1;jettySize=auto;html=1;exitX=1;exitY=0.5;exitDx=0;exitDy=0;exitPerimeter=0;entryX=1;entryY=0.75;entryDx=0;entryDy=0;strokeColor=#CC0000;endArrow=none;endFill=0;" edge="1" parent="1" source="NZPOO2AaPndxCj0YNW-u-146" target="NZPOO2AaPndxCj0YNW-u-79">
          <mxGeometry relative="1" as="geometry">
            <Array as="points">
              <mxPoint x="1120" y="1787" />
              <mxPoint x="1120" y="1047" />
            </Array>
          </mxGeometry>
        </mxCell>
        <mxCell id="NZPOO2AaPndxCj0YNW-u-146" value="" style="shape=providedRequiredInterface;html=1;verticalLabelPosition=bottom;sketch=0;strokeColor=#CC0000;" vertex="1" parent="1">
          <mxGeometry x="990" y="1777" width="20" height="20" as="geometry" />
        </mxCell>
        <mxCell id="NZPOO2AaPndxCj0YNW-u-147" style="edgeStyle=orthogonalEdgeStyle;rounded=0;orthogonalLoop=1;jettySize=auto;html=1;exitX=1;exitY=0.75;exitDx=0;exitDy=0;entryX=0;entryY=0.5;entryDx=0;entryDy=0;entryPerimeter=0;strokeColor=#CC0000;endArrow=none;endFill=0;" edge="1" parent="1" source="NZPOO2AaPndxCj0YNW-u-80" target="NZPOO2AaPndxCj0YNW-u-146">
          <mxGeometry relative="1" as="geometry" />
        </mxCell>
        <mxCell id="NZPOO2AaPndxCj0YNW-u-148" value="&lt;font style=&quot;font-size: 10px;&quot;&gt;RecomNotif&lt;/font&gt;&lt;div&gt;&lt;span style=&quot;background-color: initial;&quot;&gt;Interface&lt;/span&gt;&lt;/div&gt;" style="text;html=1;align=center;verticalAlign=middle;resizable=0;points=[];autosize=1;strokeColor=none;fillColor=none;fontSize=10;" vertex="1" parent="1">
          <mxGeometry x="963" y="1790" width="80" height="40" as="geometry" />
        </mxCell>
        <mxCell id="NZPOO2AaPndxCj0YNW-u-149" style="edgeStyle=orthogonalEdgeStyle;rounded=0;orthogonalLoop=1;jettySize=auto;html=1;exitX=1;exitY=0.5;exitDx=0;exitDy=0;entryX=1;entryY=0.5;entryDx=0;entryDy=0;entryPerimeter=0;endArrow=none;endFill=0;" edge="1" parent="1" source="NZPOO2AaPndxCj0YNW-u-79" target="NZPOO2AaPndxCj0YNW-u-120">
          <mxGeometry relative="1" as="geometry" />
        </mxCell>
        <mxCell id="NZPOO2AaPndxCj0YNW-u-153" value="&lt;font&gt;View Profile&lt;br&gt;Interface&lt;/font&gt;" style="text;html=1;align=center;verticalAlign=middle;resizable=0;points=[];autosize=1;strokeColor=none;fillColor=none;fontSize=10;" vertex="1" parent="1">
          <mxGeometry x="920" y="1370" width="80" height="40" as="geometry" />
        </mxCell>
        <mxCell id="NZPOO2AaPndxCj0YNW-u-154" value="&lt;span style=&quot;background-color: initial; font-size: 10px;&quot;&gt;Application&lt;/span&gt;&lt;br&gt;&lt;div style=&quot;font-size: 10px;&quot;&gt;&lt;span style=&quot;background-color: initial;&quot;&gt;Manager&lt;/span&gt;&lt;/div&gt;" style="shape=module;align=center;spacingLeft=20;align=center;verticalAlign=top;whiteSpace=wrap;html=1;" vertex="1" parent="1">
          <mxGeometry x="968" y="1610" width="100" height="50" as="geometry" />
        </mxCell>
        <mxCell id="NZPOO2AaPndxCj0YNW-u-155" value="" style="shape=providedRequiredInterface;html=1;verticalLabelPosition=bottom;sketch=0;rotation=-90;" vertex="1" parent="1">
          <mxGeometry x="746" y="1612" width="20" height="20" as="geometry" />
        </mxCell>
        <mxCell id="NZPOO2AaPndxCj0YNW-u-157" style="edgeStyle=orthogonalEdgeStyle;rounded=0;orthogonalLoop=1;jettySize=auto;html=1;entryX=0;entryY=0;entryDx=0;entryDy=15;entryPerimeter=0;exitX=0.337;exitY=0.848;exitDx=0;exitDy=0;exitPerimeter=0;endArrow=none;endFill=0;" edge="1" parent="1" source="NZPOO2AaPndxCj0YNW-u-155" target="NZPOO2AaPndxCj0YNW-u-154">
          <mxGeometry relative="1" as="geometry" />
        </mxCell>
        <mxCell id="NZPOO2AaPndxCj0YNW-u-158" value="&lt;font style=&quot;font-size: 10px;&quot;&gt;Application&lt;/font&gt;&lt;div style=&quot;font-size: 10px;&quot;&gt;&lt;font style=&quot;font-size: 10px;&quot;&gt;Interface&lt;/font&gt;&lt;/div&gt;" style="text;html=1;align=center;verticalAlign=middle;resizable=0;points=[];autosize=1;strokeColor=none;fillColor=none;fontSize=10;" vertex="1" parent="1">
          <mxGeometry x="721" y="1624" width="70" height="40" as="geometry" />
        </mxCell>
        <mxCell id="NZPOO2AaPndxCj0YNW-u-159" style="edgeStyle=orthogonalEdgeStyle;rounded=0;orthogonalLoop=1;jettySize=auto;html=1;entryX=0.75;entryY=0;entryDx=0;entryDy=0;exitX=0.345;exitY=0.161;exitDx=0;exitDy=0;exitPerimeter=0;endArrow=none;endFill=0;strokeColor=#999900;" edge="1" parent="1" source="NZPOO2AaPndxCj0YNW-u-160" target="NZPOO2AaPndxCj0YNW-u-80">
          <mxGeometry relative="1" as="geometry" />
        </mxCell>
        <mxCell id="NZPOO2AaPndxCj0YNW-u-160" value="" style="shape=providedRequiredInterface;html=1;verticalLabelPosition=bottom;sketch=0;strokeColor=#999900;direction=north;" vertex="1" parent="1">
          <mxGeometry x="1008" y="1700" width="20" height="20" as="geometry" />
        </mxCell>
        <mxCell id="NZPOO2AaPndxCj0YNW-u-161" style="edgeStyle=orthogonalEdgeStyle;rounded=0;orthogonalLoop=1;jettySize=auto;html=1;exitX=0.5;exitY=1;exitDx=0;exitDy=0;entryX=1;entryY=0.5;entryDx=0;entryDy=0;entryPerimeter=0;endArrow=none;endFill=0;strokeColor=#999900;" edge="1" parent="1" source="NZPOO2AaPndxCj0YNW-u-154" target="NZPOO2AaPndxCj0YNW-u-160">
          <mxGeometry relative="1" as="geometry" />
        </mxCell>
        <mxCell id="NZPOO2AaPndxCj0YNW-u-162" value="&lt;font style=&quot;font-size: 10px;&quot;&gt;ApplicNotif&lt;/font&gt;&lt;div style=&quot;font-size: 10px;&quot;&gt;&lt;font style=&quot;font-size: 10px;&quot;&gt;Interface&lt;/font&gt;&lt;/div&gt;" style="text;html=1;align=center;verticalAlign=middle;resizable=0;points=[];autosize=1;strokeColor=none;fillColor=none;fontSize=10;" vertex="1" parent="1">
          <mxGeometry x="1021" y="1681" width="70" height="40" as="geometry" />
        </mxCell>
        <mxCell id="NZPOO2AaPndxCj0YNW-u-168" style="edgeStyle=orthogonalEdgeStyle;rounded=0;orthogonalLoop=1;jettySize=auto;html=1;exitX=0;exitY=0.5;exitDx=0;exitDy=0;exitPerimeter=0;entryX=0.5;entryY=0;entryDx=0;entryDy=0;strokeColor=#00CCCC;endArrow=none;endFill=0;" edge="1" parent="1" source="NZPOO2AaPndxCj0YNW-u-164" target="NZPOO2AaPndxCj0YNW-u-77">
          <mxGeometry relative="1" as="geometry">
            <Array as="points">
              <mxPoint x="920" y="1410" />
              <mxPoint x="1018" y="1410" />
            </Array>
          </mxGeometry>
        </mxCell>
        <mxCell id="NZPOO2AaPndxCj0YNW-u-164" value="" style="shape=providedRequiredInterface;html=1;verticalLabelPosition=bottom;sketch=0;rotation=-180;direction=south;strokeColor=#00CCCC;" vertex="1" parent="1">
          <mxGeometry x="910" y="1380" width="20" height="20" as="geometry" />
        </mxCell>
        <mxCell id="NZPOO2AaPndxCj0YNW-u-166" style="edgeStyle=orthogonalEdgeStyle;rounded=0;orthogonalLoop=1;jettySize=auto;html=1;exitX=0;exitY=0;exitDx=0;exitDy=15;exitPerimeter=0;entryX=1;entryY=0.5;entryDx=0;entryDy=0;entryPerimeter=0;strokeColor=#00CCCC;endArrow=none;endFill=0;" edge="1" parent="1" source="NZPOO2AaPndxCj0YNW-u-76" target="NZPOO2AaPndxCj0YNW-u-164">
          <mxGeometry relative="1" as="geometry" />
        </mxCell>
        <mxCell id="NZPOO2AaPndxCj0YNW-u-167" style="edgeStyle=orthogonalEdgeStyle;rounded=0;orthogonalLoop=1;jettySize=auto;html=1;entryX=1;entryY=0.5;entryDx=0;entryDy=0;entryPerimeter=0;strokeColor=#00CCCC;endArrow=none;endFill=0;" edge="1" parent="1" target="NZPOO2AaPndxCj0YNW-u-164">
          <mxGeometry relative="1" as="geometry">
            <Array as="points">
              <mxPoint x="1000" y="1070" />
              <mxPoint x="920" y="1070" />
            </Array>
            <mxPoint x="1000" y="1059" as="sourcePoint" />
          </mxGeometry>
        </mxCell>
        <mxCell id="NZPOO2AaPndxCj0YNW-u-169" style="edgeStyle=orthogonalEdgeStyle;rounded=0;orthogonalLoop=1;jettySize=auto;html=1;exitX=1;exitY=0.5;exitDx=0;exitDy=0;entryX=0;entryY=0.5;entryDx=0;entryDy=0;endArrow=none;endFill=0;" edge="1" parent="1" source="NZPOO2AaPndxCj0YNW-u-170" target="NZPOO2AaPndxCj0YNW-u-171">
          <mxGeometry relative="1" as="geometry" />
        </mxCell>
        <mxCell id="NZPOO2AaPndxCj0YNW-u-170" value="" style="ellipse;whiteSpace=wrap;html=1;aspect=fixed;" vertex="1" parent="1">
          <mxGeometry x="140" y="3084" width="20" height="20" as="geometry" />
        </mxCell>
        <mxCell id="NZPOO2AaPndxCj0YNW-u-171" value="" style="rounded=0;whiteSpace=wrap;html=1;" vertex="1" parent="1">
          <mxGeometry x="296" y="3084" width="20" height="20" as="geometry" />
        </mxCell>
        <mxCell id="NZPOO2AaPndxCj0YNW-u-172" value="Internship&lt;div&gt;Interface&lt;/div&gt;" style="text;html=1;align=center;verticalAlign=middle;resizable=0;points=[];autosize=1;strokeColor=none;fillColor=none;fontSize=10;" vertex="1" parent="1">
          <mxGeometry x="115" y="3097" width="70" height="40" as="geometry" />
        </mxCell>
        <mxCell id="NZPOO2AaPndxCj0YNW-u-173" value="Dashboard&lt;br&gt;Manager" style="text;html=1;align=center;verticalAlign=middle;resizable=0;points=[];autosize=1;strokeColor=none;fillColor=none;fontSize=10;" vertex="1" parent="1">
          <mxGeometry x="235.5" y="3057" width="70" height="40" as="geometry" />
        </mxCell>
        <mxCell id="GgBvC1RKiGsKNYA5bMCQ-16" style="edgeStyle=orthogonalEdgeStyle;rounded=0;orthogonalLoop=1;jettySize=auto;html=1;exitX=1;exitY=0.75;exitDx=0;exitDy=0;entryX=0;entryY=0.5;entryDx=0;entryDy=0;endArrow=open;endFill=0;dashed=1;" edge="1" parent="1" source="NZPOO2AaPndxCj0YNW-u-174" target="NZPOO2AaPndxCj0YNW-u-190">
          <mxGeometry relative="1" as="geometry" />
        </mxCell>
        <mxCell id="NZPOO2AaPndxCj0YNW-u-174" value="View&lt;br&gt;Internship" style="shape=module;align=left;spacingLeft=20;align=center;verticalAlign=top;whiteSpace=wrap;html=1;" vertex="1" parent="1">
          <mxGeometry x="460" y="2905" width="100" height="50" as="geometry" />
        </mxCell>
        <mxCell id="NZPOO2AaPndxCj0YNW-u-196" style="edgeStyle=orthogonalEdgeStyle;rounded=0;orthogonalLoop=1;jettySize=auto;html=1;exitX=1;exitY=0.5;exitDx=0;exitDy=0;entryX=0;entryY=0.5;entryDx=0;entryDy=0;endArrow=open;endFill=0;dashed=1;" edge="1" parent="1" source="NZPOO2AaPndxCj0YNW-u-175" target="NZPOO2AaPndxCj0YNW-u-190">
          <mxGeometry relative="1" as="geometry" />
        </mxCell>
        <mxCell id="NZPOO2AaPndxCj0YNW-u-175" value="Create&lt;br&gt;Internship" style="shape=module;align=left;spacingLeft=20;align=center;verticalAlign=top;whiteSpace=wrap;html=1;" vertex="1" parent="1">
          <mxGeometry x="460" y="2975" width="100" height="50" as="geometry" />
        </mxCell>
        <mxCell id="NZPOO2AaPndxCj0YNW-u-195" style="edgeStyle=orthogonalEdgeStyle;rounded=0;orthogonalLoop=1;jettySize=auto;html=1;exitX=1;exitY=0.5;exitDx=0;exitDy=0;entryX=0;entryY=0.5;entryDx=0;entryDy=0;endArrow=open;endFill=0;dashed=1;" edge="1" parent="1" source="NZPOO2AaPndxCj0YNW-u-176" target="NZPOO2AaPndxCj0YNW-u-190">
          <mxGeometry relative="1" as="geometry" />
        </mxCell>
        <mxCell id="NZPOO2AaPndxCj0YNW-u-176" value="Modify&lt;br&gt;Internship" style="shape=module;align=left;spacingLeft=20;align=center;verticalAlign=top;whiteSpace=wrap;html=1;" vertex="1" parent="1">
          <mxGeometry x="460" y="3045" width="100" height="50" as="geometry" />
        </mxCell>
        <mxCell id="NZPOO2AaPndxCj0YNW-u-198" style="edgeStyle=orthogonalEdgeStyle;rounded=0;orthogonalLoop=1;jettySize=auto;html=1;exitX=1;exitY=0.5;exitDx=0;exitDy=0;entryX=0;entryY=0.5;entryDx=0;entryDy=0;endArrow=open;endFill=0;dashed=1;" edge="1" parent="1" source="NZPOO2AaPndxCj0YNW-u-177" target="NZPOO2AaPndxCj0YNW-u-190">
          <mxGeometry relative="1" as="geometry" />
        </mxCell>
        <mxCell id="NZPOO2AaPndxCj0YNW-u-177" value="Apply&lt;br&gt;Internship" style="shape=module;align=left;spacingLeft=20;align=center;verticalAlign=top;whiteSpace=wrap;html=1;" vertex="1" parent="1">
          <mxGeometry x="460" y="3115" width="100" height="50" as="geometry" />
        </mxCell>
        <mxCell id="GgBvC1RKiGsKNYA5bMCQ-37" style="edgeStyle=orthogonalEdgeStyle;rounded=0;orthogonalLoop=1;jettySize=auto;html=1;exitX=1;exitY=0.5;exitDx=0;exitDy=0;entryX=0;entryY=0.5;entryDx=0;entryDy=0;endArrow=open;endFill=0;dashed=1;" edge="1" parent="1" source="NZPOO2AaPndxCj0YNW-u-179" target="GgBvC1RKiGsKNYA5bMCQ-31">
          <mxGeometry relative="1" as="geometry" />
        </mxCell>
        <mxCell id="NZPOO2AaPndxCj0YNW-u-179" value="Update&lt;br&gt;Profile" style="shape=module;align=left;spacingLeft=20;align=center;verticalAlign=top;whiteSpace=wrap;html=1;" vertex="1" parent="1">
          <mxGeometry x="1686.5" y="2565" width="100" height="50" as="geometry" />
        </mxCell>
        <mxCell id="GgBvC1RKiGsKNYA5bMCQ-60" style="edgeStyle=orthogonalEdgeStyle;rounded=0;orthogonalLoop=1;jettySize=auto;html=1;exitX=1;exitY=0.75;exitDx=0;exitDy=0;entryX=0;entryY=0.5;entryDx=0;entryDy=0;dashed=1;endArrow=open;endFill=0;" edge="1" parent="1" source="NZPOO2AaPndxCj0YNW-u-180" target="GgBvC1RKiGsKNYA5bMCQ-45">
          <mxGeometry relative="1" as="geometry" />
        </mxCell>
        <mxCell id="GgBvC1RKiGsKNYA5bMCQ-61" style="edgeStyle=orthogonalEdgeStyle;rounded=0;orthogonalLoop=1;jettySize=auto;html=1;exitX=1;exitY=0.25;exitDx=0;exitDy=0;entryX=0;entryY=0.5;entryDx=0;entryDy=0;dashed=1;endArrow=open;endFill=0;strokeColor=#009900;" edge="1" parent="1" source="NZPOO2AaPndxCj0YNW-u-180" target="GgBvC1RKiGsKNYA5bMCQ-50">
          <mxGeometry relative="1" as="geometry" />
        </mxCell>
        <mxCell id="NZPOO2AaPndxCj0YNW-u-180" value="Create&lt;br&gt;Complaint" style="shape=module;align=left;spacingLeft=20;align=center;verticalAlign=top;whiteSpace=wrap;html=1;" vertex="1" parent="1">
          <mxGeometry x="1686" y="2800" width="100" height="50" as="geometry" />
        </mxCell>
        <mxCell id="GgBvC1RKiGsKNYA5bMCQ-59" style="edgeStyle=orthogonalEdgeStyle;rounded=0;orthogonalLoop=1;jettySize=auto;html=1;exitX=1;exitY=0.5;exitDx=0;exitDy=0;entryX=0;entryY=0.5;entryDx=0;entryDy=0;dashed=1;endArrow=open;endFill=0;" edge="1" parent="1" source="NZPOO2AaPndxCj0YNW-u-181" target="GgBvC1RKiGsKNYA5bMCQ-45">
          <mxGeometry relative="1" as="geometry" />
        </mxCell>
        <mxCell id="NZPOO2AaPndxCj0YNW-u-181" value="Manage Complaints" style="shape=module;align=left;spacingLeft=20;align=center;verticalAlign=top;whiteSpace=wrap;html=1;" vertex="1" parent="1">
          <mxGeometry x="1686" y="2895" width="100" height="50" as="geometry" />
        </mxCell>
        <mxCell id="GgBvC1RKiGsKNYA5bMCQ-64" style="edgeStyle=orthogonalEdgeStyle;rounded=0;orthogonalLoop=1;jettySize=auto;html=1;exitX=1;exitY=0.5;exitDx=0;exitDy=0;entryX=0;entryY=0.5;entryDx=0;entryDy=0;endArrow=open;endFill=0;dashed=1;" edge="1" parent="1" source="NZPOO2AaPndxCj0YNW-u-182" target="NZPOO2AaPndxCj0YNW-u-190">
          <mxGeometry relative="1" as="geometry" />
        </mxCell>
        <mxCell id="NZPOO2AaPndxCj0YNW-u-182" value="Create&lt;br&gt;Feedback" style="shape=module;align=left;spacingLeft=20;align=center;verticalAlign=top;whiteSpace=wrap;html=1;" vertex="1" parent="1">
          <mxGeometry x="460" y="3186" width="100" height="50" as="geometry" />
        </mxCell>
        <mxCell id="NZPOO2AaPndxCj0YNW-u-186" style="edgeStyle=orthogonalEdgeStyle;rounded=0;orthogonalLoop=1;jettySize=auto;html=1;exitX=1;exitY=0.5;exitDx=0;exitDy=0;entryX=0;entryY=0;entryDx=0;entryDy=15;entryPerimeter=0;endArrow=open;endFill=0;dashed=1;" edge="1" parent="1" source="NZPOO2AaPndxCj0YNW-u-171" target="NZPOO2AaPndxCj0YNW-u-175">
          <mxGeometry relative="1" as="geometry" />
        </mxCell>
        <mxCell id="NZPOO2AaPndxCj0YNW-u-187" style="edgeStyle=orthogonalEdgeStyle;rounded=0;orthogonalLoop=1;jettySize=auto;html=1;exitX=1;exitY=0.5;exitDx=0;exitDy=0;entryX=0;entryY=0;entryDx=0;entryDy=15;entryPerimeter=0;endArrow=open;endFill=0;dashed=1;" edge="1" parent="1" source="NZPOO2AaPndxCj0YNW-u-171" target="NZPOO2AaPndxCj0YNW-u-176">
          <mxGeometry relative="1" as="geometry" />
        </mxCell>
        <mxCell id="NZPOO2AaPndxCj0YNW-u-188" style="edgeStyle=orthogonalEdgeStyle;rounded=0;orthogonalLoop=1;jettySize=auto;html=1;exitX=1;exitY=0.5;exitDx=0;exitDy=0;entryX=0;entryY=0;entryDx=0;entryDy=15;entryPerimeter=0;endArrow=open;endFill=0;dashed=1;" edge="1" parent="1" source="NZPOO2AaPndxCj0YNW-u-171" target="NZPOO2AaPndxCj0YNW-u-177">
          <mxGeometry relative="1" as="geometry" />
        </mxCell>
        <mxCell id="NZPOO2AaPndxCj0YNW-u-190" value="" style="rounded=0;whiteSpace=wrap;html=1;" vertex="1" parent="1">
          <mxGeometry x="805" y="3095" width="20" height="20" as="geometry" />
        </mxCell>
        <mxCell id="NZPOO2AaPndxCj0YNW-u-191" value="" style="shape=requiredInterface;html=1;verticalLabelPosition=bottom;sketch=0;direction=west;" vertex="1" parent="1">
          <mxGeometry x="950" y="3095" width="10" height="20" as="geometry" />
        </mxCell>
        <mxCell id="NZPOO2AaPndxCj0YNW-u-192" value="Model &lt;br&gt;Interface" style="text;html=1;align=center;verticalAlign=middle;resizable=0;points=[];autosize=1;strokeColor=none;fillColor=none;fontSize=10;" vertex="1" parent="1">
          <mxGeometry x="930" y="3061" width="60" height="40" as="geometry" />
        </mxCell>
        <mxCell id="NZPOO2AaPndxCj0YNW-u-193" style="edgeStyle=orthogonalEdgeStyle;rounded=0;orthogonalLoop=1;jettySize=auto;html=1;exitX=1;exitY=0.5;exitDx=0;exitDy=0;entryX=1;entryY=0.5;entryDx=0;entryDy=0;entryPerimeter=0;endArrow=none;endFill=0;" edge="1" parent="1" source="NZPOO2AaPndxCj0YNW-u-190" target="NZPOO2AaPndxCj0YNW-u-191">
          <mxGeometry relative="1" as="geometry" />
        </mxCell>
        <mxCell id="NZPOO2AaPndxCj0YNW-u-194" value="Model" style="text;html=1;align=center;verticalAlign=middle;resizable=0;points=[];autosize=1;strokeColor=none;fillColor=none;fontSize=10;" vertex="1" parent="1">
          <mxGeometry x="808" y="3071" width="50" height="30" as="geometry" />
        </mxCell>
        <mxCell id="GgBvC1RKiGsKNYA5bMCQ-5" style="edgeStyle=orthogonalEdgeStyle;rounded=0;orthogonalLoop=1;jettySize=auto;html=1;exitX=0;exitY=0.5;exitDx=0;exitDy=0;exitPerimeter=0;entryX=0.5;entryY=0;entryDx=0;entryDy=0;endArrow=none;endFill=0;strokeColor=#CC6600;" edge="1" parent="1" source="GgBvC1RKiGsKNYA5bMCQ-1" target="NZPOO2AaPndxCj0YNW-u-76">
          <mxGeometry relative="1" as="geometry">
            <Array as="points">
              <mxPoint x="940" y="1273" />
              <mxPoint x="1018" y="1273" />
            </Array>
          </mxGeometry>
        </mxCell>
        <mxCell id="GgBvC1RKiGsKNYA5bMCQ-1" value="" style="shape=providedRequiredInterface;html=1;verticalLabelPosition=bottom;sketch=0;rotation=-180;direction=south;strokeColor=#CC6600;" vertex="1" parent="1">
          <mxGeometry x="930" y="1243" width="20" height="20" as="geometry" />
        </mxCell>
        <mxCell id="GgBvC1RKiGsKNYA5bMCQ-3" style="edgeStyle=orthogonalEdgeStyle;rounded=0;orthogonalLoop=1;jettySize=auto;html=1;exitX=0;exitY=0.5;exitDx=0;exitDy=0;exitPerimeter=0;entryX=0;entryY=0;entryDx=0;entryDy=35;entryPerimeter=0;endArrow=none;endFill=0;" edge="1" parent="1" source="NZPOO2AaPndxCj0YNW-u-114" target="NZPOO2AaPndxCj0YNW-u-76">
          <mxGeometry relative="1" as="geometry" />
        </mxCell>
        <mxCell id="GgBvC1RKiGsKNYA5bMCQ-4" style="edgeStyle=orthogonalEdgeStyle;rounded=0;orthogonalLoop=1;jettySize=auto;html=1;exitX=0.5;exitY=1;exitDx=0;exitDy=0;entryX=1;entryY=0.5;entryDx=0;entryDy=0;entryPerimeter=0;endArrow=none;endFill=0;strokeColor=#CC6600;" edge="1" parent="1" source="NZPOO2AaPndxCj0YNW-u-79" target="GgBvC1RKiGsKNYA5bMCQ-1">
          <mxGeometry relative="1" as="geometry">
            <Array as="points">
              <mxPoint x="1018" y="1080" />
              <mxPoint x="940" y="1080" />
            </Array>
          </mxGeometry>
        </mxCell>
        <mxCell id="GgBvC1RKiGsKNYA5bMCQ-7" value="&lt;font&gt;View Internship&lt;br&gt;Interface&lt;/font&gt;" style="text;html=1;align=center;verticalAlign=middle;resizable=0;points=[];autosize=1;strokeColor=none;fillColor=none;fontSize=10;" vertex="1" parent="1">
          <mxGeometry x="942" y="1237" width="90" height="40" as="geometry" />
        </mxCell>
        <mxCell id="GgBvC1RKiGsKNYA5bMCQ-15" style="edgeStyle=orthogonalEdgeStyle;rounded=0;orthogonalLoop=1;jettySize=auto;html=1;exitX=0;exitY=0.5;exitDx=0;exitDy=0;entryX=1;entryY=0.5;entryDx=0;entryDy=0;dashed=1;endArrow=open;endFill=0;strokeColor=#CC6600;" edge="1" parent="1" source="GgBvC1RKiGsKNYA5bMCQ-8" target="NZPOO2AaPndxCj0YNW-u-174">
          <mxGeometry relative="1" as="geometry" />
        </mxCell>
        <mxCell id="GgBvC1RKiGsKNYA5bMCQ-8" value="" style="rounded=0;whiteSpace=wrap;html=1;" vertex="1" parent="1">
          <mxGeometry x="805" y="2920" width="20" height="20" as="geometry" />
        </mxCell>
        <mxCell id="GgBvC1RKiGsKNYA5bMCQ-9" value="Recommendation&lt;br&gt;Manager" style="text;html=1;align=center;verticalAlign=middle;resizable=0;points=[];autosize=1;strokeColor=none;fillColor=none;fontSize=10;" vertex="1" parent="1">
          <mxGeometry x="807" y="2888" width="100" height="40" as="geometry" />
        </mxCell>
        <mxCell id="GgBvC1RKiGsKNYA5bMCQ-11" value="View Internship&lt;br&gt;Interface" style="text;html=1;align=center;verticalAlign=middle;resizable=0;points=[];autosize=1;strokeColor=none;fillColor=none;fontSize=10;" vertex="1" parent="1">
          <mxGeometry x="915" y="2886" width="90" height="40" as="geometry" />
        </mxCell>
        <mxCell id="GgBvC1RKiGsKNYA5bMCQ-14" style="edgeStyle=orthogonalEdgeStyle;rounded=0;orthogonalLoop=1;jettySize=auto;html=1;exitX=0;exitY=0.5;exitDx=0;exitDy=0;entryX=1;entryY=0.5;entryDx=0;entryDy=0;endArrow=none;endFill=0;strokeColor=#CC6600;" edge="1" parent="1" source="GgBvC1RKiGsKNYA5bMCQ-13" target="GgBvC1RKiGsKNYA5bMCQ-8">
          <mxGeometry relative="1" as="geometry" />
        </mxCell>
        <mxCell id="GgBvC1RKiGsKNYA5bMCQ-13" value="" style="ellipse;whiteSpace=wrap;html=1;aspect=fixed;strokeColor=#CC6600;" vertex="1" parent="1">
          <mxGeometry x="950" y="2920" width="20" height="20" as="geometry" />
        </mxCell>
        <mxCell id="GgBvC1RKiGsKNYA5bMCQ-17" style="edgeStyle=orthogonalEdgeStyle;rounded=0;orthogonalLoop=1;jettySize=auto;html=1;exitX=1;exitY=0.5;exitDx=0;exitDy=0;entryX=0;entryY=0;entryDx=0;entryDy=15;entryPerimeter=0;endArrow=open;endFill=0;dashed=1;" edge="1" parent="1" source="NZPOO2AaPndxCj0YNW-u-171" target="NZPOO2AaPndxCj0YNW-u-174">
          <mxGeometry relative="1" as="geometry" />
        </mxCell>
        <mxCell id="GgBvC1RKiGsKNYA5bMCQ-23" style="edgeStyle=orthogonalEdgeStyle;rounded=0;orthogonalLoop=1;jettySize=auto;html=1;exitX=0;exitY=0.5;exitDx=0;exitDy=0;entryX=1;entryY=0.25;entryDx=0;entryDy=0;endArrow=open;endFill=0;dashed=1;strokeColor=#00CCCC;" edge="1" parent="1" source="GgBvC1RKiGsKNYA5bMCQ-18" target="NZPOO2AaPndxCj0YNW-u-57">
          <mxGeometry relative="1" as="geometry" />
        </mxCell>
        <mxCell id="GgBvC1RKiGsKNYA5bMCQ-18" value="" style="rounded=0;whiteSpace=wrap;html=1;" vertex="1" parent="1">
          <mxGeometry x="1969.5" y="2468" width="20" height="20" as="geometry" />
        </mxCell>
        <mxCell id="GgBvC1RKiGsKNYA5bMCQ-19" value="Recommendation&lt;br&gt;Manager" style="text;html=1;align=center;verticalAlign=middle;resizable=0;points=[];autosize=1;strokeColor=none;fillColor=none;fontSize=10;" vertex="1" parent="1">
          <mxGeometry x="1971.5" y="2436" width="100" height="40" as="geometry" />
        </mxCell>
        <mxCell id="GgBvC1RKiGsKNYA5bMCQ-20" value="View Profile&lt;br&gt;Interface" style="text;html=1;align=center;verticalAlign=middle;resizable=0;points=[];autosize=1;strokeColor=none;fillColor=none;fontSize=10;" vertex="1" parent="1">
          <mxGeometry x="2084.5" y="2434" width="80" height="40" as="geometry" />
        </mxCell>
        <mxCell id="GgBvC1RKiGsKNYA5bMCQ-21" style="edgeStyle=orthogonalEdgeStyle;rounded=0;orthogonalLoop=1;jettySize=auto;html=1;exitX=0;exitY=0.5;exitDx=0;exitDy=0;entryX=1;entryY=0.5;entryDx=0;entryDy=0;endArrow=none;endFill=0;strokeColor=#00CCCC;" edge="1" parent="1" source="GgBvC1RKiGsKNYA5bMCQ-22" target="GgBvC1RKiGsKNYA5bMCQ-18">
          <mxGeometry relative="1" as="geometry" />
        </mxCell>
        <mxCell id="GgBvC1RKiGsKNYA5bMCQ-22" value="" style="ellipse;whiteSpace=wrap;html=1;aspect=fixed;strokeColor=#00CCCC;" vertex="1" parent="1">
          <mxGeometry x="2114.5" y="2468" width="20" height="20" as="geometry" />
        </mxCell>
        <mxCell id="GgBvC1RKiGsKNYA5bMCQ-24" style="edgeStyle=orthogonalEdgeStyle;rounded=0;orthogonalLoop=1;jettySize=auto;html=1;exitX=1;exitY=0.5;exitDx=0;exitDy=0;entryX=0;entryY=0.5;entryDx=0;entryDy=0;endArrow=none;endFill=0;" edge="1" parent="1" source="GgBvC1RKiGsKNYA5bMCQ-25" target="GgBvC1RKiGsKNYA5bMCQ-26">
          <mxGeometry relative="1" as="geometry" />
        </mxCell>
        <mxCell id="GgBvC1RKiGsKNYA5bMCQ-25" value="" style="ellipse;whiteSpace=wrap;html=1;aspect=fixed;" vertex="1" parent="1">
          <mxGeometry x="1354.5" y="2540" width="20" height="20" as="geometry" />
        </mxCell>
        <mxCell id="GgBvC1RKiGsKNYA5bMCQ-26" value="" style="rounded=0;whiteSpace=wrap;html=1;" vertex="1" parent="1">
          <mxGeometry x="1510.5" y="2540" width="20" height="20" as="geometry" />
        </mxCell>
        <mxCell id="GgBvC1RKiGsKNYA5bMCQ-27" value="Profile&lt;div&gt;Interface&lt;/div&gt;" style="text;html=1;align=center;verticalAlign=middle;resizable=0;points=[];autosize=1;strokeColor=none;fillColor=none;fontSize=10;" vertex="1" parent="1">
          <mxGeometry x="1334.5" y="2553" width="60" height="40" as="geometry" />
        </mxCell>
        <mxCell id="GgBvC1RKiGsKNYA5bMCQ-28" value="Dashboard&lt;br&gt;Manager" style="text;html=1;align=center;verticalAlign=middle;resizable=0;points=[];autosize=1;strokeColor=none;fillColor=none;fontSize=10;" vertex="1" parent="1">
          <mxGeometry x="1450" y="2513" width="70" height="40" as="geometry" />
        </mxCell>
        <mxCell id="GgBvC1RKiGsKNYA5bMCQ-29" style="edgeStyle=orthogonalEdgeStyle;rounded=0;orthogonalLoop=1;jettySize=auto;html=1;exitX=1;exitY=0.5;exitDx=0;exitDy=0;entryX=0;entryY=0;entryDx=0;entryDy=15;entryPerimeter=0;dashed=1;endArrow=open;endFill=0;" edge="1" parent="1" source="GgBvC1RKiGsKNYA5bMCQ-26" target="NZPOO2AaPndxCj0YNW-u-57">
          <mxGeometry relative="1" as="geometry">
            <Array as="points">
              <mxPoint x="1603.5" y="2550" />
              <mxPoint x="1603.5" y="2480" />
            </Array>
          </mxGeometry>
        </mxCell>
        <mxCell id="GgBvC1RKiGsKNYA5bMCQ-30" style="edgeStyle=orthogonalEdgeStyle;rounded=0;orthogonalLoop=1;jettySize=auto;html=1;exitX=1;exitY=0.5;exitDx=0;exitDy=0;entryX=0;entryY=0;entryDx=0;entryDy=15;entryPerimeter=0;dashed=1;endArrow=open;endFill=0;" edge="1" parent="1" source="GgBvC1RKiGsKNYA5bMCQ-26" target="NZPOO2AaPndxCj0YNW-u-179">
          <mxGeometry relative="1" as="geometry">
            <Array as="points">
              <mxPoint x="1603.5" y="2550" />
              <mxPoint x="1603.5" y="2580" />
            </Array>
          </mxGeometry>
        </mxCell>
        <mxCell id="GgBvC1RKiGsKNYA5bMCQ-31" value="" style="rounded=0;whiteSpace=wrap;html=1;" vertex="1" parent="1">
          <mxGeometry x="1969.5" y="2580" width="20" height="20" as="geometry" />
        </mxCell>
        <mxCell id="GgBvC1RKiGsKNYA5bMCQ-32" value="" style="shape=requiredInterface;html=1;verticalLabelPosition=bottom;sketch=0;direction=west;" vertex="1" parent="1">
          <mxGeometry x="2114.5" y="2580" width="10" height="20" as="geometry" />
        </mxCell>
        <mxCell id="GgBvC1RKiGsKNYA5bMCQ-33" value="Model &lt;br&gt;Interface" style="text;html=1;align=center;verticalAlign=middle;resizable=0;points=[];autosize=1;strokeColor=none;fillColor=none;fontSize=10;" vertex="1" parent="1">
          <mxGeometry x="2094.5" y="2546" width="60" height="40" as="geometry" />
        </mxCell>
        <mxCell id="GgBvC1RKiGsKNYA5bMCQ-34" style="edgeStyle=orthogonalEdgeStyle;rounded=0;orthogonalLoop=1;jettySize=auto;html=1;exitX=1;exitY=0.5;exitDx=0;exitDy=0;entryX=1;entryY=0.5;entryDx=0;entryDy=0;entryPerimeter=0;endArrow=none;endFill=0;" edge="1" parent="1" source="GgBvC1RKiGsKNYA5bMCQ-31" target="GgBvC1RKiGsKNYA5bMCQ-32">
          <mxGeometry relative="1" as="geometry" />
        </mxCell>
        <mxCell id="GgBvC1RKiGsKNYA5bMCQ-35" value="Model" style="text;html=1;align=center;verticalAlign=middle;resizable=0;points=[];autosize=1;strokeColor=none;fillColor=none;fontSize=10;" vertex="1" parent="1">
          <mxGeometry x="1972.5" y="2556" width="50" height="30" as="geometry" />
        </mxCell>
        <mxCell id="GgBvC1RKiGsKNYA5bMCQ-38" style="edgeStyle=orthogonalEdgeStyle;rounded=0;orthogonalLoop=1;jettySize=auto;html=1;exitX=1;exitY=0.5;exitDx=0;exitDy=0;entryX=0;entryY=0.5;entryDx=0;entryDy=0;endArrow=none;endFill=0;" edge="1" parent="1" source="GgBvC1RKiGsKNYA5bMCQ-39" target="GgBvC1RKiGsKNYA5bMCQ-40">
          <mxGeometry relative="1" as="geometry" />
        </mxCell>
        <mxCell id="GgBvC1RKiGsKNYA5bMCQ-39" value="" style="ellipse;whiteSpace=wrap;html=1;aspect=fixed;" vertex="1" parent="1">
          <mxGeometry x="1355" y="2870" width="20" height="20" as="geometry" />
        </mxCell>
        <mxCell id="GgBvC1RKiGsKNYA5bMCQ-40" value="" style="rounded=0;whiteSpace=wrap;html=1;" vertex="1" parent="1">
          <mxGeometry x="1511" y="2870" width="20" height="20" as="geometry" />
        </mxCell>
        <mxCell id="GgBvC1RKiGsKNYA5bMCQ-41" value="Complaints&lt;br&gt;&lt;div&gt;Interface&lt;/div&gt;" style="text;html=1;align=center;verticalAlign=middle;resizable=0;points=[];autosize=1;strokeColor=none;fillColor=none;fontSize=10;" vertex="1" parent="1">
          <mxGeometry x="1330" y="2883" width="70" height="40" as="geometry" />
        </mxCell>
        <mxCell id="GgBvC1RKiGsKNYA5bMCQ-42" value="Dashboard&lt;br&gt;Manager" style="text;html=1;align=center;verticalAlign=middle;resizable=0;points=[];autosize=1;strokeColor=none;fillColor=none;fontSize=10;" vertex="1" parent="1">
          <mxGeometry x="1450.5" y="2843" width="70" height="40" as="geometry" />
        </mxCell>
        <mxCell id="GgBvC1RKiGsKNYA5bMCQ-43" style="edgeStyle=orthogonalEdgeStyle;rounded=0;orthogonalLoop=1;jettySize=auto;html=1;exitX=1;exitY=0.5;exitDx=0;exitDy=0;entryX=0;entryY=0;entryDx=0;entryDy=15;entryPerimeter=0;endArrow=open;endFill=0;dashed=1;" edge="1" parent="1" source="GgBvC1RKiGsKNYA5bMCQ-40" target="NZPOO2AaPndxCj0YNW-u-180">
          <mxGeometry relative="1" as="geometry" />
        </mxCell>
        <mxCell id="GgBvC1RKiGsKNYA5bMCQ-44" style="edgeStyle=orthogonalEdgeStyle;rounded=0;orthogonalLoop=1;jettySize=auto;html=1;exitX=1;exitY=0.5;exitDx=0;exitDy=0;entryX=0;entryY=0;entryDx=0;entryDy=15;entryPerimeter=0;endArrow=open;endFill=0;dashed=1;" edge="1" parent="1" source="GgBvC1RKiGsKNYA5bMCQ-40" target="NZPOO2AaPndxCj0YNW-u-181">
          <mxGeometry relative="1" as="geometry" />
        </mxCell>
        <mxCell id="GgBvC1RKiGsKNYA5bMCQ-45" value="" style="rounded=0;whiteSpace=wrap;html=1;" vertex="1" parent="1">
          <mxGeometry x="1971" y="2910" width="20" height="20" as="geometry" />
        </mxCell>
        <mxCell id="GgBvC1RKiGsKNYA5bMCQ-46" value="" style="shape=requiredInterface;html=1;verticalLabelPosition=bottom;sketch=0;direction=west;" vertex="1" parent="1">
          <mxGeometry x="2116" y="2910" width="10" height="20" as="geometry" />
        </mxCell>
        <mxCell id="GgBvC1RKiGsKNYA5bMCQ-47" value="Model &lt;br&gt;Interface" style="text;html=1;align=center;verticalAlign=middle;resizable=0;points=[];autosize=1;strokeColor=none;fillColor=none;fontSize=10;" vertex="1" parent="1">
          <mxGeometry x="2096" y="2876" width="60" height="40" as="geometry" />
        </mxCell>
        <mxCell id="GgBvC1RKiGsKNYA5bMCQ-48" style="edgeStyle=orthogonalEdgeStyle;rounded=0;orthogonalLoop=1;jettySize=auto;html=1;exitX=1;exitY=0.5;exitDx=0;exitDy=0;entryX=1;entryY=0.5;entryDx=0;entryDy=0;entryPerimeter=0;endArrow=none;endFill=0;" edge="1" parent="1" source="GgBvC1RKiGsKNYA5bMCQ-45" target="GgBvC1RKiGsKNYA5bMCQ-46">
          <mxGeometry relative="1" as="geometry" />
        </mxCell>
        <mxCell id="GgBvC1RKiGsKNYA5bMCQ-49" value="Model" style="text;html=1;align=center;verticalAlign=middle;resizable=0;points=[];autosize=1;strokeColor=none;fillColor=none;fontSize=10;" vertex="1" parent="1">
          <mxGeometry x="1974" y="2886" width="50" height="30" as="geometry" />
        </mxCell>
        <mxCell id="GgBvC1RKiGsKNYA5bMCQ-50" value="" style="rounded=0;whiteSpace=wrap;html=1;" vertex="1" parent="1">
          <mxGeometry x="1971" y="2803" width="20" height="20" as="geometry" />
        </mxCell>
        <mxCell id="GgBvC1RKiGsKNYA5bMCQ-51" value="Notification&lt;br&gt;Manager" style="text;html=1;align=center;verticalAlign=middle;resizable=0;points=[];autosize=1;strokeColor=none;fillColor=none;fontSize=10;" vertex="1" parent="1">
          <mxGeometry x="1975" y="2770" width="70" height="40" as="geometry" />
        </mxCell>
        <mxCell id="GgBvC1RKiGsKNYA5bMCQ-57" style="edgeStyle=orthogonalEdgeStyle;rounded=0;orthogonalLoop=1;jettySize=auto;html=1;exitX=1;exitY=0.5;exitDx=0;exitDy=0;exitPerimeter=0;entryX=1;entryY=0.5;entryDx=0;entryDy=0;endArrow=none;endFill=0;strokeColor=#009900;" edge="1" parent="1" source="GgBvC1RKiGsKNYA5bMCQ-52" target="GgBvC1RKiGsKNYA5bMCQ-50">
          <mxGeometry relative="1" as="geometry" />
        </mxCell>
        <mxCell id="GgBvC1RKiGsKNYA5bMCQ-52" value="" style="shape=requiredInterface;html=1;verticalLabelPosition=bottom;sketch=0;direction=west;strokeColor=#009900;" vertex="1" parent="1">
          <mxGeometry x="2125" y="2803" width="10" height="20" as="geometry" />
        </mxCell>
        <mxCell id="GgBvC1RKiGsKNYA5bMCQ-54" value="ComplNotif&lt;br&gt;Interface" style="text;html=1;align=center;verticalAlign=middle;resizable=0;points=[];autosize=1;strokeColor=none;fillColor=none;fontSize=10;" vertex="1" parent="1">
          <mxGeometry x="2090" y="2769" width="70" height="40" as="geometry" />
        </mxCell>
        <mxCell id="GgBvC1RKiGsKNYA5bMCQ-62" style="edgeStyle=orthogonalEdgeStyle;rounded=0;orthogonalLoop=1;jettySize=auto;html=1;exitX=1;exitY=0.5;exitDx=0;exitDy=0;entryX=0;entryY=0;entryDx=0;entryDy=15;entryPerimeter=0;endArrow=open;endFill=0;dashed=1;" edge="1" parent="1" source="NZPOO2AaPndxCj0YNW-u-171" target="NZPOO2AaPndxCj0YNW-u-182">
          <mxGeometry relative="1" as="geometry" />
        </mxCell>
        <mxCell id="GgBvC1RKiGsKNYA5bMCQ-65" style="edgeStyle=orthogonalEdgeStyle;rounded=0;orthogonalLoop=1;jettySize=auto;html=1;exitX=0.25;exitY=1;exitDx=0;exitDy=0;entryX=1;entryY=0.5;entryDx=0;entryDy=0;entryPerimeter=0;endArrow=none;endFill=0;" edge="1" parent="1" source="NZPOO2AaPndxCj0YNW-u-71" target="NZPOO2AaPndxCj0YNW-u-155">
          <mxGeometry relative="1" as="geometry" />
        </mxCell>
        <mxCell id="ZUP5mVisEBhJ9q9MdFCj-5" style="edgeStyle=orthogonalEdgeStyle;rounded=0;orthogonalLoop=1;jettySize=auto;html=1;exitX=1;exitY=0.25;exitDx=0;exitDy=0;entryX=0;entryY=0.5;entryDx=0;entryDy=0;endArrow=open;endFill=0;dashed=1;strokeColor=#999900;" edge="1" parent="1" source="GgBvC1RKiGsKNYA5bMCQ-66" target="GgBvC1RKiGsKNYA5bMCQ-83">
          <mxGeometry relative="1" as="geometry" />
        </mxCell>
        <mxCell id="ZUP5mVisEBhJ9q9MdFCj-11" style="edgeStyle=orthogonalEdgeStyle;rounded=0;orthogonalLoop=1;jettySize=auto;html=1;exitX=1;exitY=0.75;exitDx=0;exitDy=0;entryX=0;entryY=0.5;entryDx=0;entryDy=0;endArrow=open;endFill=0;dashed=1;" edge="1" parent="1" source="GgBvC1RKiGsKNYA5bMCQ-66" target="GgBvC1RKiGsKNYA5bMCQ-75">
          <mxGeometry relative="1" as="geometry">
            <Array as="points">
              <mxPoint x="1860" y="3228" />
              <mxPoint x="1860" y="3355" />
            </Array>
          </mxGeometry>
        </mxCell>
        <mxCell id="GgBvC1RKiGsKNYA5bMCQ-66" value="Create&lt;br&gt;Task" style="shape=module;align=left;spacingLeft=20;align=center;verticalAlign=top;whiteSpace=wrap;html=1;" vertex="1" parent="1">
          <mxGeometry x="1696.5" y="3190" width="100" height="50" as="geometry" />
        </mxCell>
        <mxCell id="ZUP5mVisEBhJ9q9MdFCj-6" style="edgeStyle=orthogonalEdgeStyle;rounded=0;orthogonalLoop=1;jettySize=auto;html=1;exitX=1;exitY=0.25;exitDx=0;exitDy=0;entryX=0;entryY=0.5;entryDx=0;entryDy=0;endArrow=open;endFill=0;dashed=1;strokeColor=#999900;" edge="1" parent="1" source="GgBvC1RKiGsKNYA5bMCQ-67" target="GgBvC1RKiGsKNYA5bMCQ-83">
          <mxGeometry relative="1" as="geometry">
            <Array as="points">
              <mxPoint x="1900" y="3272" />
              <mxPoint x="1900" y="3203" />
            </Array>
          </mxGeometry>
        </mxCell>
        <mxCell id="ZUP5mVisEBhJ9q9MdFCj-10" style="edgeStyle=orthogonalEdgeStyle;rounded=0;orthogonalLoop=1;jettySize=auto;html=1;exitX=1;exitY=0.75;exitDx=0;exitDy=0;entryX=0;entryY=0.5;entryDx=0;entryDy=0;endArrow=open;endFill=0;dashed=1;" edge="1" parent="1" source="GgBvC1RKiGsKNYA5bMCQ-67" target="GgBvC1RKiGsKNYA5bMCQ-75">
          <mxGeometry relative="1" as="geometry">
            <Array as="points">
              <mxPoint x="1860" y="3298" />
              <mxPoint x="1860" y="3355" />
            </Array>
          </mxGeometry>
        </mxCell>
        <mxCell id="GgBvC1RKiGsKNYA5bMCQ-67" value="Select&lt;br&gt;Candidates" style="shape=module;align=left;spacingLeft=20;align=center;verticalAlign=top;whiteSpace=wrap;html=1;" vertex="1" parent="1">
          <mxGeometry x="1696.5" y="3260" width="100" height="50" as="geometry" />
        </mxCell>
        <mxCell id="GgBvC1RKiGsKNYA5bMCQ-68" style="edgeStyle=orthogonalEdgeStyle;rounded=0;orthogonalLoop=1;jettySize=auto;html=1;exitX=1;exitY=0.5;exitDx=0;exitDy=0;entryX=0;entryY=0.5;entryDx=0;entryDy=0;endArrow=none;endFill=0;" edge="1" parent="1" source="GgBvC1RKiGsKNYA5bMCQ-69" target="GgBvC1RKiGsKNYA5bMCQ-70">
          <mxGeometry relative="1" as="geometry" />
        </mxCell>
        <mxCell id="GgBvC1RKiGsKNYA5bMCQ-69" value="" style="ellipse;whiteSpace=wrap;html=1;aspect=fixed;" vertex="1" parent="1">
          <mxGeometry x="1355" y="3230" width="20" height="20" as="geometry" />
        </mxCell>
        <mxCell id="GgBvC1RKiGsKNYA5bMCQ-70" value="" style="rounded=0;whiteSpace=wrap;html=1;" vertex="1" parent="1">
          <mxGeometry x="1510" y="3230" width="20" height="20" as="geometry" />
        </mxCell>
        <mxCell id="GgBvC1RKiGsKNYA5bMCQ-71" value="Application&lt;br&gt;&lt;div&gt;Interface&lt;/div&gt;" style="text;html=1;align=center;verticalAlign=middle;resizable=0;points=[];autosize=1;strokeColor=none;fillColor=none;fontSize=10;" vertex="1" parent="1">
          <mxGeometry x="1330" y="3243" width="70" height="40" as="geometry" />
        </mxCell>
        <mxCell id="GgBvC1RKiGsKNYA5bMCQ-72" value="Dashboard&lt;br&gt;Manager" style="text;html=1;align=center;verticalAlign=middle;resizable=0;points=[];autosize=1;strokeColor=none;fillColor=none;fontSize=10;" vertex="1" parent="1">
          <mxGeometry x="1450.5" y="3203" width="70" height="40" as="geometry" />
        </mxCell>
        <mxCell id="GgBvC1RKiGsKNYA5bMCQ-73" style="edgeStyle=orthogonalEdgeStyle;rounded=0;orthogonalLoop=1;jettySize=auto;html=1;exitX=1;exitY=0.5;exitDx=0;exitDy=0;entryX=0;entryY=0;entryDx=0;entryDy=15;entryPerimeter=0;endArrow=open;endFill=0;dashed=1;" edge="1" parent="1" source="GgBvC1RKiGsKNYA5bMCQ-70" target="GgBvC1RKiGsKNYA5bMCQ-66">
          <mxGeometry relative="1" as="geometry" />
        </mxCell>
        <mxCell id="GgBvC1RKiGsKNYA5bMCQ-74" style="edgeStyle=orthogonalEdgeStyle;rounded=0;orthogonalLoop=1;jettySize=auto;html=1;exitX=1;exitY=0.5;exitDx=0;exitDy=0;entryX=0;entryY=0;entryDx=0;entryDy=15;entryPerimeter=0;endArrow=open;endFill=0;dashed=1;" edge="1" parent="1" source="GgBvC1RKiGsKNYA5bMCQ-70" target="GgBvC1RKiGsKNYA5bMCQ-67">
          <mxGeometry relative="1" as="geometry" />
        </mxCell>
        <mxCell id="GgBvC1RKiGsKNYA5bMCQ-75" value="" style="rounded=0;whiteSpace=wrap;html=1;" vertex="1" parent="1">
          <mxGeometry x="1971" y="3345" width="20" height="20" as="geometry" />
        </mxCell>
        <mxCell id="GgBvC1RKiGsKNYA5bMCQ-76" value="" style="shape=requiredInterface;html=1;verticalLabelPosition=bottom;sketch=0;direction=west;" vertex="1" parent="1">
          <mxGeometry x="2116" y="3345" width="10" height="20" as="geometry" />
        </mxCell>
        <mxCell id="GgBvC1RKiGsKNYA5bMCQ-77" value="Model &lt;br&gt;Interface" style="text;html=1;align=center;verticalAlign=middle;resizable=0;points=[];autosize=1;strokeColor=none;fillColor=none;fontSize=10;" vertex="1" parent="1">
          <mxGeometry x="2096" y="3311" width="60" height="40" as="geometry" />
        </mxCell>
        <mxCell id="GgBvC1RKiGsKNYA5bMCQ-78" style="edgeStyle=orthogonalEdgeStyle;rounded=0;orthogonalLoop=1;jettySize=auto;html=1;exitX=1;exitY=0.5;exitDx=0;exitDy=0;entryX=1;entryY=0.5;entryDx=0;entryDy=0;entryPerimeter=0;endArrow=none;endFill=0;" edge="1" parent="1" source="GgBvC1RKiGsKNYA5bMCQ-75" target="GgBvC1RKiGsKNYA5bMCQ-76">
          <mxGeometry relative="1" as="geometry" />
        </mxCell>
        <mxCell id="GgBvC1RKiGsKNYA5bMCQ-79" value="Model" style="text;html=1;align=center;verticalAlign=middle;resizable=0;points=[];autosize=1;strokeColor=none;fillColor=none;fontSize=10;" vertex="1" parent="1">
          <mxGeometry x="1974" y="3321" width="50" height="30" as="geometry" />
        </mxCell>
        <mxCell id="GgBvC1RKiGsKNYA5bMCQ-83" value="" style="rounded=0;whiteSpace=wrap;html=1;" vertex="1" parent="1">
          <mxGeometry x="1970.5" y="3193" width="20" height="20" as="geometry" />
        </mxCell>
        <mxCell id="GgBvC1RKiGsKNYA5bMCQ-84" value="Notification&lt;br&gt;Manager" style="text;html=1;align=center;verticalAlign=middle;resizable=0;points=[];autosize=1;strokeColor=none;fillColor=none;fontSize=10;" vertex="1" parent="1">
          <mxGeometry x="1974.5" y="3160" width="70" height="40" as="geometry" />
        </mxCell>
        <mxCell id="GgBvC1RKiGsKNYA5bMCQ-85" style="edgeStyle=orthogonalEdgeStyle;rounded=0;orthogonalLoop=1;jettySize=auto;html=1;exitX=1;exitY=0.5;exitDx=0;exitDy=0;exitPerimeter=0;entryX=1;entryY=0.5;entryDx=0;entryDy=0;endArrow=none;endFill=0;strokeColor=#999900;" edge="1" parent="1" source="GgBvC1RKiGsKNYA5bMCQ-86" target="GgBvC1RKiGsKNYA5bMCQ-83">
          <mxGeometry relative="1" as="geometry" />
        </mxCell>
        <mxCell id="GgBvC1RKiGsKNYA5bMCQ-86" value="" style="shape=requiredInterface;html=1;verticalLabelPosition=bottom;sketch=0;direction=west;strokeColor=#999900;" vertex="1" parent="1">
          <mxGeometry x="2124.5" y="3193" width="10" height="20" as="geometry" />
        </mxCell>
        <mxCell id="GgBvC1RKiGsKNYA5bMCQ-87" value="ApplicNotif&lt;br&gt;Interface" style="text;html=1;align=center;verticalAlign=middle;resizable=0;points=[];autosize=1;strokeColor=none;fillColor=none;fontSize=10;" vertex="1" parent="1">
          <mxGeometry x="2089.5" y="3159" width="70" height="40" as="geometry" />
        </mxCell>
        <mxCell id="GgBvC1RKiGsKNYA5bMCQ-89" value="" style="rounded=0;whiteSpace=wrap;html=1;" vertex="1" parent="1">
          <mxGeometry x="805" y="2670" width="20" height="20" as="geometry" />
        </mxCell>
        <mxCell id="GgBvC1RKiGsKNYA5bMCQ-90" value="" style="shape=requiredInterface;html=1;verticalLabelPosition=bottom;sketch=0;direction=west;strokeColor=#CC6600;" vertex="1" parent="1">
          <mxGeometry x="950" y="2670" width="10" height="20" as="geometry" />
        </mxCell>
        <mxCell id="GgBvC1RKiGsKNYA5bMCQ-91" value="View Internship&lt;br&gt;Interface" style="text;html=1;align=center;verticalAlign=middle;resizable=0;points=[];autosize=1;strokeColor=none;fillColor=none;fontSize=10;" vertex="1" parent="1">
          <mxGeometry x="915" y="2630" width="90" height="40" as="geometry" />
        </mxCell>
        <mxCell id="GgBvC1RKiGsKNYA5bMCQ-92" style="edgeStyle=orthogonalEdgeStyle;rounded=0;orthogonalLoop=1;jettySize=auto;html=1;exitX=1;exitY=0.5;exitDx=0;exitDy=0;entryX=1;entryY=0.5;entryDx=0;entryDy=0;entryPerimeter=0;endArrow=none;endFill=0;strokeColor=#CC6600;" edge="1" parent="1" source="GgBvC1RKiGsKNYA5bMCQ-89" target="GgBvC1RKiGsKNYA5bMCQ-90">
          <mxGeometry relative="1" as="geometry" />
        </mxCell>
        <mxCell id="GgBvC1RKiGsKNYA5bMCQ-93" value="Internship&lt;br&gt;Manager" style="text;html=1;align=center;verticalAlign=middle;resizable=0;points=[];autosize=1;strokeColor=none;fillColor=none;fontSize=10;" vertex="1" parent="1">
          <mxGeometry x="810" y="2635" width="70" height="40" as="geometry" />
        </mxCell>
        <mxCell id="3NsXeynN_iSDdy9cyZgB-9" style="edgeStyle=orthogonalEdgeStyle;rounded=0;orthogonalLoop=1;jettySize=auto;html=1;exitX=1;exitY=0.5;exitDx=0;exitDy=0;entryX=0;entryY=0.5;entryDx=0;entryDy=0;dashed=1;strokeColor=#00CCCC;endArrow=open;endFill=0;" edge="1" parent="1" source="GgBvC1RKiGsKNYA5bMCQ-100" target="GgBvC1RKiGsKNYA5bMCQ-110">
          <mxGeometry relative="1" as="geometry" />
        </mxCell>
        <mxCell id="GgBvC1RKiGsKNYA5bMCQ-100" value="View&lt;br&gt;Candidates" style="shape=module;align=left;spacingLeft=20;align=center;verticalAlign=top;whiteSpace=wrap;html=1;" vertex="1" parent="1">
          <mxGeometry x="460" y="3256" width="100" height="50" as="geometry" />
        </mxCell>
        <mxCell id="GgBvC1RKiGsKNYA5bMCQ-110" value="" style="rounded=0;whiteSpace=wrap;html=1;" vertex="1" parent="1">
          <mxGeometry x="805" y="3271.5" width="20" height="20" as="geometry" />
        </mxCell>
        <mxCell id="3NsXeynN_iSDdy9cyZgB-1" value="Profile&lt;br&gt;Manager" style="text;html=1;align=center;verticalAlign=middle;resizable=0;points=[];autosize=1;strokeColor=none;fillColor=none;fontSize=10;" vertex="1" parent="1">
          <mxGeometry x="813" y="3236" width="60" height="40" as="geometry" />
        </mxCell>
        <mxCell id="3NsXeynN_iSDdy9cyZgB-2" value="" style="shape=requiredInterface;html=1;verticalLabelPosition=bottom;sketch=0;direction=west;strokeColor=#00CCCC;" vertex="1" parent="1">
          <mxGeometry x="955" y="3271.5" width="10" height="20" as="geometry" />
        </mxCell>
        <mxCell id="3NsXeynN_iSDdy9cyZgB-4" value="View Profile&lt;br&gt;Interface" style="text;html=1;align=center;verticalAlign=middle;resizable=0;points=[];autosize=1;strokeColor=none;fillColor=none;fontSize=10;" vertex="1" parent="1">
          <mxGeometry x="923" y="3231.5" width="80" height="40" as="geometry" />
        </mxCell>
        <mxCell id="3NsXeynN_iSDdy9cyZgB-7" style="edgeStyle=orthogonalEdgeStyle;rounded=0;orthogonalLoop=1;jettySize=auto;html=1;exitX=1;exitY=0.5;exitDx=0;exitDy=0;entryX=0;entryY=0;entryDx=0;entryDy=15;entryPerimeter=0;endArrow=open;endFill=0;dashed=1;" edge="1" parent="1" source="NZPOO2AaPndxCj0YNW-u-171" target="GgBvC1RKiGsKNYA5bMCQ-100">
          <mxGeometry relative="1" as="geometry" />
        </mxCell>
        <mxCell id="3NsXeynN_iSDdy9cyZgB-8" style="edgeStyle=orthogonalEdgeStyle;rounded=0;orthogonalLoop=1;jettySize=auto;html=1;exitX=1;exitY=0.5;exitDx=0;exitDy=0;entryX=1;entryY=0.5;entryDx=0;entryDy=0;entryPerimeter=0;dashed=1;strokeColor=#00CCCC;endArrow=none;endFill=0;" edge="1" parent="1" source="GgBvC1RKiGsKNYA5bMCQ-110" target="3NsXeynN_iSDdy9cyZgB-2">
          <mxGeometry relative="1" as="geometry">
            <Array as="points">
              <mxPoint x="890" y="3281" />
              <mxPoint x="955" y="3281" />
            </Array>
          </mxGeometry>
        </mxCell>
        <mxCell id="ZUP5mVisEBhJ9q9MdFCj-9" style="edgeStyle=orthogonalEdgeStyle;rounded=0;orthogonalLoop=1;jettySize=auto;html=1;exitX=1;exitY=0.5;exitDx=0;exitDy=0;entryX=0;entryY=0.5;entryDx=0;entryDy=0;endArrow=open;endFill=0;dashed=1;" edge="1" parent="1" source="ZUP5mVisEBhJ9q9MdFCj-3" target="GgBvC1RKiGsKNYA5bMCQ-75">
          <mxGeometry relative="1" as="geometry" />
        </mxCell>
        <mxCell id="ZUP5mVisEBhJ9q9MdFCj-3" value="Complete&lt;br&gt;Tasks" style="shape=module;align=left;spacingLeft=20;align=center;verticalAlign=top;whiteSpace=wrap;html=1;" vertex="1" parent="1">
          <mxGeometry x="1696.5" y="3330" width="100" height="50" as="geometry" />
        </mxCell>
        <mxCell id="ZUP5mVisEBhJ9q9MdFCj-4" style="edgeStyle=orthogonalEdgeStyle;rounded=0;orthogonalLoop=1;jettySize=auto;html=1;exitX=1;exitY=0.5;exitDx=0;exitDy=0;entryX=0;entryY=0;entryDx=0;entryDy=15;entryPerimeter=0;dashed=1;endArrow=open;endFill=0;" edge="1" parent="1" source="GgBvC1RKiGsKNYA5bMCQ-70" target="ZUP5mVisEBhJ9q9MdFCj-3">
          <mxGeometry relative="1" as="geometry" />
        </mxCell>
        <mxCell id="ZUP5mVisEBhJ9q9MdFCj-15" style="edgeStyle=orthogonalEdgeStyle;rounded=0;orthogonalLoop=1;jettySize=auto;html=1;exitX=1;exitY=0.5;exitDx=0;exitDy=0;entryX=0;entryY=0.5;entryDx=0;entryDy=0;" edge="1" parent="1" source="ZUP5mVisEBhJ9q9MdFCj-12" target="ZUP5mVisEBhJ9q9MdFCj-14">
          <mxGeometry relative="1" as="geometry" />
        </mxCell>
        <mxCell id="ZUP5mVisEBhJ9q9MdFCj-16" style="edgeStyle=orthogonalEdgeStyle;rounded=0;orthogonalLoop=1;jettySize=auto;html=1;exitX=1;exitY=0.5;exitDx=0;exitDy=0;entryX=0;entryY=0.5;entryDx=0;entryDy=0;" edge="1" parent="1" source="ZUP5mVisEBhJ9q9MdFCj-12" target="ZUP5mVisEBhJ9q9MdFCj-13">
          <mxGeometry relative="1" as="geometry" />
        </mxCell>
        <mxCell id="ZUP5mVisEBhJ9q9MdFCj-12" value="Landin Page" style="rounded=1;whiteSpace=wrap;html=1;" vertex="1" parent="1">
          <mxGeometry x="2895" y="1797" width="120" height="60" as="geometry" />
        </mxCell>
        <mxCell id="ZUP5mVisEBhJ9q9MdFCj-21" style="edgeStyle=orthogonalEdgeStyle;rounded=0;orthogonalLoop=1;jettySize=auto;html=1;exitX=1;exitY=0.5;exitDx=0;exitDy=0;entryX=0;entryY=0.5;entryDx=0;entryDy=0;" edge="1" parent="1" source="ZUP5mVisEBhJ9q9MdFCj-13" target="ZUP5mVisEBhJ9q9MdFCj-19">
          <mxGeometry relative="1" as="geometry" />
        </mxCell>
        <mxCell id="9ABFi0bIAon4wqoxAbs_-3" style="edgeStyle=orthogonalEdgeStyle;rounded=0;orthogonalLoop=1;jettySize=auto;html=1;exitX=0.25;exitY=1;exitDx=0;exitDy=0;entryX=0.25;entryY=0;entryDx=0;entryDy=0;" edge="1" parent="1" source="ZUP5mVisEBhJ9q9MdFCj-13" target="ZUP5mVisEBhJ9q9MdFCj-14">
          <mxGeometry relative="1" as="geometry" />
        </mxCell>
        <mxCell id="9ABFi0bIAon4wqoxAbs_-15" style="rounded=0;orthogonalLoop=1;jettySize=auto;html=1;exitX=1;exitY=0.5;exitDx=0;exitDy=0;entryX=0;entryY=0.5;entryDx=0;entryDy=0;" edge="1" parent="1" source="ZUP5mVisEBhJ9q9MdFCj-13" target="ZUP5mVisEBhJ9q9MdFCj-20">
          <mxGeometry relative="1" as="geometry" />
        </mxCell>
        <mxCell id="9ABFi0bIAon4wqoxAbs_-16" style="rounded=0;orthogonalLoop=1;jettySize=auto;html=1;exitX=1;exitY=0.5;exitDx=0;exitDy=0;entryX=0;entryY=0.5;entryDx=0;entryDy=0;" edge="1" parent="1" source="ZUP5mVisEBhJ9q9MdFCj-13" target="9ABFi0bIAon4wqoxAbs_-1">
          <mxGeometry relative="1" as="geometry" />
        </mxCell>
        <mxCell id="ZUP5mVisEBhJ9q9MdFCj-13" value="Login Page" style="rounded=1;whiteSpace=wrap;html=1;" vertex="1" parent="1">
          <mxGeometry x="3145" y="1697" width="120" height="60" as="geometry" />
        </mxCell>
        <mxCell id="9ABFi0bIAon4wqoxAbs_-4" style="edgeStyle=orthogonalEdgeStyle;rounded=0;orthogonalLoop=1;jettySize=auto;html=1;exitX=0.75;exitY=0;exitDx=0;exitDy=0;entryX=0.75;entryY=1;entryDx=0;entryDy=0;" edge="1" parent="1" source="ZUP5mVisEBhJ9q9MdFCj-14" target="ZUP5mVisEBhJ9q9MdFCj-13">
          <mxGeometry relative="1" as="geometry" />
        </mxCell>
        <mxCell id="ZUP5mVisEBhJ9q9MdFCj-14" value="Registration Page" style="rounded=1;whiteSpace=wrap;html=1;" vertex="1" parent="1">
          <mxGeometry x="3145" y="1897" width="120" height="60" as="geometry" />
        </mxCell>
        <mxCell id="9ABFi0bIAon4wqoxAbs_-11" style="rounded=0;orthogonalLoop=1;jettySize=auto;html=1;exitX=1;exitY=0.5;exitDx=0;exitDy=0;entryX=0;entryY=0.5;entryDx=0;entryDy=0;endArrow=classicThin;endFill=1;" edge="1" parent="1" source="ZUP5mVisEBhJ9q9MdFCj-19" target="9ABFi0bIAon4wqoxAbs_-7">
          <mxGeometry relative="1" as="geometry" />
        </mxCell>
        <mxCell id="9ABFi0bIAon4wqoxAbs_-23" style="rounded=0;orthogonalLoop=1;jettySize=auto;html=1;exitX=1;exitY=0.5;exitDx=0;exitDy=0;entryX=0;entryY=0.5;entryDx=0;entryDy=0;endArrow=classicThin;endFill=1;" edge="1" parent="1" source="ZUP5mVisEBhJ9q9MdFCj-19" target="9ABFi0bIAon4wqoxAbs_-22">
          <mxGeometry relative="1" as="geometry" />
        </mxCell>
        <mxCell id="9ABFi0bIAon4wqoxAbs_-27" style="rounded=0;orthogonalLoop=1;jettySize=auto;html=1;exitX=1;exitY=0.5;exitDx=0;exitDy=0;entryX=0;entryY=0.5;entryDx=0;entryDy=0;endArrow=classicThin;endFill=1;" edge="1" parent="1" source="ZUP5mVisEBhJ9q9MdFCj-19" target="9ABFi0bIAon4wqoxAbs_-21">
          <mxGeometry relative="1" as="geometry" />
        </mxCell>
        <mxCell id="9ABFi0bIAon4wqoxAbs_-51" style="rounded=0;orthogonalLoop=1;jettySize=auto;html=1;exitX=1;exitY=0.5;exitDx=0;exitDy=0;entryX=0;entryY=0.5;entryDx=0;entryDy=0;" edge="1" parent="1" source="ZUP5mVisEBhJ9q9MdFCj-19" target="9ABFi0bIAon4wqoxAbs_-50">
          <mxGeometry relative="1" as="geometry" />
        </mxCell>
        <mxCell id="ZUP5mVisEBhJ9q9MdFCj-19" value="ST Home Page" style="rounded=1;whiteSpace=wrap;html=1;" vertex="1" parent="1">
          <mxGeometry x="3395" y="1697" width="120" height="60" as="geometry" />
        </mxCell>
        <mxCell id="9ABFi0bIAon4wqoxAbs_-9" style="edgeStyle=orthogonalEdgeStyle;rounded=0;orthogonalLoop=1;jettySize=auto;html=1;exitX=1;exitY=0.5;exitDx=0;exitDy=0;entryX=0;entryY=0.5;entryDx=0;entryDy=0;endArrow=classicThin;endFill=1;" edge="1" parent="1" source="ZUP5mVisEBhJ9q9MdFCj-20" target="9ABFi0bIAon4wqoxAbs_-8">
          <mxGeometry relative="1" as="geometry" />
        </mxCell>
        <mxCell id="9ABFi0bIAon4wqoxAbs_-26" style="rounded=0;orthogonalLoop=1;jettySize=auto;html=1;exitX=1;exitY=0.5;exitDx=0;exitDy=0;entryX=0;entryY=0.5;entryDx=0;entryDy=0;endArrow=classicThin;endFill=1;" edge="1" parent="1" source="ZUP5mVisEBhJ9q9MdFCj-20" target="9ABFi0bIAon4wqoxAbs_-21">
          <mxGeometry relative="1" as="geometry" />
        </mxCell>
        <mxCell id="9ABFi0bIAon4wqoxAbs_-43" style="rounded=0;orthogonalLoop=1;jettySize=auto;html=1;exitX=1;exitY=0.5;exitDx=0;exitDy=0;entryX=0;entryY=0.75;entryDx=0;entryDy=0;endArrow=classicThin;endFill=1;" edge="1" parent="1" source="ZUP5mVisEBhJ9q9MdFCj-20" target="9ABFi0bIAon4wqoxAbs_-22">
          <mxGeometry relative="1" as="geometry" />
        </mxCell>
        <mxCell id="ZUP5mVisEBhJ9q9MdFCj-20" value="CP Home Page" style="rounded=1;whiteSpace=wrap;html=1;" vertex="1" parent="1">
          <mxGeometry x="3395" y="1957" width="120" height="60" as="geometry" />
        </mxCell>
        <mxCell id="9ABFi0bIAon4wqoxAbs_-48" style="edgeStyle=orthogonalEdgeStyle;rounded=0;orthogonalLoop=1;jettySize=auto;html=1;exitX=1;exitY=0.25;exitDx=0;exitDy=0;entryX=0;entryY=0.25;entryDx=0;entryDy=0;" edge="1" parent="1" source="9ABFi0bIAon4wqoxAbs_-1" target="9ABFi0bIAon4wqoxAbs_-5">
          <mxGeometry relative="1" as="geometry" />
        </mxCell>
        <mxCell id="9ABFi0bIAon4wqoxAbs_-1" value="UV Home Page" style="rounded=1;whiteSpace=wrap;html=1;" vertex="1" parent="1">
          <mxGeometry x="3395" y="1397" width="120" height="60" as="geometry" />
        </mxCell>
        <mxCell id="9ABFi0bIAon4wqoxAbs_-49" style="edgeStyle=orthogonalEdgeStyle;rounded=0;orthogonalLoop=1;jettySize=auto;html=1;exitX=0;exitY=0.75;exitDx=0;exitDy=0;entryX=1;entryY=0.75;entryDx=0;entryDy=0;" edge="1" parent="1" source="9ABFi0bIAon4wqoxAbs_-5" target="9ABFi0bIAon4wqoxAbs_-1">
          <mxGeometry relative="1" as="geometry" />
        </mxCell>
        <mxCell id="9ABFi0bIAon4wqoxAbs_-5" value="Student monitoring&lt;br&gt;Page" style="rounded=1;whiteSpace=wrap;html=1;" vertex="1" parent="1">
          <mxGeometry x="3605" y="1397" width="120" height="60" as="geometry" />
        </mxCell>
        <mxCell id="9ABFi0bIAon4wqoxAbs_-41" style="edgeStyle=orthogonalEdgeStyle;rounded=0;orthogonalLoop=1;jettySize=auto;html=1;exitX=0.25;exitY=1;exitDx=0;exitDy=0;entryX=0.64;entryY=0;entryDx=0;entryDy=0;entryPerimeter=0;" edge="1" parent="1" source="9ABFi0bIAon4wqoxAbs_-7" target="ZUP5mVisEBhJ9q9MdFCj-19">
          <mxGeometry relative="1" as="geometry">
            <Array as="points">
              <mxPoint x="3635" y="1670" />
              <mxPoint x="3472" y="1670" />
              <mxPoint x="3472" y="1697" />
            </Array>
          </mxGeometry>
        </mxCell>
        <mxCell id="9ABFi0bIAon4wqoxAbs_-7" value="Update Profile&amp;nbsp;&lt;div&gt;Page&amp;nbsp;&lt;/div&gt;" style="rounded=1;whiteSpace=wrap;html=1;" vertex="1" parent="1">
          <mxGeometry x="3605" y="1597" width="120" height="60" as="geometry" />
        </mxCell>
        <mxCell id="9ABFi0bIAon4wqoxAbs_-36" style="edgeStyle=orthogonalEdgeStyle;rounded=0;orthogonalLoop=1;jettySize=auto;html=1;exitX=0;exitY=0.75;exitDx=0;exitDy=0;entryX=1;entryY=0.75;entryDx=0;entryDy=0;" edge="1" parent="1" source="9ABFi0bIAon4wqoxAbs_-8" target="ZUP5mVisEBhJ9q9MdFCj-20">
          <mxGeometry relative="1" as="geometry" />
        </mxCell>
        <mxCell id="9ABFi0bIAon4wqoxAbs_-8" value="Create internship&lt;br&gt;Page" style="rounded=1;whiteSpace=wrap;html=1;" vertex="1" parent="1">
          <mxGeometry x="3605" y="1957" width="120" height="60" as="geometry" />
        </mxCell>
        <mxCell id="9ABFi0bIAon4wqoxAbs_-30" style="edgeStyle=orthogonalEdgeStyle;rounded=0;orthogonalLoop=1;jettySize=auto;html=1;exitX=1;exitY=0.5;exitDx=0;exitDy=0;entryX=0;entryY=0.5;entryDx=0;entryDy=0;" edge="1" parent="1" source="9ABFi0bIAon4wqoxAbs_-21" target="9ABFi0bIAon4wqoxAbs_-29">
          <mxGeometry relative="1" as="geometry" />
        </mxCell>
        <mxCell id="9ABFi0bIAon4wqoxAbs_-32" style="edgeStyle=orthogonalEdgeStyle;rounded=0;orthogonalLoop=1;jettySize=auto;html=1;exitX=1;exitY=0.5;exitDx=0;exitDy=0;entryX=0;entryY=0.5;entryDx=0;entryDy=0;" edge="1" parent="1" source="9ABFi0bIAon4wqoxAbs_-21" target="9ABFi0bIAon4wqoxAbs_-31">
          <mxGeometry relative="1" as="geometry" />
        </mxCell>
        <mxCell id="9ABFi0bIAon4wqoxAbs_-33" style="edgeStyle=orthogonalEdgeStyle;rounded=0;orthogonalLoop=1;jettySize=auto;html=1;exitX=0.5;exitY=1;exitDx=0;exitDy=0;entryX=0.5;entryY=0;entryDx=0;entryDy=0;" edge="1" parent="1" source="9ABFi0bIAon4wqoxAbs_-21" target="ZUP5mVisEBhJ9q9MdFCj-20">
          <mxGeometry relative="1" as="geometry" />
        </mxCell>
        <mxCell id="9ABFi0bIAon4wqoxAbs_-34" style="edgeStyle=orthogonalEdgeStyle;rounded=0;orthogonalLoop=1;jettySize=auto;html=1;exitX=0.5;exitY=0;exitDx=0;exitDy=0;entryX=0.5;entryY=1;entryDx=0;entryDy=0;" edge="1" parent="1" source="9ABFi0bIAon4wqoxAbs_-21" target="ZUP5mVisEBhJ9q9MdFCj-19">
          <mxGeometry relative="1" as="geometry" />
        </mxCell>
        <mxCell id="9ABFi0bIAon4wqoxAbs_-21" value="View Internship&lt;br&gt;Page" style="rounded=1;whiteSpace=wrap;html=1;" vertex="1" parent="1">
          <mxGeometry x="3605" y="1827" width="120" height="60" as="geometry" />
        </mxCell>
        <mxCell id="9ABFi0bIAon4wqoxAbs_-42" style="edgeStyle=orthogonalEdgeStyle;rounded=0;orthogonalLoop=1;jettySize=auto;html=1;exitX=0.25;exitY=0;exitDx=0;exitDy=0;entryX=0.75;entryY=0;entryDx=0;entryDy=0;" edge="1" parent="1" source="9ABFi0bIAon4wqoxAbs_-22" target="ZUP5mVisEBhJ9q9MdFCj-19">
          <mxGeometry relative="1" as="geometry" />
        </mxCell>
        <mxCell id="9ABFi0bIAon4wqoxAbs_-44" style="edgeStyle=orthogonalEdgeStyle;rounded=0;orthogonalLoop=1;jettySize=auto;html=1;exitX=1;exitY=0.5;exitDx=0;exitDy=0;entryX=0.75;entryY=1;entryDx=0;entryDy=0;" edge="1" parent="1" source="9ABFi0bIAon4wqoxAbs_-22" target="ZUP5mVisEBhJ9q9MdFCj-20">
          <mxGeometry relative="1" as="geometry" />
        </mxCell>
        <mxCell id="9ABFi0bIAon4wqoxAbs_-22" value="View Profile&lt;br&gt;Page" style="rounded=1;whiteSpace=wrap;html=1;" vertex="1" parent="1">
          <mxGeometry x="3605" y="1697" width="120" height="60" as="geometry" />
        </mxCell>
        <mxCell id="9ABFi0bIAon4wqoxAbs_-37" style="edgeStyle=orthogonalEdgeStyle;rounded=0;orthogonalLoop=1;jettySize=auto;html=1;exitX=0.5;exitY=1;exitDx=0;exitDy=0;entryX=0.5;entryY=1;entryDx=0;entryDy=0;" edge="1" parent="1" source="9ABFi0bIAon4wqoxAbs_-29" target="ZUP5mVisEBhJ9q9MdFCj-20">
          <mxGeometry relative="1" as="geometry">
            <Array as="points">
              <mxPoint x="3905" y="2060" />
              <mxPoint x="3455" y="2060" />
            </Array>
          </mxGeometry>
        </mxCell>
        <mxCell id="9ABFi0bIAon4wqoxAbs_-45" style="edgeStyle=orthogonalEdgeStyle;rounded=0;orthogonalLoop=1;jettySize=auto;html=1;exitX=1;exitY=0.5;exitDx=0;exitDy=0;" edge="1" parent="1" source="9ABFi0bIAon4wqoxAbs_-29">
          <mxGeometry relative="1" as="geometry">
            <mxPoint x="3410" y="1697" as="targetPoint" />
            <Array as="points">
              <mxPoint x="3985" y="1917" />
              <mxPoint x="3985" y="1470" />
              <mxPoint x="3410" y="1470" />
            </Array>
          </mxGeometry>
        </mxCell>
        <mxCell id="9ABFi0bIAon4wqoxAbs_-29" value="Create Complaint&lt;br&gt;Page" style="rounded=1;whiteSpace=wrap;html=1;" vertex="1" parent="1">
          <mxGeometry x="3845" y="1887" width="120" height="60" as="geometry" />
        </mxCell>
        <mxCell id="9ABFi0bIAon4wqoxAbs_-40" style="edgeStyle=orthogonalEdgeStyle;rounded=0;orthogonalLoop=1;jettySize=auto;html=1;exitX=0.5;exitY=0;exitDx=0;exitDy=0;" edge="1" parent="1" source="9ABFi0bIAon4wqoxAbs_-31">
          <mxGeometry relative="1" as="geometry">
            <mxPoint x="3430" y="1697" as="targetPoint" />
            <Array as="points">
              <mxPoint x="3905" y="1500" />
              <mxPoint x="3430" y="1500" />
            </Array>
          </mxGeometry>
        </mxCell>
        <mxCell id="9ABFi0bIAon4wqoxAbs_-31" value="Create Feedback&lt;br&gt;Page" style="rounded=1;whiteSpace=wrap;html=1;" vertex="1" parent="1">
          <mxGeometry x="3845" y="1767" width="120" height="60" as="geometry" />
        </mxCell>
        <mxCell id="9ABFi0bIAon4wqoxAbs_-52" style="edgeStyle=orthogonalEdgeStyle;rounded=0;orthogonalLoop=1;jettySize=auto;html=1;exitX=0;exitY=0.25;exitDx=0;exitDy=0;entryX=0.5;entryY=0;entryDx=0;entryDy=0;" edge="1" parent="1" source="9ABFi0bIAon4wqoxAbs_-50" target="ZUP5mVisEBhJ9q9MdFCj-19">
          <mxGeometry relative="1" as="geometry">
            <mxPoint x="3500" y="1697" as="targetPoint" />
            <Array as="points">
              <mxPoint x="3455" y="1532" />
            </Array>
          </mxGeometry>
        </mxCell>
        <mxCell id="9ABFi0bIAon4wqoxAbs_-50" value="Application Progress Page" style="rounded=1;whiteSpace=wrap;html=1;" vertex="1" parent="1">
          <mxGeometry x="3605" y="1517" width="120" height="60" as="geometry" />
        </mxCell>
        <mxCell id="kTSSdiGQVbg24mbnHzgC-1" value="View&amp;nbsp;&lt;div&gt;Applications&lt;/div&gt;" style="shape=module;align=left;spacingLeft=20;align=center;verticalAlign=top;whiteSpace=wrap;html=1;" vertex="1" parent="1">
          <mxGeometry x="1696.5" y="3400" width="100" height="50" as="geometry" />
        </mxCell>
        <mxCell id="kTSSdiGQVbg24mbnHzgC-3" style="edgeStyle=orthogonalEdgeStyle;rounded=0;orthogonalLoop=1;jettySize=auto;html=1;exitX=1;exitY=0.5;exitDx=0;exitDy=0;entryX=0;entryY=0;entryDx=0;entryDy=15;entryPerimeter=0;dashed=1;endArrow=open;endFill=0;" edge="1" parent="1" source="GgBvC1RKiGsKNYA5bMCQ-70" target="kTSSdiGQVbg24mbnHzgC-1">
          <mxGeometry relative="1" as="geometry">
            <mxPoint x="1540" y="3250" as="sourcePoint" />
            <mxPoint x="1707" y="3355" as="targetPoint" />
          </mxGeometry>
        </mxCell>
        <mxCell id="kTSSdiGQVbg24mbnHzgC-4" style="edgeStyle=orthogonalEdgeStyle;rounded=0;orthogonalLoop=1;jettySize=auto;html=1;exitX=1;exitY=0.25;exitDx=0;exitDy=0;dashed=1;endArrow=open;endFill=0;entryX=0;entryY=0.5;entryDx=0;entryDy=0;" edge="1" parent="1" source="kTSSdiGQVbg24mbnHzgC-1" target="GgBvC1RKiGsKNYA5bMCQ-75">
          <mxGeometry relative="1" as="geometry">
            <mxPoint x="1550" y="3260" as="sourcePoint" />
            <mxPoint x="1970" y="3360" as="targetPoint" />
            <Array as="points">
              <mxPoint x="1860" y="3413" />
              <mxPoint x="1860" y="3355" />
            </Array>
          </mxGeometry>
        </mxCell>
        <mxCell id="630GsNarH-G8fu0dnIR7-1" style="edgeStyle=orthogonalEdgeStyle;rounded=0;orthogonalLoop=1;jettySize=auto;html=1;exitX=1;exitY=0.5;exitDx=0;exitDy=0;entryX=0;entryY=0.5;entryDx=0;entryDy=0;endArrow=classicThin;endFill=1;" edge="1" parent="1" source="630GsNarH-G8fu0dnIR7-3" target="630GsNarH-G8fu0dnIR7-10">
          <mxGeometry relative="1" as="geometry" />
        </mxCell>
        <mxCell id="630GsNarH-G8fu0dnIR7-2" style="edgeStyle=orthogonalEdgeStyle;rounded=0;orthogonalLoop=1;jettySize=auto;html=1;exitX=1;exitY=0.5;exitDx=0;exitDy=0;entryX=0;entryY=0.5;entryDx=0;entryDy=0;endArrow=classicThin;endFill=1;" edge="1" parent="1" source="630GsNarH-G8fu0dnIR7-3" target="630GsNarH-G8fu0dnIR7-8">
          <mxGeometry relative="1" as="geometry" />
        </mxCell>
        <mxCell id="630GsNarH-G8fu0dnIR7-3" value="Landin Page" style="rounded=1;whiteSpace=wrap;html=1;" vertex="1" parent="1">
          <mxGeometry x="2945" y="2852" width="120" height="60" as="geometry" />
        </mxCell>
        <mxCell id="630GsNarH-G8fu0dnIR7-4" style="edgeStyle=orthogonalEdgeStyle;rounded=0;orthogonalLoop=1;jettySize=auto;html=1;exitX=1;exitY=0.5;exitDx=0;exitDy=0;entryX=0;entryY=0.5;entryDx=0;entryDy=0;endArrow=classicThin;endFill=1;" edge="1" parent="1" source="630GsNarH-G8fu0dnIR7-8" target="630GsNarH-G8fu0dnIR7-15">
          <mxGeometry relative="1" as="geometry" />
        </mxCell>
        <mxCell id="630GsNarH-G8fu0dnIR7-5" style="edgeStyle=orthogonalEdgeStyle;rounded=0;orthogonalLoop=1;jettySize=auto;html=1;exitX=0.25;exitY=1;exitDx=0;exitDy=0;entryX=0.25;entryY=0;entryDx=0;entryDy=0;endArrow=classicThin;endFill=1;" edge="1" parent="1" source="630GsNarH-G8fu0dnIR7-8" target="630GsNarH-G8fu0dnIR7-10">
          <mxGeometry relative="1" as="geometry" />
        </mxCell>
        <mxCell id="630GsNarH-G8fu0dnIR7-6" style="rounded=0;orthogonalLoop=1;jettySize=auto;html=1;exitX=1;exitY=0.5;exitDx=0;exitDy=0;entryX=0;entryY=0.5;entryDx=0;entryDy=0;endArrow=classicThin;endFill=1;" edge="1" parent="1" source="630GsNarH-G8fu0dnIR7-8" target="630GsNarH-G8fu0dnIR7-19">
          <mxGeometry relative="1" as="geometry" />
        </mxCell>
        <mxCell id="630GsNarH-G8fu0dnIR7-7" style="rounded=0;orthogonalLoop=1;jettySize=auto;html=1;exitX=1;exitY=0.5;exitDx=0;exitDy=0;entryX=0;entryY=0.5;entryDx=0;entryDy=0;endArrow=classicThin;endFill=1;" edge="1" parent="1" source="630GsNarH-G8fu0dnIR7-8" target="630GsNarH-G8fu0dnIR7-21">
          <mxGeometry relative="1" as="geometry" />
        </mxCell>
        <mxCell id="630GsNarH-G8fu0dnIR7-8" value="Login Page" style="rounded=1;whiteSpace=wrap;html=1;" vertex="1" parent="1">
          <mxGeometry x="3165" y="2752" width="120" height="60" as="geometry" />
        </mxCell>
        <mxCell id="630GsNarH-G8fu0dnIR7-9" style="edgeStyle=orthogonalEdgeStyle;rounded=0;orthogonalLoop=1;jettySize=auto;html=1;exitX=0.75;exitY=0;exitDx=0;exitDy=0;entryX=0.75;entryY=1;entryDx=0;entryDy=0;endArrow=classicThin;endFill=1;" edge="1" parent="1" source="630GsNarH-G8fu0dnIR7-10" target="630GsNarH-G8fu0dnIR7-8">
          <mxGeometry relative="1" as="geometry" />
        </mxCell>
        <mxCell id="630GsNarH-G8fu0dnIR7-10" value="Registration Page" style="rounded=1;whiteSpace=wrap;html=1;" vertex="1" parent="1">
          <mxGeometry x="3165" y="2952" width="120" height="60" as="geometry" />
        </mxCell>
        <mxCell id="630GsNarH-G8fu0dnIR7-45" style="rounded=0;orthogonalLoop=1;jettySize=auto;html=1;exitX=1;exitY=0.5;exitDx=0;exitDy=0;entryX=0;entryY=0.5;entryDx=0;entryDy=0;endArrow=classicThin;endFill=1;" edge="1" parent="1" source="630GsNarH-G8fu0dnIR7-15" target="630GsNarH-G8fu0dnIR7-42">
          <mxGeometry relative="1" as="geometry" />
        </mxCell>
        <mxCell id="630GsNarH-G8fu0dnIR7-47" style="rounded=0;orthogonalLoop=1;jettySize=auto;html=1;exitX=1;exitY=0.5;exitDx=0;exitDy=0;entryX=0;entryY=0.5;entryDx=0;entryDy=0;endArrow=classicThin;endFill=1;" edge="1" parent="1" source="630GsNarH-G8fu0dnIR7-15" target="630GsNarH-G8fu0dnIR7-35">
          <mxGeometry relative="1" as="geometry" />
        </mxCell>
        <mxCell id="630GsNarH-G8fu0dnIR7-48" style="rounded=0;orthogonalLoop=1;jettySize=auto;html=1;exitX=1;exitY=0.5;exitDx=0;exitDy=0;entryX=0;entryY=0.5;entryDx=0;entryDy=0;endArrow=classicThin;endFill=1;" edge="1" parent="1" source="630GsNarH-G8fu0dnIR7-15" target="630GsNarH-G8fu0dnIR7-32">
          <mxGeometry relative="1" as="geometry" />
        </mxCell>
        <mxCell id="630GsNarH-G8fu0dnIR7-78" style="edgeStyle=orthogonalEdgeStyle;rounded=0;orthogonalLoop=1;jettySize=auto;html=1;exitX=0.5;exitY=0;exitDx=0;exitDy=0;entryX=0.5;entryY=1;entryDx=0;entryDy=0;endArrow=classicThin;endFill=1;" edge="1" parent="1">
          <mxGeometry relative="1" as="geometry">
            <mxPoint x="3435" y="2752" as="sourcePoint" />
            <mxPoint x="3435" y="2662" as="targetPoint" />
          </mxGeometry>
        </mxCell>
        <mxCell id="630GsNarH-G8fu0dnIR7-15" value="ST Home Page" style="rounded=1;whiteSpace=wrap;html=1;" vertex="1" parent="1">
          <mxGeometry x="3395" y="2752" width="120" height="60" as="geometry" />
        </mxCell>
        <mxCell id="630GsNarH-G8fu0dnIR7-49" style="rounded=0;orthogonalLoop=1;jettySize=auto;html=1;exitX=1;exitY=0.5;exitDx=0;exitDy=0;entryX=0;entryY=0.5;entryDx=0;entryDy=0;endArrow=classicThin;endFill=1;" edge="1" parent="1" source="630GsNarH-G8fu0dnIR7-19" target="630GsNarH-G8fu0dnIR7-35">
          <mxGeometry relative="1" as="geometry" />
        </mxCell>
        <mxCell id="630GsNarH-G8fu0dnIR7-50" style="rounded=0;orthogonalLoop=1;jettySize=auto;html=1;exitX=1;exitY=0.5;exitDx=0;exitDy=0;entryX=0;entryY=0.5;entryDx=0;entryDy=0;endArrow=classicThin;endFill=1;" edge="1" parent="1" source="630GsNarH-G8fu0dnIR7-19" target="630GsNarH-G8fu0dnIR7-32">
          <mxGeometry relative="1" as="geometry" />
        </mxCell>
        <mxCell id="630GsNarH-G8fu0dnIR7-73" style="edgeStyle=orthogonalEdgeStyle;rounded=0;orthogonalLoop=1;jettySize=auto;html=1;exitX=0.25;exitY=1;exitDx=0;exitDy=0;entryX=0.25;entryY=0;entryDx=0;entryDy=0;endArrow=classicThin;endFill=1;" edge="1" parent="1">
          <mxGeometry relative="1" as="geometry">
            <mxPoint x="3415" y="2912" as="sourcePoint" />
            <mxPoint x="3415" y="3032" as="targetPoint" />
          </mxGeometry>
        </mxCell>
        <mxCell id="630GsNarH-G8fu0dnIR7-75" style="rounded=0;orthogonalLoop=1;jettySize=auto;html=1;exitX=1;exitY=0.5;exitDx=0;exitDy=0;entryX=0;entryY=0.5;entryDx=0;entryDy=0;endArrow=classicThin;endFill=1;" edge="1" parent="1" source="630GsNarH-G8fu0dnIR7-19" target="630GsNarH-G8fu0dnIR7-42">
          <mxGeometry relative="1" as="geometry" />
        </mxCell>
        <mxCell id="630GsNarH-G8fu0dnIR7-19" value="CP Home Page" style="rounded=1;whiteSpace=wrap;html=1;" vertex="1" parent="1">
          <mxGeometry x="3395" y="2852" width="120" height="60" as="geometry" />
        </mxCell>
        <mxCell id="Cp9t5UB1SWn_GMQuyHKC-2" style="edgeStyle=orthogonalEdgeStyle;rounded=0;orthogonalLoop=1;jettySize=auto;html=1;exitX=1;exitY=0.25;exitDx=0;exitDy=0;entryX=0;entryY=0.25;entryDx=0;entryDy=0;endArrow=classicThin;endFill=1;" edge="1" parent="1" source="630GsNarH-G8fu0dnIR7-21" target="Cp9t5UB1SWn_GMQuyHKC-1">
          <mxGeometry relative="1" as="geometry" />
        </mxCell>
        <mxCell id="Cp9t5UB1SWn_GMQuyHKC-4" style="edgeStyle=orthogonalEdgeStyle;rounded=0;orthogonalLoop=1;jettySize=auto;html=1;exitX=1;exitY=0.75;exitDx=0;exitDy=0;entryX=0.5;entryY=0;entryDx=0;entryDy=0;endArrow=classicThin;endFill=1;" edge="1" parent="1" source="630GsNarH-G8fu0dnIR7-21" target="630GsNarH-G8fu0dnIR7-42">
          <mxGeometry relative="1" as="geometry">
            <Array as="points">
              <mxPoint x="3620" y="2527" />
              <mxPoint x="3620" y="2610" />
              <mxPoint x="3700" y="2610" />
            </Array>
          </mxGeometry>
        </mxCell>
        <mxCell id="630GsNarH-G8fu0dnIR7-21" value="UV Home Page" style="rounded=1;whiteSpace=wrap;html=1;" vertex="1" parent="1">
          <mxGeometry x="3395" y="2482" width="120" height="60" as="geometry" />
        </mxCell>
        <mxCell id="630GsNarH-G8fu0dnIR7-77" style="edgeStyle=orthogonalEdgeStyle;rounded=0;orthogonalLoop=1;jettySize=auto;html=1;exitX=0.25;exitY=1;exitDx=0;exitDy=0;entryX=0.25;entryY=0;entryDx=0;entryDy=0;endArrow=classicThin;endFill=1;" edge="1" parent="1">
          <mxGeometry relative="1" as="geometry">
            <mxPoint x="3415" y="2662" as="sourcePoint" />
            <mxPoint x="3415" y="2752" as="targetPoint" />
          </mxGeometry>
        </mxCell>
        <mxCell id="630GsNarH-G8fu0dnIR7-25" value="Update Profile&amp;nbsp;&lt;div&gt;Page&amp;nbsp;&lt;/div&gt;" style="rounded=1;whiteSpace=wrap;html=1;" vertex="1" parent="1">
          <mxGeometry x="3395" y="2602" width="120" height="60" as="geometry" />
        </mxCell>
        <mxCell id="630GsNarH-G8fu0dnIR7-52" style="edgeStyle=orthogonalEdgeStyle;rounded=0;orthogonalLoop=1;jettySize=auto;html=1;exitX=0.5;exitY=0;exitDx=0;exitDy=0;entryX=0.5;entryY=1;entryDx=0;entryDy=0;endArrow=classicThin;endFill=1;" edge="1" parent="1">
          <mxGeometry relative="1" as="geometry">
            <mxPoint x="3435" y="3062.0000000000005" as="sourcePoint" />
            <mxPoint x="3435" y="2911.9999999999995" as="targetPoint" />
          </mxGeometry>
        </mxCell>
        <mxCell id="630GsNarH-G8fu0dnIR7-27" value="Create internship&lt;br&gt;Page" style="rounded=1;whiteSpace=wrap;html=1;" vertex="1" parent="1">
          <mxGeometry x="3395" y="3032" width="120" height="60" as="geometry" />
        </mxCell>
        <mxCell id="630GsNarH-G8fu0dnIR7-53" style="edgeStyle=orthogonalEdgeStyle;rounded=0;orthogonalLoop=1;jettySize=auto;html=1;exitX=0;exitY=0.75;exitDx=0;exitDy=0;entryX=0.75;entryY=1;entryDx=0;entryDy=0;endArrow=classicThin;endFill=1;" edge="1" parent="1" source="630GsNarH-G8fu0dnIR7-32" target="630GsNarH-G8fu0dnIR7-19">
          <mxGeometry relative="1" as="geometry" />
        </mxCell>
        <mxCell id="630GsNarH-G8fu0dnIR7-71" style="edgeStyle=orthogonalEdgeStyle;rounded=0;orthogonalLoop=1;jettySize=auto;html=1;exitX=0.75;exitY=0;exitDx=0;exitDy=0;entryX=0.75;entryY=1;entryDx=0;entryDy=0;endArrow=classicThin;endFill=1;" edge="1" parent="1" source="630GsNarH-G8fu0dnIR7-32" target="630GsNarH-G8fu0dnIR7-35">
          <mxGeometry relative="1" as="geometry" />
        </mxCell>
        <mxCell id="630GsNarH-G8fu0dnIR7-32" value="View Internship&lt;br&gt;Page" style="rounded=1;whiteSpace=wrap;html=1;" vertex="1" parent="1">
          <mxGeometry x="3640" y="2932" width="120" height="60" as="geometry" />
        </mxCell>
        <mxCell id="630GsNarH-G8fu0dnIR7-64" style="edgeStyle=orthogonalEdgeStyle;rounded=0;orthogonalLoop=1;jettySize=auto;html=1;exitX=0.25;exitY=0;exitDx=0;exitDy=0;entryX=0.75;entryY=1;entryDx=0;entryDy=0;endArrow=classicThin;endFill=1;" edge="1" parent="1" source="630GsNarH-G8fu0dnIR7-35" target="630GsNarH-G8fu0dnIR7-15">
          <mxGeometry relative="1" as="geometry" />
        </mxCell>
        <mxCell id="630GsNarH-G8fu0dnIR7-70" style="edgeStyle=orthogonalEdgeStyle;rounded=0;orthogonalLoop=1;jettySize=auto;html=1;exitX=0.5;exitY=1;exitDx=0;exitDy=0;entryX=0.5;entryY=0;entryDx=0;entryDy=0;endArrow=classicThin;endFill=1;" edge="1" parent="1" source="630GsNarH-G8fu0dnIR7-35" target="630GsNarH-G8fu0dnIR7-32">
          <mxGeometry relative="1" as="geometry" />
        </mxCell>
        <mxCell id="630GsNarH-G8fu0dnIR7-74" style="edgeStyle=orthogonalEdgeStyle;rounded=0;orthogonalLoop=1;jettySize=auto;html=1;exitX=1;exitY=0.75;exitDx=0;exitDy=0;entryX=1;entryY=0.5;entryDx=0;entryDy=0;" edge="1" parent="1" source="630GsNarH-G8fu0dnIR7-35" target="630GsNarH-G8fu0dnIR7-42">
          <mxGeometry relative="1" as="geometry">
            <Array as="points">
              <mxPoint x="3790" y="2867" />
              <mxPoint x="3790" y="2692" />
            </Array>
          </mxGeometry>
        </mxCell>
        <mxCell id="630GsNarH-G8fu0dnIR7-35" value="&lt;div&gt;Application Progress Page&lt;/div&gt;" style="rounded=1;whiteSpace=wrap;html=1;" vertex="1" parent="1">
          <mxGeometry x="3640" y="2822" width="120" height="60" as="geometry" />
        </mxCell>
        <mxCell id="630GsNarH-G8fu0dnIR7-58" style="edgeStyle=orthogonalEdgeStyle;rounded=0;orthogonalLoop=1;jettySize=auto;html=1;exitX=1;exitY=0.75;exitDx=0;exitDy=0;entryX=1;entryY=0.25;entryDx=0;entryDy=0;endArrow=classicThin;endFill=1;" edge="1" parent="1" source="630GsNarH-G8fu0dnIR7-42" target="630GsNarH-G8fu0dnIR7-35">
          <mxGeometry relative="1" as="geometry" />
        </mxCell>
        <mxCell id="630GsNarH-G8fu0dnIR7-68" style="edgeStyle=orthogonalEdgeStyle;rounded=0;orthogonalLoop=1;jettySize=auto;html=1;exitX=1;exitY=0.25;exitDx=0;exitDy=0;entryX=0.5;entryY=1;entryDx=0;entryDy=0;endArrow=classicThin;endFill=1;" edge="1" parent="1" source="630GsNarH-G8fu0dnIR7-42" target="630GsNarH-G8fu0dnIR7-19">
          <mxGeometry relative="1" as="geometry">
            <Array as="points">
              <mxPoint x="3760" y="2680" />
              <mxPoint x="3800" y="2680" />
              <mxPoint x="3800" y="3010" />
              <mxPoint x="3455" y="3010" />
            </Array>
          </mxGeometry>
        </mxCell>
        <mxCell id="630GsNarH-G8fu0dnIR7-76" style="edgeStyle=orthogonalEdgeStyle;rounded=0;orthogonalLoop=1;jettySize=auto;html=1;exitX=0;exitY=0.25;exitDx=0;exitDy=0;entryX=0.75;entryY=0;entryDx=0;entryDy=0;endArrow=classicThin;endFill=1;" edge="1" parent="1" source="630GsNarH-G8fu0dnIR7-42" target="630GsNarH-G8fu0dnIR7-15">
          <mxGeometry relative="1" as="geometry" />
        </mxCell>
        <mxCell id="Cp9t5UB1SWn_GMQuyHKC-5" style="edgeStyle=orthogonalEdgeStyle;rounded=0;orthogonalLoop=1;jettySize=auto;html=1;exitX=0.25;exitY=0;exitDx=0;exitDy=0;entryX=0.75;entryY=1;entryDx=0;entryDy=0;endArrow=classicThin;endFill=1;" edge="1" parent="1" source="630GsNarH-G8fu0dnIR7-42" target="630GsNarH-G8fu0dnIR7-21">
          <mxGeometry relative="1" as="geometry">
            <Array as="points">
              <mxPoint x="3670" y="2630" />
              <mxPoint x="3590" y="2630" />
              <mxPoint x="3590" y="2570" />
              <mxPoint x="3485" y="2570" />
            </Array>
          </mxGeometry>
        </mxCell>
        <mxCell id="630GsNarH-G8fu0dnIR7-42" value="View Profile&lt;br&gt;Page" style="rounded=1;whiteSpace=wrap;html=1;" vertex="1" parent="1">
          <mxGeometry x="3640" y="2662" width="120" height="60" as="geometry" />
        </mxCell>
        <mxCell id="630GsNarH-G8fu0dnIR7-63" style="edgeStyle=orthogonalEdgeStyle;rounded=0;orthogonalLoop=1;jettySize=auto;html=1;exitX=0.25;exitY=1;exitDx=0;exitDy=0;entryX=0.863;entryY=0.983;entryDx=0;entryDy=0;entryPerimeter=0;endArrow=classicThin;endFill=1;" edge="1" parent="1" source="630GsNarH-G8fu0dnIR7-35" target="630GsNarH-G8fu0dnIR7-19">
          <mxGeometry relative="1" as="geometry">
            <Array as="points">
              <mxPoint x="3670" y="2925" />
              <mxPoint x="3499" y="2925" />
            </Array>
          </mxGeometry>
        </mxCell>
        <mxCell id="Cp9t5UB1SWn_GMQuyHKC-3" style="edgeStyle=orthogonalEdgeStyle;rounded=0;orthogonalLoop=1;jettySize=auto;html=1;exitX=0;exitY=0.5;exitDx=0;exitDy=0;entryX=1;entryY=0.5;entryDx=0;entryDy=0;endArrow=classicThin;endFill=1;" edge="1" parent="1" source="Cp9t5UB1SWn_GMQuyHKC-1" target="630GsNarH-G8fu0dnIR7-21">
          <mxGeometry relative="1" as="geometry" />
        </mxCell>
        <mxCell id="Cp9t5UB1SWn_GMQuyHKC-1" value="Manage Complaints Page" style="rounded=1;whiteSpace=wrap;html=1;" vertex="1" parent="1">
          <mxGeometry x="3640" y="2482" width="120" height="60" as="geometry" />
        </mxCell>
        <mxCell id="BO4_4LdUMhzfo3xq-RvV-1" value="DeploymentTarget1" style="verticalAlign=top;align=left;shape=cube;size=10;direction=south;fontStyle=0;html=1;boundedLbl=1;spacingLeft=5;whiteSpace=wrap;" vertex="1" parent="1">
          <mxGeometry x="360" y="3900" width="130" height="140" as="geometry" />
        </mxCell>
        <mxCell id="BO4_4LdUMhzfo3xq-RvV-2" value="Node1" style="verticalAlign=top;align=center;shape=cube;size=10;direction=south;html=1;boundedLbl=1;spacingLeft=5;whiteSpace=wrap;" vertex="1" parent="BO4_4LdUMhzfo3xq-RvV-1">
          <mxGeometry width="100" height="80" relative="1" as="geometry">
            <mxPoint x="10" y="50" as="offset" />
          </mxGeometry>
        </mxCell>
        <mxCell id="BO4_4LdUMhzfo3xq-RvV-4" value="DeploymentTarget1" style="verticalAlign=top;align=left;shape=cube;size=10;direction=south;fontStyle=0;html=1;boundedLbl=1;spacingLeft=5;whiteSpace=wrap;" vertex="1" parent="1">
          <mxGeometry x="370" y="3910" width="130" height="140" as="geometry" />
        </mxCell>
        <mxCell id="BO4_4LdUMhzfo3xq-RvV-5" value="Node1" style="verticalAlign=top;align=center;shape=cube;size=10;direction=south;html=1;boundedLbl=1;spacingLeft=5;whiteSpace=wrap;" vertex="1" parent="BO4_4LdUMhzfo3xq-RvV-4">
          <mxGeometry width="100" height="80" relative="1" as="geometry">
            <mxPoint x="10" y="50" as="offset" />
          </mxGeometry>
        </mxCell>
        <mxCell id="BO4_4LdUMhzfo3xq-RvV-6" value="DeploymentTarget1" style="verticalAlign=top;align=left;shape=cube;size=10;direction=south;fontStyle=0;html=1;boundedLbl=1;spacingLeft=5;whiteSpace=wrap;" vertex="1" parent="1">
          <mxGeometry x="380" y="3920" width="130" height="140" as="geometry" />
        </mxCell>
        <mxCell id="BO4_4LdUMhzfo3xq-RvV-7" value="Node1" style="verticalAlign=top;align=center;shape=cube;size=10;direction=south;html=1;boundedLbl=1;spacingLeft=5;whiteSpace=wrap;" vertex="1" parent="BO4_4LdUMhzfo3xq-RvV-6">
          <mxGeometry width="100" height="80" relative="1" as="geometry">
            <mxPoint x="10" y="50" as="offset" />
          </mxGeometry>
        </mxCell>
        <mxCell id="BO4_4LdUMhzfo3xq-RvV-8" value="DeploymentTarget1" style="verticalAlign=top;align=left;shape=cube;size=10;direction=south;fontStyle=0;html=1;boundedLbl=1;spacingLeft=5;whiteSpace=wrap;" vertex="1" parent="1">
          <mxGeometry x="390" y="3930" width="130" height="140" as="geometry" />
        </mxCell>
        <mxCell id="BO4_4LdUMhzfo3xq-RvV-9" value="Node1" style="verticalAlign=top;align=center;shape=cube;size=10;direction=south;html=1;boundedLbl=1;spacingLeft=5;whiteSpace=wrap;" vertex="1" parent="BO4_4LdUMhzfo3xq-RvV-8">
          <mxGeometry width="100" height="80" relative="1" as="geometry">
            <mxPoint x="10" y="50" as="offset" />
          </mxGeometry>
        </mxCell>
        <mxCell id="BO4_4LdUMhzfo3xq-RvV-17" value="&amp;laquo;Annotation&amp;raquo;&lt;br/&gt;&lt;b&gt;Component&lt;/b&gt;" style="html=1;dropTarget=0;whiteSpace=wrap;" vertex="1" parent="1">
          <mxGeometry x="603" y="4440" width="180" height="90" as="geometry" />
        </mxCell>
        <mxCell id="BO4_4LdUMhzfo3xq-RvV-18" value="" style="shape=module;jettyWidth=8;jettyHeight=4;" vertex="1" parent="BO4_4LdUMhzfo3xq-RvV-17">
          <mxGeometry x="1" width="20" height="20" relative="1" as="geometry">
            <mxPoint x="-27" y="7" as="offset" />
          </mxGeometry>
        </mxCell>
        <mxCell id="BO4_4LdUMhzfo3xq-RvV-21" value="" style="rounded=1;whiteSpace=wrap;html=1;enumerate=0;fillColor=#cce5ff;strokeColor=#36393d;dashed=1;align=center;" vertex="1" parent="1">
          <mxGeometry x="2309.5" y="4008" width="250" height="337" as="geometry" />
        </mxCell>
        <mxCell id="BO4_4LdUMhzfo3xq-RvV-22" value="&amp;lt;&amp;lt;device&amp;gt;&amp;gt;&lt;div&gt;&lt;b&gt;Personal Computer&lt;/b&gt;&lt;/div&gt;" style="verticalAlign=top;align=center;shape=cube;size=10;direction=south;fontStyle=0;html=1;boundedLbl=1;spacingLeft=5;whiteSpace=wrap;fillColor=#dae8fc;strokeColor=#6c8ebf;" vertex="1" parent="1">
          <mxGeometry x="2319.5" y="4055" width="230" height="270" as="geometry" />
        </mxCell>
        <mxCell id="BO4_4LdUMhzfo3xq-RvV-23" value="&amp;lt;&amp;lt;Operating System&amp;gt;&amp;gt;&lt;div&gt;Windows / Linux / Mac OS&lt;/div&gt;" style="verticalAlign=top;align=center;shape=cube;size=10;direction=south;html=1;boundedLbl=1;spacingLeft=5;whiteSpace=wrap;fillColor=#1ba1e2;strokeColor=#006EAF;fontColor=#ffffff;" vertex="1" parent="BO4_4LdUMhzfo3xq-RvV-22">
          <mxGeometry width="180" height="190" relative="1" as="geometry">
            <mxPoint x="25" y="60" as="offset" />
          </mxGeometry>
        </mxCell>
        <mxCell id="BO4_4LdUMhzfo3xq-RvV-33" value="&amp;lt;&amp;lt;Artifact&amp;gt;&amp;gt;&lt;div&gt;&lt;b&gt;Browser&lt;/b&gt;&lt;/div&gt;" style="rounded=0;whiteSpace=wrap;html=1;" vertex="1" parent="BO4_4LdUMhzfo3xq-RvV-22">
          <mxGeometry x="55" y="130" width="120" height="60" as="geometry" />
        </mxCell>
        <mxCell id="BO4_4LdUMhzfo3xq-RvV-39" value="" style="html=1;verticalLabelPosition=bottom;align=center;labelBackgroundColor=#ffffff;verticalAlign=top;strokeWidth=1;strokeColor=#000000;shadow=0;dashed=0;shape=mxgraph.ios7.icons.document;" vertex="1" parent="BO4_4LdUMhzfo3xq-RvV-22">
          <mxGeometry x="163.5" y="133" width="8" height="12" as="geometry" />
        </mxCell>
        <mxCell id="BO4_4LdUMhzfo3xq-RvV-27" value="&lt;div&gt;Presentation Tier&lt;/div&gt;" style="text;html=1;align=center;verticalAlign=middle;resizable=0;points=[];autosize=1;strokeColor=none;fillColor=none;" vertex="1" parent="1">
          <mxGeometry x="2379.5" y="4015" width="110" height="30" as="geometry" />
        </mxCell>
        <mxCell id="BO4_4LdUMhzfo3xq-RvV-43" value="&amp;lt;&amp;lt;Executing Environment&amp;gt;&amp;gt;&lt;br&gt;&lt;b&gt;Nginx&lt;/b&gt;" style="verticalAlign=top;align=center;shape=cube;size=10;direction=south;html=1;boundedLbl=1;spacingLeft=5;whiteSpace=wrap;fillColor=#f8cecc;strokeColor=#b85450;" vertex="1" parent="1">
          <mxGeometry x="2919" y="4095" width="200" height="225" as="geometry" />
        </mxCell>
        <mxCell id="BO4_4LdUMhzfo3xq-RvV-44" value="" style="group" connectable="0" vertex="1" parent="1">
          <mxGeometry x="2959" y="4155" width="120" height="60" as="geometry" />
        </mxCell>
        <mxCell id="BO4_4LdUMhzfo3xq-RvV-46" value="" style="group" connectable="0" vertex="1" parent="BO4_4LdUMhzfo3xq-RvV-44">
          <mxGeometry width="120" height="60" as="geometry" />
        </mxCell>
        <mxCell id="BO4_4LdUMhzfo3xq-RvV-37" value="&amp;lt;&amp;lt;Artifact&amp;gt;&amp;gt;&lt;div&gt;&lt;b&gt;Rest Service&lt;/b&gt;&lt;/div&gt;" style="rounded=0;whiteSpace=wrap;html=1;" vertex="1" parent="BO4_4LdUMhzfo3xq-RvV-46">
          <mxGeometry width="120" height="60" as="geometry" />
        </mxCell>
        <mxCell id="BO4_4LdUMhzfo3xq-RvV-40" value="" style="html=1;verticalLabelPosition=bottom;align=center;labelBackgroundColor=#ffffff;verticalAlign=top;strokeWidth=1;strokeColor=#000000;shadow=0;dashed=0;shape=mxgraph.ios7.icons.document;" vertex="1" parent="BO4_4LdUMhzfo3xq-RvV-46">
          <mxGeometry x="108" y="3" width="8" height="12" as="geometry" />
        </mxCell>
        <mxCell id="BO4_4LdUMhzfo3xq-RvV-45" value="" style="group" connectable="0" vertex="1" parent="1">
          <mxGeometry x="2959" y="4235" width="120" height="60" as="geometry" />
        </mxCell>
        <mxCell id="BO4_4LdUMhzfo3xq-RvV-41" value="&amp;lt;&amp;lt;Artifact&amp;gt;&amp;gt;&lt;div&gt;&lt;b&gt;Load Balancer&lt;/b&gt;&lt;/div&gt;" style="rounded=0;whiteSpace=wrap;html=1;" vertex="1" parent="BO4_4LdUMhzfo3xq-RvV-45">
          <mxGeometry width="120" height="60" as="geometry" />
        </mxCell>
        <mxCell id="BO4_4LdUMhzfo3xq-RvV-42" value="" style="html=1;verticalLabelPosition=bottom;align=center;labelBackgroundColor=#ffffff;verticalAlign=top;strokeWidth=1;strokeColor=#000000;shadow=0;dashed=0;shape=mxgraph.ios7.icons.document;" vertex="1" parent="BO4_4LdUMhzfo3xq-RvV-45">
          <mxGeometry x="108" y="3" width="8" height="12" as="geometry" />
        </mxCell>
        <mxCell id="BO4_4LdUMhzfo3xq-RvV-49" value="&lt;font style=&quot;color: rgb(0, 0, 0);&quot;&gt;&amp;lt;&amp;lt;Device&amp;gt;&amp;gt;&lt;br&gt;&lt;b&gt;Firewall&lt;/b&gt;&lt;/font&gt;" style="verticalAlign=top;align=center;shape=cube;size=10;direction=south;html=1;boundedLbl=1;spacingLeft=5;whiteSpace=wrap;fillColor=#FF9933;strokeColor=#C73500;fontColor=#000000;" vertex="1" parent="1">
          <mxGeometry x="2669" y="4142" width="150" height="60" as="geometry" />
        </mxCell>
        <mxCell id="BO4_4LdUMhzfo3xq-RvV-51" value="&lt;span style=&quot;color: rgb(0, 0, 0);&quot;&gt;&amp;lt;&amp;lt;Device&amp;gt;&amp;gt;&lt;/span&gt;&lt;br style=&quot;color: rgb(0, 0, 0);&quot;&gt;&lt;b style=&quot;color: rgb(0, 0, 0);&quot;&gt;Application Server&lt;/b&gt;" style="verticalAlign=top;align=center;shape=cube;size=10;direction=south;html=1;boundedLbl=1;spacingLeft=5;whiteSpace=wrap;fillColor=#FF9933;strokeColor=#B20000;fontColor=#ffffff;" vertex="1" parent="1">
          <mxGeometry x="3260" y="4017" width="250" height="270" as="geometry" />
        </mxCell>
        <mxCell id="BO4_4LdUMhzfo3xq-RvV-52" value="&amp;lt;&amp;lt;Operating System&amp;gt;&amp;gt;&lt;br&gt;&lt;b&gt;Linux&lt;/b&gt;" style="verticalAlign=top;align=center;shape=cube;size=10;direction=south;html=1;boundedLbl=1;spacingLeft=5;whiteSpace=wrap;fillColor=#FF3333;strokeColor=#b85450;" vertex="1" parent="1">
          <mxGeometry x="3280" y="4077" width="200" height="180" as="geometry" />
        </mxCell>
        <mxCell id="BO4_4LdUMhzfo3xq-RvV-53" value="" style="group" connectable="0" vertex="1" parent="1">
          <mxGeometry x="3320" y="4137" width="120" height="60" as="geometry" />
        </mxCell>
        <mxCell id="BO4_4LdUMhzfo3xq-RvV-54" value="" style="group" connectable="0" vertex="1" parent="BO4_4LdUMhzfo3xq-RvV-53">
          <mxGeometry width="120" height="60" as="geometry" />
        </mxCell>
        <mxCell id="BO4_4LdUMhzfo3xq-RvV-55" value="&amp;lt;&amp;lt;Artifact&amp;gt;&amp;gt;&lt;div&gt;&lt;b&gt;S&amp;amp;C Server App&lt;/b&gt;&lt;/div&gt;" style="rounded=0;whiteSpace=wrap;html=1;" vertex="1" parent="BO4_4LdUMhzfo3xq-RvV-54">
          <mxGeometry width="120" height="60" as="geometry" />
        </mxCell>
        <mxCell id="BO4_4LdUMhzfo3xq-RvV-56" value="" style="html=1;verticalLabelPosition=bottom;align=center;labelBackgroundColor=#ffffff;verticalAlign=top;strokeWidth=1;strokeColor=#000000;shadow=0;dashed=0;shape=mxgraph.ios7.icons.document;" vertex="1" parent="BO4_4LdUMhzfo3xq-RvV-54">
          <mxGeometry x="108" y="3" width="8" height="12" as="geometry" />
        </mxCell>
        <mxCell id="BO4_4LdUMhzfo3xq-RvV-60" style="edgeStyle=orthogonalEdgeStyle;rounded=0;orthogonalLoop=1;jettySize=auto;html=1;exitX=0;exitY=0;exitDx=192.5;exitDy=0;exitPerimeter=0;entryX=0;entryY=0;entryDx=140;entryDy=250;entryPerimeter=0;endArrow=none;endFill=0;" edge="1" parent="1" source="BO4_4LdUMhzfo3xq-RvV-48" target="BO4_4LdUMhzfo3xq-RvV-51">
          <mxGeometry relative="1" as="geometry" />
        </mxCell>
        <mxCell id="BO4_4LdUMhzfo3xq-RvV-61" style="edgeStyle=orthogonalEdgeStyle;rounded=0;orthogonalLoop=1;jettySize=auto;html=1;exitX=0;exitY=0;exitDx=25;exitDy=0;exitPerimeter=0;entryX=0;entryY=0;entryDx=202.5;entryDy=310;entryPerimeter=0;endArrow=none;endFill=0;" edge="1" parent="1" source="BO4_4LdUMhzfo3xq-RvV-49" target="BO4_4LdUMhzfo3xq-RvV-48">
          <mxGeometry relative="1" as="geometry" />
        </mxCell>
        <mxCell id="BO4_4LdUMhzfo3xq-RvV-62" style="edgeStyle=orthogonalEdgeStyle;rounded=0;orthogonalLoop=1;jettySize=auto;html=1;entryX=0;entryY=0;entryDx=35;entryDy=150;entryPerimeter=0;endArrow=none;endFill=0;" edge="1" parent="1" source="BO4_4LdUMhzfo3xq-RvV-21" target="BO4_4LdUMhzfo3xq-RvV-49">
          <mxGeometry relative="1" as="geometry" />
        </mxCell>
        <mxCell id="BO4_4LdUMhzfo3xq-RvV-63" value="HTTPS" style="edgeLabel;html=1;align=center;verticalAlign=middle;resizable=0;points=[];" connectable="0" vertex="1" parent="BO4_4LdUMhzfo3xq-RvV-62">
          <mxGeometry x="-0.3448" y="2" relative="1" as="geometry">
            <mxPoint x="10" y="-8" as="offset" />
          </mxGeometry>
        </mxCell>
        <mxCell id="BO4_4LdUMhzfo3xq-RvV-64" value="&lt;div&gt;Application Tier&lt;/div&gt;" style="text;html=1;align=center;verticalAlign=middle;resizable=0;points=[];autosize=1;strokeColor=none;fillColor=none;" vertex="1" parent="1">
          <mxGeometry x="3039" y="3885" width="110" height="30" as="geometry" />
        </mxCell>
        <mxCell id="BO4_4LdUMhzfo3xq-RvV-66" value="&lt;span style=&quot;color: rgb(0, 0, 0);&quot;&gt;&amp;lt;&amp;lt;Device&amp;gt;&amp;gt;&lt;/span&gt;&lt;br style=&quot;color: rgb(0, 0, 0);&quot;&gt;&lt;b style=&quot;color: rgb(0, 0, 0);&quot;&gt;Database Server&lt;/b&gt;" style="verticalAlign=top;align=center;shape=cube;size=10;direction=south;html=1;boundedLbl=1;spacingLeft=5;whiteSpace=wrap;fillColor=#99FF33;strokeColor=#36393d;" vertex="1" parent="1">
          <mxGeometry x="3680" y="3655" width="210" height="250" as="geometry" />
        </mxCell>
        <mxCell id="BO4_4LdUMhzfo3xq-RvV-67" value="&amp;lt;&amp;lt;Operating System&amp;gt;&amp;gt;&lt;br&gt;&lt;b&gt;Linux&lt;/b&gt;" style="verticalAlign=top;align=center;shape=cube;size=10;direction=south;html=1;boundedLbl=1;spacingLeft=5;whiteSpace=wrap;fillColor=#cdeb8b;strokeColor=#36393d;" vertex="1" parent="1">
          <mxGeometry x="3700" y="3715" width="160" height="160" as="geometry" />
        </mxCell>
        <mxCell id="BO4_4LdUMhzfo3xq-RvV-68" value="" style="group" connectable="0" vertex="1" parent="1">
          <mxGeometry x="3720" y="3775" width="120" height="60" as="geometry" />
        </mxCell>
        <mxCell id="BO4_4LdUMhzfo3xq-RvV-69" value="" style="group" connectable="0" vertex="1" parent="BO4_4LdUMhzfo3xq-RvV-68">
          <mxGeometry width="120" height="60" as="geometry" />
        </mxCell>
        <mxCell id="BO4_4LdUMhzfo3xq-RvV-70" value="&amp;lt;&amp;lt;Artifact&amp;gt;&amp;gt;&lt;div&gt;&lt;b&gt;MySQL&lt;/b&gt;&lt;/div&gt;" style="rounded=0;whiteSpace=wrap;html=1;" vertex="1" parent="BO4_4LdUMhzfo3xq-RvV-69">
          <mxGeometry width="120" height="60" as="geometry" />
        </mxCell>
        <mxCell id="BO4_4LdUMhzfo3xq-RvV-71" value="" style="html=1;verticalLabelPosition=bottom;align=center;labelBackgroundColor=#ffffff;verticalAlign=top;strokeWidth=1;strokeColor=#000000;shadow=0;dashed=0;shape=mxgraph.ios7.icons.document;" vertex="1" parent="BO4_4LdUMhzfo3xq-RvV-69">
          <mxGeometry x="108" y="3" width="8" height="12" as="geometry" />
        </mxCell>
        <mxCell id="BO4_4LdUMhzfo3xq-RvV-74" value="Data tier" style="text;html=1;align=center;verticalAlign=middle;resizable=0;points=[];autosize=1;strokeColor=none;fillColor=none;" vertex="1" parent="1">
          <mxGeometry x="3745" y="3622" width="70" height="30" as="geometry" />
        </mxCell>
        <mxCell id="BO4_4LdUMhzfo3xq-RvV-76" style="rounded=0;orthogonalLoop=1;jettySize=auto;html=1;exitX=0.163;exitY=0;exitDx=0;exitDy=0;exitPerimeter=0;entryX=0;entryY=0;entryDx=130;entryDy=210;entryPerimeter=0;endArrow=none;endFill=0;" edge="1" parent="1" source="BO4_4LdUMhzfo3xq-RvV-51" target="BO4_4LdUMhzfo3xq-RvV-66">
          <mxGeometry relative="1" as="geometry" />
        </mxCell>
        <mxCell id="BO4_4LdUMhzfo3xq-RvV-94" value="DataBase Driver" style="edgeLabel;html=1;align=center;verticalAlign=middle;resizable=0;points=[];rotation=301;labelBackgroundColor=none;" connectable="0" vertex="1" parent="BO4_4LdUMhzfo3xq-RvV-76">
          <mxGeometry x="-0.0844" relative="1" as="geometry">
            <mxPoint y="-16" as="offset" />
          </mxGeometry>
        </mxCell>
        <mxCell id="BO4_4LdUMhzfo3xq-RvV-78" value="&lt;span style=&quot;color: rgb(0, 0, 0);&quot;&gt;&amp;lt;&amp;lt;Device&amp;gt;&amp;gt;&lt;/span&gt;&lt;br style=&quot;color: rgb(0, 0, 0);&quot;&gt;&lt;b style=&quot;color: rgb(0, 0, 0);&quot;&gt;Email Server&lt;/b&gt;" style="verticalAlign=top;align=center;shape=cube;size=10;direction=south;html=1;boundedLbl=1;spacingLeft=5;whiteSpace=wrap;fillColor=#ffff88;strokeColor=#36393d;" vertex="1" parent="1">
          <mxGeometry x="3670" y="3985" width="210" height="250" as="geometry" />
        </mxCell>
        <mxCell id="BO4_4LdUMhzfo3xq-RvV-79" value="&amp;lt;&amp;lt;Operating System&amp;gt;&amp;gt;&lt;br&gt;&lt;b&gt;Linux&lt;/b&gt;" style="verticalAlign=top;align=center;shape=cube;size=10;direction=south;html=1;boundedLbl=1;spacingLeft=5;whiteSpace=wrap;fillColor=#fff2cc;strokeColor=#d6b656;" vertex="1" parent="1">
          <mxGeometry x="3690" y="4045" width="160" height="160" as="geometry" />
        </mxCell>
        <mxCell id="BO4_4LdUMhzfo3xq-RvV-80" value="" style="group" connectable="0" vertex="1" parent="1">
          <mxGeometry x="3710" y="4105" width="120" height="60" as="geometry" />
        </mxCell>
        <mxCell id="BO4_4LdUMhzfo3xq-RvV-81" value="" style="group" connectable="0" vertex="1" parent="BO4_4LdUMhzfo3xq-RvV-80">
          <mxGeometry width="120" height="60" as="geometry" />
        </mxCell>
        <mxCell id="BO4_4LdUMhzfo3xq-RvV-82" value="&amp;lt;&amp;lt;Artifact&amp;gt;&amp;gt;&lt;div&gt;&lt;b&gt;Exim Internet &lt;br&gt;Mailer&lt;/b&gt;&lt;/div&gt;" style="rounded=0;whiteSpace=wrap;html=1;" vertex="1" parent="BO4_4LdUMhzfo3xq-RvV-81">
          <mxGeometry width="120" height="60" as="geometry" />
        </mxCell>
        <mxCell id="BO4_4LdUMhzfo3xq-RvV-83" value="" style="html=1;verticalLabelPosition=bottom;align=center;labelBackgroundColor=#ffffff;verticalAlign=top;strokeWidth=1;strokeColor=#000000;shadow=0;dashed=0;shape=mxgraph.ios7.icons.document;" vertex="1" parent="BO4_4LdUMhzfo3xq-RvV-81">
          <mxGeometry x="108" y="3" width="8" height="12" as="geometry" />
        </mxCell>
        <mxCell id="BO4_4LdUMhzfo3xq-RvV-85" value="&lt;span style=&quot;color: rgb(0, 0, 0);&quot;&gt;&amp;lt;&amp;lt;Device&amp;gt;&amp;gt;&lt;/span&gt;&lt;br style=&quot;color: rgb(0, 0, 0);&quot;&gt;&lt;b style=&quot;color: rgb(0, 0, 0);&quot;&gt;Tool Server&lt;/b&gt;" style="verticalAlign=top;align=center;shape=cube;size=10;direction=south;html=1;boundedLbl=1;spacingLeft=5;whiteSpace=wrap;fillColor=#ffff88;strokeColor=#36393d;" vertex="1" parent="1">
          <mxGeometry x="3670" y="4275" width="210" height="250" as="geometry" />
        </mxCell>
        <mxCell id="BO4_4LdUMhzfo3xq-RvV-86" value="&amp;lt;&amp;lt;Operating System&amp;gt;&amp;gt;&lt;br&gt;&lt;b&gt;Linux&lt;/b&gt;" style="verticalAlign=top;align=center;shape=cube;size=10;direction=south;html=1;boundedLbl=1;spacingLeft=5;whiteSpace=wrap;fillColor=#fff2cc;strokeColor=#d6b656;" vertex="1" parent="1">
          <mxGeometry x="3690" y="4335" width="160" height="160" as="geometry" />
        </mxCell>
        <mxCell id="BO4_4LdUMhzfo3xq-RvV-87" value="" style="group" connectable="0" vertex="1" parent="1">
          <mxGeometry x="3710" y="4395" width="120" height="60" as="geometry" />
        </mxCell>
        <mxCell id="BO4_4LdUMhzfo3xq-RvV-88" value="" style="group" connectable="0" vertex="1" parent="BO4_4LdUMhzfo3xq-RvV-87">
          <mxGeometry width="120" height="60" as="geometry" />
        </mxCell>
        <mxCell id="BO4_4LdUMhzfo3xq-RvV-89" value="&amp;lt;&amp;lt;Artifact&amp;gt;&amp;gt;&lt;div&gt;&lt;b&gt;Recommendation&lt;br&gt;tools&lt;/b&gt;&lt;/div&gt;" style="rounded=0;whiteSpace=wrap;html=1;" vertex="1" parent="BO4_4LdUMhzfo3xq-RvV-88">
          <mxGeometry width="120" height="60" as="geometry" />
        </mxCell>
        <mxCell id="BO4_4LdUMhzfo3xq-RvV-90" value="" style="html=1;verticalLabelPosition=bottom;align=center;labelBackgroundColor=#ffffff;verticalAlign=top;strokeWidth=1;strokeColor=#000000;shadow=0;dashed=0;shape=mxgraph.ios7.icons.document;" vertex="1" parent="BO4_4LdUMhzfo3xq-RvV-88">
          <mxGeometry x="108" y="3" width="8" height="12" as="geometry" />
        </mxCell>
        <mxCell id="BO4_4LdUMhzfo3xq-RvV-91" style="rounded=0;orthogonalLoop=1;jettySize=auto;html=1;exitX=0;exitY=0;exitDx=130;exitDy=0;exitPerimeter=0;entryX=0;entryY=0;entryDx=130;entryDy=210;entryPerimeter=0;endArrow=none;endFill=0;" edge="1" parent="1" source="BO4_4LdUMhzfo3xq-RvV-51" target="BO4_4LdUMhzfo3xq-RvV-78">
          <mxGeometry relative="1" as="geometry" />
        </mxCell>
        <mxCell id="BO4_4LdUMhzfo3xq-RvV-92" value="+ SMTP" style="edgeLabel;html=1;align=center;verticalAlign=middle;resizable=0;points=[];rotation=352;labelBackgroundColor=none;" connectable="0" vertex="1" parent="BO4_4LdUMhzfo3xq-RvV-91">
          <mxGeometry x="0.2179" y="-1" relative="1" as="geometry">
            <mxPoint y="-10" as="offset" />
          </mxGeometry>
        </mxCell>
        <mxCell id="BO4_4LdUMhzfo3xq-RvV-93" style="rounded=0;orthogonalLoop=1;jettySize=auto;html=1;entryX=0;entryY=0;entryDx=130;entryDy=210;entryPerimeter=0;endArrow=none;endFill=0;" edge="1" parent="1" source="BO4_4LdUMhzfo3xq-RvV-51" target="BO4_4LdUMhzfo3xq-RvV-85">
          <mxGeometry relative="1" as="geometry" />
        </mxCell>
        <mxCell id="BO4_4LdUMhzfo3xq-RvV-95" value="External&lt;br&gt;Tools&lt;br&gt;API" style="edgeLabel;html=1;align=center;verticalAlign=middle;resizable=0;points=[];rotation=40;labelBackgroundColor=none;" connectable="0" vertex="1" parent="BO4_4LdUMhzfo3xq-RvV-93">
          <mxGeometry x="0.1432" y="2" relative="1" as="geometry">
            <mxPoint x="-11" y="23" as="offset" />
          </mxGeometry>
        </mxCell>
        <mxCell id="BO4_4LdUMhzfo3xq-RvV-96" value="Deployment Diagram S&amp;amp;C" style="shape=umlFrame;whiteSpace=wrap;html=1;pointerEvents=0;width=170;height=35;" vertex="1" parent="1">
          <mxGeometry x="2300" y="3610" width="1620" height="930" as="geometry" />
        </mxCell>
      </root>
    </mxGraphModel>
  </diagram>
</mxfile>
